<svg width="20" height="20" viewBox="0 0 20 20" fill="none" xmlns="http://www.w3.org/2000/svg">
<g clip-path="url(#clip0_114_3233)">
<path d="M14.5833 10.8333C11.5966 10.8333 9.16663 8.40333 9.16663 5.41667C9.16663 2.43 11.5966 0 14.5833 0C17.57 0 20 2.43 20 5.41667C20 8.40333 17.57 10.8333 14.5833 10.8333ZM14.5833 0.833333C12.0566 0.833333 9.99996 2.88917 9.99996 5.41667C9.99996 7.94417 12.0566 10 14.5833 10C17.11 10 19.1666 7.94417 19.1666 5.41667C19.1666 2.88917 17.11 0.833333 14.5833 0.833333Z" fill="#00A650"/>
<path d="M13.75 7.49955C13.6395 7.49938 13.5335 7.45567 13.455 7.37788L11.7883 5.71121C11.7124 5.63263 11.6704 5.52738 11.6714 5.41813C11.6723 5.30888 11.7161 5.20438 11.7934 5.12712C11.8706 5.04987 11.9751 5.00605 12.0844 5.0051C12.1936 5.00415 12.2989 5.04615 12.3775 5.12205L13.7291 6.47371L16.3525 3.47538C16.4258 3.39413 16.5282 3.345 16.6374 3.3386C16.7467 3.33221 16.8541 3.36906 16.9364 3.44119C17.0187 3.51333 17.0693 3.61495 17.0773 3.72411C17.0853 3.83326 17.0501 3.94118 16.9791 4.02455L14.0625 7.35788C14.0252 7.40073 13.9794 7.43543 13.9281 7.4598C13.8767 7.48418 13.8209 7.49771 13.7641 7.49955H13.75ZM16.25 14.1662H5.41664C5.32035 14.1662 5.22705 14.1327 5.15261 14.0717C5.07817 14.0106 5.02718 13.9256 5.00831 13.8312L3.34164 5.49788C3.32956 5.43745 3.33104 5.3751 3.34596 5.31531C3.36088 5.25553 3.38888 5.19979 3.42793 5.15213C3.46699 5.10447 3.51613 5.06606 3.57182 5.03967C3.6275 5.01329 3.68835 4.99958 3.74997 4.99955H7.08331C7.19381 4.99955 7.29979 5.04345 7.37793 5.12159C7.45607 5.19973 7.49997 5.30571 7.49997 5.41621C7.49997 5.52672 7.45607 5.6327 7.37793 5.71084C7.29979 5.78898 7.19381 5.83288 7.08331 5.83288H4.25831L5.75831 13.3329H15.9083L16.1391 12.1787C16.1608 12.0703 16.2246 11.9749 16.3166 11.9136C16.4086 11.8523 16.5211 11.83 16.6296 11.8516C16.738 11.8733 16.8333 11.9371 16.8947 12.0291C16.956 12.1211 16.9783 12.2336 16.9566 12.342L16.6591 13.8312C16.6399 13.9256 16.5888 14.0105 16.5142 14.0716C16.4397 14.1326 16.3463 14.166 16.25 14.1662Z" fill="#00A650"/>
<path d="M5.41582 14.1667C5.31968 14.1665 5.22658 14.133 5.15231 14.0719C5.07804 14.0108 5.02717 13.926 5.00832 13.8317L2.94249 3.50337C2.88526 3.22026 2.732 2.9656 2.50863 2.78247C2.28526 2.59934 2.0055 2.49898 1.71666 2.49837L0.41749 2.50004C0.306983 2.50015 0.200125 2.45636 0.121906 2.37829C0.0436881 2.30023 -0.000316531 2.1943 -0.000427037 2.08379C-0.000537544 1.97328 0.0432552 1.86726 0.121317 1.78904C0.199379 1.71082 0.305316 1.66682 0.415823 1.66671L1.71416 1.66504H1.71666C2.70666 1.66504 3.56582 2.36921 3.75999 3.34004L5.82499 13.6684C5.8374 13.7289 5.83613 13.7914 5.82129 13.8514C5.80644 13.9114 5.77839 13.9673 5.73918 14.0151C5.69997 14.0628 5.65059 14.1012 5.59465 14.1274C5.53871 14.1537 5.47761 14.1671 5.41582 14.1667Z" fill="#00A650"/>
<path d="M17.9167 15.833H3.75C3.06083 15.833 2.5 15.2722 2.5 14.583C2.5 13.8938 3.06083 13.333 3.75 13.333H5.41667C5.52717 13.333 5.63315 13.3769 5.71129 13.455C5.78943 13.5332 5.83333 13.6392 5.83333 13.7497C5.83333 13.8602 5.78943 13.9662 5.71129 14.0443C5.63315 14.1224 5.52717 14.1663 5.41667 14.1663H3.75C3.63949 14.1663 3.53351 14.2102 3.45537 14.2884C3.37723 14.3665 3.33333 14.4725 3.33333 14.583C3.33333 14.6935 3.37723 14.7995 3.45537 14.8776C3.53351 14.9558 3.63949 14.9997 3.75 14.9997H17.9167C18.0272 14.9997 18.1332 15.0436 18.2113 15.1217C18.2894 15.1999 18.3333 15.3058 18.3333 15.4163C18.3333 15.5268 18.2894 15.6328 18.2113 15.711C18.1332 15.7891 18.0272 15.833 17.9167 15.833ZM6.66667 19.9997C5.7475 19.9997 5 19.2522 5 18.333C5 17.4138 5.7475 16.6663 6.66667 16.6663C7.58583 16.6663 8.33333 17.4138 8.33333 18.333C8.33333 19.2522 7.58583 19.9997 6.66667 19.9997ZM6.66667 17.4997C6.4521 17.5093 6.2495 17.6013 6.10106 17.7565C5.95262 17.9117 5.86978 18.1182 5.86978 18.333C5.86978 18.5478 5.95262 18.7543 6.10106 18.9095C6.2495 19.0648 6.4521 19.1567 6.66667 19.1663C6.88123 19.1567 7.08383 19.0648 7.23227 18.9095C7.38071 18.7543 7.46356 18.5478 7.46356 18.333C7.46356 18.1182 7.38071 17.9117 7.23227 17.7565C7.08383 17.6013 6.88123 17.5093 6.66667 17.4997ZM14.1667 19.9997C13.2475 19.9997 12.5 19.2522 12.5 18.333C12.5 17.4138 13.2475 16.6663 14.1667 16.6663C15.0858 16.6663 15.8333 17.4138 15.8333 18.333C15.8333 19.2522 15.0858 19.9997 14.1667 19.9997ZM14.1667 17.4997C13.9521 17.5093 13.7495 17.6013 13.6011 17.7565C13.4526 17.9117 13.3698 18.1182 13.3698 18.333C13.3698 18.5478 13.4526 18.7543 13.6011 18.9095C13.7495 19.0648 13.9521 19.1567 14.1667 19.1663C14.3812 19.1567 14.5838 19.0648 14.7323 18.9095C14.8807 18.7543 14.9636 18.5478 14.9636 18.333C14.9636 18.1182 14.8807 17.9117 14.7323 17.7565C14.5838 17.6013 14.3812 17.5093 14.1667 17.4997Z" fill="#00A650"/>
</g>
<defs>
<clipPath id="clip0_114_3233">
<rect width="20" height="20" fill="white"/>
</clipPath>
</defs>
</svg>
