<svg width="19" height="17" viewBox="0 0 19 17" fill="none" xmlns="http://www.w3.org/2000/svg">
<g clip-path="url(#clip0_1_1813)">
<path d="M5.60687 2.20296C6.35816 1.51304 7.62548 1.96212 7.70878 2.90492L7.71341 3.00408V14.1667C7.71326 14.4396 7.59881 14.7019 7.39376 14.8994C7.18871 15.0969 6.90879 15.2143 6.612 15.2275C6.3152 15.2406 6.0243 15.1483 5.79955 14.9698C5.5748 14.7913 5.43345 14.5403 5.40478 14.2687L5.39938 14.1667V5.39825L4.28864 6.41825C4.079 6.61146 3.79648 6.72324 3.49957 6.73043C3.20267 6.73763 2.91411 6.63971 2.69366 6.45693C2.47321 6.27415 2.33775 6.02051 2.31532 5.74854C2.29289 5.47657 2.38521 5.2071 2.57317 4.99592L2.65262 4.91517L5.60687 2.20296ZM11.9558 1.77087C12.2434 1.77089 12.5207 1.86928 12.7336 2.04685C12.9466 2.22443 13.0798 2.46847 13.1074 2.73137L13.1128 2.83337V11.6018L14.2236 10.5818C14.4332 10.3886 14.7157 10.2768 15.0126 10.2696C15.3095 10.2624 15.5981 10.3604 15.8185 10.5432C16.039 10.7259 16.1744 10.9796 16.1969 11.2515C16.2193 11.5235 16.127 11.793 15.939 12.0042L15.8596 12.0849L12.9053 14.7971C12.154 15.487 10.8867 15.038 10.8034 14.0952L10.7988 13.996V2.83337C10.7988 2.55158 10.9207 2.28133 11.1377 2.08207C11.3547 1.88282 11.6489 1.77087 11.9558 1.77087Z" fill="#00a650"/>
</g>
<defs>
<clipPath id="clip0_1_1813">
<rect width="18.5123" height="17" fill="white"/>
</clipPath>
</defs>
</svg>
