<svg width="28" height="22" viewBox="0 0 28 22" fill="none" xmlns="http://www.w3.org/2000/svg">
<path d="M-8.39233e-05 1.7667L1.8627 3.24249e-05L12.0088 9.62837C12.1724 9.78265 12.3022 9.96611 12.3907 10.1682C12.4793 10.3703 12.5249 10.587 12.5249 10.8059C12.5249 11.0247 12.4793 11.2415 12.3907 11.4435C12.3022 11.6456 12.1724 11.8291 12.0088 11.9834L1.8627 21.6167L0.00167179 19.85L9.52452 10.8084L-8.39233e-05 1.7667Z" fill="white"/>
<path d="M14.5248 1.7667L16.3876 3.24249e-05L26.5337 9.62837C26.6973 9.78265 26.8271 9.96611 26.9156 10.1682C27.0042 10.3703 27.0498 10.587 27.0498 10.8059C27.0498 11.0247 27.0042 11.2415 26.9156 11.4435C26.8271 11.6456 26.6973 11.8291 26.5337 11.9834L16.3876 21.6167L14.5266 19.85L24.0494 10.8084L14.5248 1.7667Z" fill="white"/>
</svg>
