<svg width="24" height="17" viewBox="0 0 24 17" fill="none" xmlns="http://www.w3.org/2000/svg">
<path d="M20.9999 3.54165H2.99991C2.81767 3.54206 2.63904 3.57766 2.48324 3.64463C2.32744 3.7116 2.20037 3.80739 2.11572 3.92171C2.03106 4.03603 1.99203 4.16453 2.00281 4.2934C2.01359 4.42226 2.07379 4.5466 2.17691 4.65303L11.1769 13.8614C11.5499 14.2432 12.4479 14.2432 12.8219 13.8614L21.8219 4.65303C21.9261 4.54682 21.9872 4.42242 21.9985 4.29334C22.0099 4.16426 21.9711 4.03545 21.8864 3.92089C21.8017 3.80633 21.6742 3.71041 21.518 3.64355C21.3617 3.57669 21.1825 3.54145 20.9999 3.54165Z" fill="#DE0101"/>
</svg>
