<svg xmlns="http://www.w3.org/2000/svg" version="1.1" xmlns:xlink="http://www.w3.org/1999/xlink" width="20" height="20" x="0" y="0" viewBox="0 0 100 100" style="enable-background:new 0 0 512 512" xml:space="preserve" class=""><g><g fill="#000"><path fill-rule="evenodd" d="M70.459 10.948a8.927 8.927 0 0 1 12.624 0l5.97 5.97a8.926 8.926 0 0 1 0 12.623L56.328 62.265a8.926 8.926 0 0 1-4.879 2.498l-11.208 1.824c-4.011.653-7.482-2.818-6.83-6.83l1.825-11.208a8.926 8.926 0 0 1 2.498-4.878zm8.204 4.42 5.97 5.968a2.676 2.676 0 0 1 0 3.786L51.909 57.845c-.397.397-.908.66-1.463.75l-10.798 1.757 1.758-10.798c.09-.555.352-1.066.749-1.463l32.723-32.724a2.676 2.676 0 0 1 3.785 0z" clip-rule="evenodd" fill="#777777" opacity="1" data-original="#000000"></path><path d="M25 9.375C16.37 9.375 9.375 16.371 9.375 25v50c0 8.63 6.996 15.625 15.625 15.625h50c8.63 0 15.625-6.996 15.625-15.625V41.667a3.125 3.125 0 0 0-6.25 0V75A9.375 9.375 0 0 1 75 84.375H25A9.375 9.375 0 0 1 15.625 75V25A9.375 9.375 0 0 1 25 15.625h33.333a3.125 3.125 0 1 0 0-6.25z" fill="#777777" opacity="1" data-original="#000000"></path></g></g></svg>