<svg width="20" height="20" viewBox="0 0 20 20" fill="none" xmlns="http://www.w3.org/2000/svg">
<path fill-rule="evenodd" clip-rule="evenodd" d="M4.68669 3.68664C3.30419 4.31831 2.29169 5.82164 2.29169 7.61414C2.29169 9.44581 3.04169 10.8566 4.11502 12.0666C5.00085 13.0633 6.07252 13.89 7.11752 14.6958C7.36585 14.8875 7.61252 15.0775 7.85502 15.2683C8.29335 15.6141 8.68419 15.9175 9.06169 16.1375C9.43835 16.3575 9.74169 16.4583 10 16.4583C10.2584 16.4583 10.5617 16.3583 10.9384 16.1375C11.3159 15.9175 11.7067 15.6141 12.145 15.2683C12.3867 15.0766 12.6342 14.8866 12.8825 14.6958C13.9275 13.89 14.9992 13.0633 15.885 12.0666C16.9592 10.8566 17.7084 9.44581 17.7084 7.61414C17.7084 5.82248 16.6959 4.31831 15.3134 3.68664C14.085 3.12581 12.4717 3.21331 10.8934 4.59331L12.1084 5.80831C12.1681 5.86594 12.2157 5.93488 12.2485 6.01112C12.2813 6.08735 12.2986 6.16936 12.2993 6.25234C12.3001 6.33533 12.2843 6.41764 12.2529 6.49446C12.2215 6.57129 12.1752 6.64109 12.1165 6.6998C12.0579 6.75851 11.9881 6.80495 11.9113 6.83641C11.8345 6.86787 11.7522 6.88373 11.6692 6.88305C11.5862 6.88236 11.5042 6.86516 11.428 6.83244C11.3517 6.79972 11.2827 6.75214 11.225 6.69248L9.55835 5.02664L9.55002 5.01831C7.83502 3.23581 6.03002 3.07248 4.68669 3.68664ZM10 3.71664C8.07335 1.99164 5.91585 1.74998 4.16669 2.54914C2.32169 3.39498 1.04169 5.35498 1.04169 7.61498C1.04169 9.83664 1.96669 11.5308 3.18085 12.8975C4.15252 13.9916 5.34169 14.9075 6.39252 15.7166C6.63085 15.9 6.86169 16.0775 7.08085 16.25C7.50835 16.5875 7.96669 16.9458 8.43085 17.2166C8.89502 17.4883 9.42502 17.7091 10 17.7091C10.575 17.7091 11.105 17.4883 11.5692 17.2175C12.0342 16.9458 12.4917 16.5875 12.9192 16.2508C13.1384 16.0775 13.3692 15.9 13.6075 15.7166C14.6575 14.9075 15.8475 13.9916 16.8192 12.8975C18.0325 11.5308 18.9584 9.83664 18.9584 7.61498C18.9584 5.35498 17.6792 3.39498 15.8334 2.55081C14.0842 1.75081 11.9267 1.99248 10 3.71664Z" fill="#00A650"/>
</svg>
