<svg width="20" height="21" viewBox="0 0 20 21" fill="none" xmlns="http://www.w3.org/2000/svg">
<path fill-rule="evenodd" clip-rule="evenodd" d="M4.15673 3.73243C2.63635 4.4271 1.52286 6.08037 1.52286 8.05164C1.52286 10.066 2.34767 11.6175 3.52805 12.9482C4.50223 14.0443 5.68078 14.9534 6.83001 15.8396C7.10311 16.0504 7.37438 16.2593 7.64106 16.4692C8.12311 16.8495 8.55293 17.1831 8.96808 17.4251C9.38231 17.667 9.7159 17.7779 10 17.7779C10.2841 17.7779 10.6177 17.6679 11.0319 17.4251C11.4471 17.1831 11.8769 16.8495 12.3589 16.4692C12.6247 16.2584 12.8969 16.0495 13.17 15.8396C14.3192 14.9534 15.4978 14.0443 16.4719 12.9482C17.6532 11.6175 18.4771 10.066 18.4771 8.05164C18.4771 6.08128 17.3636 4.4271 15.8433 3.73243C14.4924 3.11566 12.7182 3.21189 10.9824 4.72952L12.3186 6.0657C12.3843 6.12908 12.4367 6.2049 12.4727 6.28874C12.5088 6.37258 12.5278 6.46276 12.5286 6.55402C12.5295 6.64529 12.5121 6.7358 12.4776 6.82029C12.4431 6.90478 12.3921 6.98154 12.3276 7.04611C12.2631 7.11067 12.1864 7.16175 12.1019 7.19635C12.0175 7.23095 11.927 7.24838 11.8357 7.24763C11.7444 7.24688 11.6542 7.22796 11.5704 7.19198C11.4865 7.156 11.4106 7.10367 11.3472 7.03805L9.51428 5.20608L9.50511 5.19691C7.61907 3.23663 5.63404 3.05701 4.15673 3.73243ZM10 3.76542C7.88117 1.86838 5.50849 1.60261 3.58487 2.48148C1.55586 3.41167 0.148193 5.56716 0.148193 8.05256C0.148193 10.4958 1.16545 12.3589 2.50071 13.8619C3.56929 15.0652 4.87706 16.0724 6.0327 16.9623C6.2948 17.1639 6.54866 17.3591 6.78968 17.5488C7.25982 17.9199 7.76386 18.314 8.27433 18.6119C8.78479 18.9106 9.36765 19.1535 10 19.1535C10.6323 19.1535 11.2152 18.9106 11.7257 18.6128C12.237 18.314 12.7402 17.9199 13.2103 17.5497C13.4513 17.3591 13.7052 17.1639 13.9673 16.9623C15.122 16.0724 16.4307 15.0652 17.4993 13.8619C18.8336 12.3589 19.8518 10.4958 19.8518 8.05256C19.8518 5.56716 18.4451 3.41167 16.4151 2.48331C14.4915 1.60352 12.1188 1.86929 10 3.76542Z" fill="#0D0D0D"/>
</svg>
