<svg width="17" height="16" viewBox="0 0 17 16" fill="none" xmlns="http://www.w3.org/2000/svg">
<g clip-path="url(#clip0_31_343)">
<path d="M16.335 10.0252C16.0833 9.74748 15.7601 9.54439 15.4008 9.43812C15.0414 9.33185 14.6597 9.32651 14.2975 9.42266L12.0475 10.2652V10.1902C12.0478 10.0312 12.0168 9.87368 11.9561 9.72673C11.8954 9.57977 11.8063 9.44625 11.6938 9.33383C11.5814 9.2214 11.4479 9.13229 11.3009 9.0716C11.154 9.01091 10.9965 8.97983 10.8375 8.98016H8.3375C8.10542 8.7137 7.81765 8.50147 7.49451 8.35848C7.17138 8.21549 6.82078 8.14523 6.4675 8.15266H4.4675V7.85516C4.46618 7.76012 4.42733 7.66945 4.35942 7.60295C4.29151 7.53644 4.20005 7.49949 4.105 7.50016H0.855C0.76105 7.50082 0.671135 7.53843 0.604701 7.60486C0.538267 7.6713 0.500655 7.76121 0.5 7.85516V12.7827C0.5 12.8775 0.537665 12.9684 0.604709 13.0355C0.671754 13.1025 0.762685 13.1402 0.8575 13.1402H4.1075C4.20255 13.1402 4.29374 13.1026 4.36118 13.0356C4.42862 12.9686 4.46684 12.8777 4.4675 12.7827V12.5952C5.5875 13.0227 6.665 13.4027 7.6675 13.7227C8.21892 13.9028 8.79492 13.9964 9.375 14.0002C9.99623 14.0228 10.6118 13.875 11.155 13.5727L16.175 10.9652C16.2599 10.9231 16.3336 10.8615 16.39 10.7854C16.4465 10.7094 16.4842 10.6211 16.5 10.5277C16.5143 10.4368 16.5068 10.3439 16.4781 10.2565C16.4494 10.1691 16.4004 10.0898 16.335 10.0252ZM1.2175 12.4227V8.21266H3.75V12.4127L1.2175 12.4227ZM10.81 12.9527L10.7725 12.9752C10.7725 12.9752 9.7725 13.6427 7.8825 13.0402C6.8175 12.7002 5.6675 12.2902 4.465 11.8277V8.86766H6.465C6.73212 8.85744 6.99777 8.91188 7.23934 9.02635C7.48091 9.14083 7.69126 9.31195 7.8525 9.52516C7.88407 9.57784 7.92877 9.62143 7.98223 9.65166C8.03569 9.6819 8.09608 9.69775 8.1575 9.69766H10.8325C10.9609 9.6975 11.0844 9.74673 11.1775 9.83516C11.2706 9.93002 11.3235 10.0572 11.325 10.1902C11.3243 10.2849 11.2966 10.3776 11.2453 10.4572C11.194 10.5369 11.121 10.6004 11.035 10.6402C10.9709 10.6674 10.9021 10.6818 10.8325 10.6827H7.9825C7.88769 10.6827 7.79675 10.7203 7.72971 10.7874C7.66266 10.8544 7.625 10.9453 7.625 11.0402C7.625 11.135 7.66266 11.2259 7.72971 11.293C7.79675 11.36 7.88769 11.3977 7.9825 11.3977H10.8325C10.9804 11.396 11.1269 11.368 11.265 11.3152H11.3L14.5325 10.1002C14.7371 10.0542 14.9498 10.0582 15.1525 10.1117C15.3553 10.1652 15.5422 10.2667 15.6975 10.4077L10.81 12.9527ZM10.9125 8.29766C11.5356 8.29568 12.1441 8.10912 12.6612 7.76152C13.1783 7.41391 13.5808 6.92087 13.8179 6.34466C14.055 5.76844 14.116 5.1349 13.9932 4.52403C13.8704 3.91317 13.5694 3.35238 13.1281 2.9125C12.6868 2.47261 12.1251 2.17336 11.5139 2.05252C10.9026 1.93169 10.2693 1.9947 9.69379 2.2336C9.11833 2.4725 8.62657 2.87656 8.28061 3.39477C7.93464 3.91298 7.75 4.52208 7.75 5.14516C7.75066 5.55981 7.83298 5.97027 7.99226 6.3531C8.15155 6.73594 8.38468 7.08365 8.67834 7.37639C8.97201 7.66913 9.32046 7.90115 9.7038 8.05923C10.0871 8.2173 10.4979 8.29832 10.9125 8.29766ZM10.9125 2.70766C11.3947 2.70717 11.8662 2.8497 12.2674 3.11724C12.6686 3.38477 12.9814 3.76529 13.1662 4.21064C13.3511 4.65599 13.3997 5.14617 13.306 5.61916C13.2122 6.09215 12.9802 6.52671 12.6395 6.86785C12.2987 7.20899 11.8643 7.44139 11.3915 7.53564C10.9186 7.6299 10.4283 7.58177 9.98279 7.39736C9.53725 7.21294 9.15641 6.90052 8.88847 6.49962C8.62052 6.09872 8.4775 5.62736 8.4775 5.14516C8.47816 4.49933 8.73484 3.88011 9.19127 3.4232C9.64771 2.9663 10.2667 2.70898 10.9125 2.70766Z" fill="black"/>
<path d="M10.25 5.84786C10.2701 5.8668 10.2929 5.8828 10.3175 5.89536C10.3461 5.91162 10.3763 5.92502 10.4075 5.93536L10.5175 5.97036L10.5775 5.98286L10.555 6.21286C10.5485 6.2349 10.5485 6.25832 10.555 6.28036C10.5653 6.3079 10.5859 6.33034 10.6125 6.34286C10.6342 6.35205 10.6568 6.35876 10.68 6.36286H10.8425L10.895 6.34786C10.9182 6.3401 10.9378 6.32409 10.95 6.30286L10.965 6.26786L11 6.00036C11.0754 5.99182 11.1494 5.97332 11.22 5.94536C11.3025 5.91538 11.3788 5.87046 11.445 5.81286C11.5074 5.75605 11.5576 5.68716 11.5925 5.61036C11.6269 5.53149 11.6448 5.4464 11.645 5.36036C11.6465 5.27999 11.6321 5.20011 11.6025 5.12536C11.5745 5.06233 11.5356 5.00477 11.4875 4.95536C11.4409 4.90958 11.3878 4.87084 11.33 4.84036C11.275 4.81286 11.22 4.78786 11.1625 4.76536L11 4.68286C10.9549 4.66687 10.9114 4.64679 10.87 4.62286C10.8402 4.60743 10.8139 4.58618 10.7925 4.56036C10.7721 4.54555 10.7572 4.52447 10.75 4.50036C10.7474 4.48212 10.7474 4.4636 10.75 4.44536C10.7579 4.43203 10.768 4.42018 10.78 4.41036C10.7994 4.39599 10.8215 4.38577 10.845 4.38036C10.9271 4.36052 11.0128 4.36052 11.095 4.38036C11.1351 4.39063 11.1744 4.404 11.2125 4.42036C11.2424 4.43102 11.2716 4.44355 11.3 4.45786C11.3271 4.47474 11.3581 4.48422 11.39 4.48536H11.43L11.45 4.47286C11.4678 4.45985 11.481 4.44144 11.4875 4.42036C11.4959 4.39877 11.501 4.376 11.5025 4.35286V4.20536C11.5053 4.18713 11.5053 4.16859 11.5025 4.15036C11.5005 4.1326 11.4945 4.11551 11.485 4.10036C11.4773 4.08469 11.4672 4.07035 11.455 4.05786C11.4348 4.03969 11.412 4.02453 11.3875 4.01286L11.3075 3.98036L11.2125 3.95536H11.1875L11.21 3.73286C11.2126 3.71546 11.2126 3.69776 11.21 3.68036C11.2052 3.66626 11.1976 3.65325 11.1878 3.64209C11.1779 3.63093 11.1659 3.62185 11.1525 3.61536C11.1309 3.60661 11.1082 3.60072 11.085 3.59786C11.0559 3.59498 11.0266 3.59498 10.9975 3.59786H10.925C10.904 3.59949 10.8836 3.60545 10.865 3.61536C10.8446 3.62316 10.8271 3.63714 10.815 3.65536L10.8 3.69036L10.7725 3.95286C10.7065 3.9629 10.6419 3.98051 10.58 4.00536C10.5069 4.0353 10.4399 4.07853 10.3825 4.13286C10.3294 4.18601 10.287 4.2488 10.2575 4.31786C10.2008 4.47026 10.2008 4.63796 10.2575 4.79036C10.2851 4.85433 10.3241 4.91277 10.3725 4.96286C10.4187 5.00805 10.4709 5.04673 10.5275 5.07786C10.5808 5.10722 10.6359 5.13311 10.6925 5.15536L10.8525 5.21536C10.8971 5.22947 10.9399 5.24877 10.98 5.27286C11.0093 5.28894 11.0356 5.3101 11.0575 5.33536C11.0727 5.35633 11.0798 5.38207 11.0775 5.40786C11.0787 5.43071 11.074 5.45349 11.0639 5.47404C11.0539 5.49459 11.0388 5.51225 11.02 5.52536C10.9553 5.56397 10.8801 5.58145 10.805 5.57536C10.7452 5.57579 10.6857 5.56907 10.6275 5.55536C10.5831 5.54267 10.5396 5.5268 10.4975 5.50786C10.4671 5.49544 10.4378 5.48039 10.41 5.46286C10.3817 5.44392 10.349 5.43271 10.315 5.43036C10.293 5.43081 10.2715 5.43684 10.2525 5.44786C10.2303 5.4625 10.2129 5.48337 10.2025 5.50786C10.1939 5.53115 10.1889 5.55558 10.1875 5.58036V5.67036C10.1844 5.70863 10.1844 5.74709 10.1875 5.78536C10.2033 5.81065 10.2247 5.83201 10.25 5.84786Z" fill="black"/>
</g>
<defs>
<clipPath id="clip0_31_343">
<rect width="16" height="16" fill="white" transform="translate(0.5)"/>
</clipPath>
</defs>
</svg>
