<svg width="16" height="16" viewBox="0 0 16 16" fill="none" xmlns="http://www.w3.org/2000/svg">
<g clip-path="url(#clip0_31_336)">
<path d="M6.5 11.125C6.40054 11.125 6.30516 11.0855 6.23483 11.0152C6.16451 10.9448 6.125 10.8495 6.125 10.75V10.153C6.12571 9.94368 6.18026 9.73807 6.28342 9.55593C6.38657 9.3738 6.53485 9.22126 6.714 9.113L7.275 8.7765C7.4684 8.6596 7.62846 8.49488 7.73977 8.2982C7.85107 8.10151 7.90986 7.87949 7.9105 7.6535V7.5355C7.9105 6.758 7.278 6.125 6.5 6.125C5.722 6.125 5.0895 6.758 5.0895 7.5355C5.0895 7.63496 5.04999 7.73034 4.97966 7.80066C4.90934 7.87099 4.81395 7.9105 4.7145 7.9105C4.61504 7.9105 4.51966 7.87099 4.44933 7.80066C4.37901 7.73034 4.3395 7.63496 4.3395 7.5355C4.3395 6.344 5.3085 5.375 6.5 5.375C7.6915 5.375 8.6605 6.344 8.6605 7.5355V7.6535C8.65956 8.00897 8.56706 8.35821 8.3919 8.66753C8.21674 8.97686 7.96485 9.23584 7.6605 9.4195L7.1 9.756C7.0316 9.79733 6.97498 9.85555 6.93558 9.92507C6.89617 9.9946 6.87531 10.0731 6.875 10.153V10.75C6.875 10.8495 6.83549 10.9448 6.76516 11.0152C6.69484 11.0855 6.59945 11.125 6.5 11.125Z" fill="black"/>
<path d="M0.499996 15.875C0.441137 15.875 0.383112 15.8611 0.330616 15.8345C0.278121 15.8078 0.232629 15.7692 0.197822 15.7218C0.163014 15.6743 0.139868 15.6193 0.130257 15.5612C0.120645 15.5032 0.124838 15.4436 0.142496 15.3875L1.0895 12.375C0.457893 11.3627 0.123673 10.1932 0.124996 9C0.124996 5.485 2.985 2.625 6.5 2.625C10.015 2.625 12.875 5.485 12.875 9C12.875 12.515 10.015 15.375 6.5 15.375C5.215 15.375 3.986 15 2.9275 14.287L0.712496 15.809C0.649972 15.852 0.575876 15.875 0.499996 15.875ZM2.93 13.455C3.008 13.455 3.086 13.4795 3.152 13.528C4.12141 14.2434 5.29521 14.628 6.5 14.625C9.6015 14.625 12.125 12.1015 12.125 9C12.125 5.8985 9.6015 3.375 6.5 3.375C3.3985 3.375 0.874996 5.8985 0.874996 9C0.874996 10.1115 1.199 11.1875 1.8125 12.113C1.84338 12.1596 1.86345 12.2125 1.87123 12.2679C1.87902 12.3233 1.87433 12.3797 1.8575 12.433L1.184 14.575L2.7175 13.521C2.78002 13.478 2.85412 13.455 2.93 13.455Z" fill="black"/>
<path d="M15.5 13.375C15.4241 13.375 15.35 13.352 15.2875 13.309L13.3075 11.949C13.2255 11.8927 13.1693 11.806 13.1512 11.7082C13.1331 11.6104 13.1546 11.5095 13.211 11.4275C13.2674 11.3456 13.354 11.2894 13.4518 11.2713C13.5496 11.2532 13.6505 11.2747 13.7325 11.331L14.816 12.075L14.1425 9.93251C14.1257 9.87919 14.121 9.82279 14.1288 9.76742C14.1365 9.71205 14.1566 9.65912 14.1875 9.61251C14.8 8.69012 15.1262 7.60725 15.125 6.50001C15.125 3.39851 12.6015 0.875013 9.5 0.875013C8.379 0.875013 7.298 1.20251 6.3735 1.82151C6.29087 1.87338 6.19129 1.89101 6.09588 1.87065C6.00047 1.8503 5.91675 1.79357 5.86249 1.7125C5.80822 1.63143 5.78769 1.5324 5.80524 1.43644C5.82279 1.34047 5.87705 1.25513 5.9565 1.19851C7.0046 0.496208 8.23835 0.122446 9.5 0.125013C13.015 0.125013 15.875 2.98501 15.875 6.50001C15.875 7.69901 15.542 8.86201 14.91 9.87501L15.8575 12.8875C15.8752 12.9437 15.8793 13.0032 15.8697 13.0612C15.8601 13.1193 15.837 13.1743 15.8022 13.2218C15.7674 13.2692 15.7219 13.3078 15.6694 13.3345C15.6169 13.3611 15.5589 13.375 15.5 13.375Z" fill="black"/>
<path d="M6.5 12.625C6.7071 12.625 6.875 12.4571 6.875 12.25C6.875 12.0429 6.7071 11.875 6.5 11.875C6.29289 11.875 6.125 12.0429 6.125 12.25C6.125 12.4571 6.29289 12.625 6.5 12.625Z" fill="black"/>
</g>
<defs>
<clipPath id="clip0_31_336">
<rect width="16" height="16" fill="white"/>
</clipPath>
</defs>
</svg>
