<svg xmlns="http://www.w3.org/2000/svg" version="1.1" xmlns:xlink="http://www.w3.org/1999/xlink" width="20.000044742729305" height="20" x="0" y="0" viewBox="0 0 447.001 447" style="enable-background:new 0 0 512 512" xml:space="preserve" class=""><g transform="matrix(1,0,0,1,0,25)"><path d="M399.5 171.29h-14.652L256.012 50.75a34.994 34.994 0 0 0 3.488-15.273C259.488 15.87 243.582-.012 223.977 0 204.37.012 188.488 15.918 188.5 35.523a34.746 34.746 0 0 0 3.488 15.22L63.152 171.288H48.5c-26.469 0-48.5 21.785-48.5 48.25v121c0 26.469 22.031 47.75 48.5 47.75h351a47.414 47.414 0 0 0 47.5-47.75v-121c0-26.465-21.031-48.25-47.5-48.25zM224 16.04c10.77 0 19.5 8.73 19.5 19.5 0 10.769-8.73 19.5-19.5 19.5s-19.5-8.731-19.5-19.5c.012-10.767 8.734-19.49 19.5-19.5zm-21.969 47.23c12.84 10.289 31.11 10.277 43.938-.032L361.44 171.29H86.56zM431 340.29c0 17.67-14.328 32-32 32H48c-17.672 0-32-14.33-32-32v-121c0-17.673 14.328-32 32-32h351c17.672 0 32 14.327 32 32zm0 0" fill="#00A650" opacity="1" data-original="#000000" class=""></path><path d="M119.7 261.21c0-3.097 2.902-6 10-6 8.198 0 10.1 3.802 13.698 3.802 4.403 0 6.204-5.5 6.204-8.2 0-7.8-14.602-8.8-19.903-8.8-12.5 0-25.597 5.699-25.597 20.699 0 23.402 31.699 21.3 31.699 33.402 0 4.797-5.102 6.598-9.7 6.598-9.3 0-12.3-7.399-17-7.399-3.8 0-6.8 5-6.8 8.399 0 6.601 11 13 24.097 13 14.5 0 25-7.8 25-22.2 0-25.199-31.699-23.3-31.699-33.3zM192.45 242.61c-13.802 0-24.45 6.398-24.45 23.6v26.5c0 17.2 10.648 23.599 24.45 23.599S217 309.91 217 292.71v-26.5c0-17.2-10.75-23.602-24.55-23.602zm9.55 50.1c0 6.9-3.45 10-9.05 10-5.602 0-8.95-3.1-8.95-10v-26.5c0-6.901 3.352-10 8.95-10 5.6 0 9.05 3.099 9.05 10zM275.8 302.29H253v-54.978c0-3.3-4.102-4.703-8-4.703s-8 1.403-8 4.703v63.598c0 3.2 3.8 4.375 7.2 4.375h31.6c3 0 4.5-3.097 4.5-6.5 0-3.398-1.5-6.496-4.5-6.496zM321.102 242.29h-17.704c-4.097 0-6.398 2.523-6.398 5.023v63.699c0 2.5 2.3 4.273 6.398 4.273h17.704c13.796 0 24.898-5.976 24.898-23.176v-25.902c0-17.195-11.102-23.918-24.898-23.918zM330 292.112c0 6.801-3.3 10.176-8.898 10.176H312v-46h9.102c5.597 0 8.898 3.121 8.898 9.922zm0 0" fill="#00A650" opacity="1" data-original="#000000" class=""></path></g></svg>