<svg width="20" height="20" viewBox="0 0 20 20" fill="none" xmlns="http://www.w3.org/2000/svg">
<g clip-path="url(#clip0_255_7055)">
<path d="M18.8284 8.22854C18.5052 7.94714 19.378 8.70714 18.8284 8.22854V8.22854Z" fill="#00A650"/>
<path d="M18.8284 8.22834C18.4718 7.91774 18.0062 7.59354 18.0272 7.07234C18.0498 6.51634 18.2554 5.98014 18.3272 5.42994C18.3934 4.92274 18.3528 4.37854 17.9826 3.98994C17.6538 3.64454 17.1694 3.52014 16.7126 3.45514C16.2012 3.38234 15.6406 3.41494 15.1512 3.23414C14.6958 3.06554 14.526 2.43314 14.3534 2.02994C14.1712 1.60434 13.9758 1.15814 13.641 0.827738C13.2572 0.448738 12.736 0.346538 12.223 0.495738C11.6376 0.666138 11.1466 1.05134 10.611 1.32774C10.4138 1.42974 10.182 1.54594 9.95317 1.52694C9.68617 1.50474 9.42957 1.35434 9.20157 1.22534C8.68517 0.933338 8.17497 0.554338 7.57857 0.448538C7.06237 0.356938 6.58457 0.552738 6.24977 0.947338C5.94177 1.31034 5.76197 1.76354 5.57697 2.19654C5.38297 2.65134 5.21257 3.15554 4.68617 3.28314C3.78877 3.50094 2.53277 3.26514 1.91037 4.12014C1.59397 4.55474 1.61677 5.11694 1.70377 5.62174C1.79417 6.14494 2.02237 6.70294 1.97077 7.23914C1.92577 7.70674 1.35957 8.06354 1.03817 8.34634C0.671372 8.66894 0.285772 9.02294 0.100972 9.48674C-0.325228 10.5563 0.681372 11.3267 1.37997 11.9513C1.56157 12.1139 1.75697 12.2849 1.88477 12.4951C2.00877 12.6993 1.98217 12.9517 1.94897 13.1775C1.86797 13.7295 1.68097 14.2635 1.65037 14.8233C1.62257 15.3315 1.76117 15.8369 2.18317 16.1545C2.56357 16.4409 3.05857 16.5213 3.52017 16.5721C3.77837 16.6003 4.03777 16.6171 4.29557 16.6487C4.53417 16.6779 4.82137 16.7061 5.02217 16.8523C5.20397 16.9847 5.31217 17.2215 5.40617 17.4183C5.52517 17.6675 5.62617 17.9245 5.73877 18.1761C5.92537 18.5937 6.14817 19.0311 6.52317 19.3109C6.97857 19.6507 7.53877 19.6179 8.04277 19.4085C8.59937 19.1773 9.07317 18.7839 9.63137 18.5577C10.1562 18.3455 10.6112 18.6577 11.0566 18.9221C11.553 19.2171 12.0926 19.5741 12.6922 19.5741C13.198 19.5741 13.6066 19.2781 13.8856 18.8757C14.1686 18.4675 14.3338 17.9937 14.5368 17.5445C14.6356 17.3257 14.7408 17.0855 14.911 16.9117C15.0772 16.7421 15.3438 16.7007 15.568 16.6675C16.4612 16.5339 17.7606 16.6471 18.2168 15.6643C18.4404 15.1831 18.3532 14.6217 18.2484 14.1221C18.192 13.8517 18.1234 13.5843 18.0744 13.3127C18.0332 13.0837 17.9774 12.8005 18.0732 12.5775C18.2508 12.1645 18.7284 11.8627 19.053 11.5721C19.3886 11.2717 19.7304 10.9377 19.9 10.5115C20.2834 9.54994 19.487 8.80174 18.8284 8.22834ZM18.9904 10.0813C18.8966 10.4625 18.4562 10.7687 18.176 11.0117C18.271 10.9293 18.351 10.8593 18.1718 11.0153C17.7706 11.3649 17.32 11.7363 17.128 12.2501C16.9142 12.8215 17.0752 13.4591 17.2046 14.0305C17.2784 14.3555 17.555 15.1219 17.1998 15.3681C17.0236 15.4903 16.784 15.5231 16.577 15.5525C16.2914 15.5927 16.0032 15.6103 15.7164 15.6407C15.199 15.6961 14.6458 15.7911 14.2514 16.1591C13.859 16.5251 13.6576 17.0521 13.4518 17.5349C13.321 17.8411 13.0884 18.6123 12.6472 18.5717C12.4028 18.5491 12.1672 18.4091 11.958 18.2913C11.6788 18.1339 11.4092 17.9605 11.1262 17.8105C10.5994 17.5313 10.05 17.3745 9.46357 17.5569C8.88137 17.7381 8.39277 18.1191 7.85517 18.3941C7.68317 18.4819 7.42077 18.6277 7.21957 18.5609C7.01857 18.4957 6.89297 18.2515 6.80177 18.0789C6.54537 17.5937 6.38757 17.0605 6.09737 16.5925C5.80917 16.1273 5.40177 15.8515 4.87017 15.7315C4.33337 15.6105 3.77797 15.6261 3.23897 15.5217C3.06637 15.4881 2.83097 15.4425 2.71977 15.2897C2.59337 15.1159 2.64517 14.8303 2.67517 14.6357C2.76617 14.0431 2.97717 13.4657 2.97617 12.8607C2.97517 12.2733 2.69097 11.8229 2.28197 11.4235C1.89417 11.0445 1.37657 10.7259 1.08957 10.2571C0.813772 9.80614 1.36717 9.39094 1.66977 9.12354C2.07777 8.76274 2.54277 8.41134 2.79897 7.91814C3.07857 7.37934 2.97097 6.75434 2.84737 6.18794C2.78737 5.91374 2.71797 5.64074 2.67537 5.36294C2.64537 5.16794 2.59337 4.88254 2.71997 4.70874C2.83117 4.55594 3.06657 4.51034 3.23937 4.47674C3.51897 4.42254 3.80457 4.40354 4.08757 4.37714C4.60777 4.32894 5.17597 4.27194 5.61157 3.95514C6.04297 3.64114 6.26957 3.12174 6.47337 2.64634C6.57797 2.40214 6.67757 2.15474 6.80197 1.91974C6.89317 1.74714 7.01877 1.50274 7.21977 1.43754C7.42277 1.37254 7.68157 1.51574 7.85517 1.60454C8.13957 1.75014 8.40817 1.92434 8.68557 2.08234C9.19217 2.37094 9.74557 2.61614 10.3398 2.49354C10.9332 2.37094 11.4396 1.99934 11.958 1.70694C12.1672 1.58894 12.403 1.44914 12.6474 1.42654C12.8672 1.40614 13.0068 1.59354 13.111 1.76154C13.668 2.65734 13.789 3.87434 14.9476 4.21874C15.347 4.33734 15.7676 4.36294 16.1802 4.40134C16.4992 4.43094 17.0198 4.42674 17.2596 4.68054C17.48 4.91374 17.3218 5.43014 17.2648 5.69714C17.1638 6.17174 17.0258 6.64814 17.0268 7.13714C17.0284 8.09634 17.7958 8.63294 18.4394 9.21894C18.651 9.41134 19.0726 9.74654 18.9904 10.0813Z" fill="#00A650"/>
<path d="M13.0416 7.38012L9.19857 11.5685C9.15137 11.6201 9.14937 11.6545 9.08877 11.6185L8.54817 11.2999L7.02137 10.4001C6.83977 10.2931 6.66617 10.1801 6.44217 10.2505C6.03037 10.3795 5.97737 10.9459 6.34337 11.1615L7.50057 11.8435L8.89157 12.6631C9.18717 12.8373 9.44777 12.7759 9.67237 12.5313L11.753 10.2631L13.419 8.44712L13.7698 8.06492C14.2106 7.58452 13.4826 6.89892 13.0416 7.38012Z" fill="#00A650"/>
</g>
<defs>
<clipPath id="clip0_255_7055">
<rect width="20" height="20" fill="white"/>
</clipPath>
</defs>
</svg>
