<svg width="24" height="17" viewBox="0 0 24 17" fill="none" xmlns="http://www.w3.org/2000/svg">
<path d="M3.00009 13.4583H21.0001C21.1823 13.4579 21.361 13.4223 21.5168 13.3554C21.6726 13.2884 21.7996 13.1926 21.8843 13.0783C21.9689 12.964 22.008 12.8355 21.9972 12.7066C21.9864 12.5777 21.9262 12.4534 21.8231 12.347L12.8231 3.13864C12.4501 2.75685 11.5521 2.75685 11.1781 3.13864L2.17809 12.347C2.07391 12.4532 2.01282 12.5776 2.00145 12.7067C1.99008 12.8357 2.02887 12.9646 2.1136 13.0791C2.19833 13.1937 2.32576 13.2896 2.48205 13.3564C2.63834 13.4233 2.81751 13.4586 3.00009 13.4583Z" fill="#0AC800"/>
</svg>
