<svg width="138" height="140" viewBox="0 0 138 140" fill="none" xmlns="http://www.w3.org/2000/svg">
<path fill-rule="evenodd" clip-rule="evenodd" d="M81.2776 77.1617C81.3713 77.2555 81.424 77.3827 81.4239 77.5154C81.4238 77.648 81.371 77.7752 81.2772 77.8689C81.1833 77.9626 81.0561 78.0153 80.9235 78.0152C80.7908 78.0151 80.6637 77.9623 80.5699 77.8685L79.3006 76.5992V80.6167C79.3006 80.7493 79.2479 80.8765 79.1542 80.9703C79.0604 81.064 78.9332 81.1167 78.8006 81.1167C78.668 81.1167 78.5408 81.064 78.4471 80.9703C78.3533 80.8765 78.3006 80.7493 78.3006 80.6167V76.5992L77.0312 77.8683C76.9365 77.9567 76.8111 78.0049 76.6815 78.0027C76.5519 78.0005 76.4282 77.948 76.3365 77.8564C76.2448 77.7647 76.1924 77.6411 76.1901 77.5115C76.1879 77.3818 76.236 77.2564 76.3245 77.1617L78.4469 75.0387C78.5408 74.9449 78.6681 74.8923 78.8008 74.8923C78.9335 74.8923 79.0607 74.9449 79.1546 75.0387L81.2776 77.1617ZM83.962 78.631C84.0443 77.9532 83.9923 77.2658 83.8089 76.6081C83.6255 75.9505 83.3144 75.3353 82.8933 74.7979C82.4722 74.2605 81.9493 73.8113 81.3546 73.4759C80.7598 73.1406 80.1049 72.9257 79.427 72.8435C79.2157 72.8178 79.0031 72.8048 78.7902 72.8045C77.7891 72.8066 76.8099 73.0976 75.9701 73.6427C75.1304 74.1877 74.4659 74.9636 74.0564 75.8771C73.647 76.7906 73.5099 77.8029 73.6618 78.7925C73.8137 79.782 74.248 80.7066 74.9126 81.4553C75.5772 82.2039 76.4438 82.7448 77.4083 83.013C78.3728 83.2811 79.3943 83.265 80.3499 82.9668C81.3055 82.6685 82.1547 82.1007 82.7955 81.3315C83.4362 80.5623 83.8413 79.6245 83.962 78.6307V78.631ZM56.9339 80.6872H73.2108C72.7062 79.636 72.5083 78.4638 72.64 77.3052C72.7717 76.1466 73.2276 75.0486 73.9553 74.1375C74.683 73.2264 75.653 72.539 76.7538 72.1544C77.8546 71.7698 79.0416 71.7036 80.1784 71.9634V68.0229L76.8857 64.7295L70.0552 69.6534L72.0915 71.0809C72.1467 71.1179 72.1939 71.1656 72.2304 71.2212C72.267 71.2768 72.292 71.339 72.3042 71.4044C72.3164 71.4698 72.3154 71.5369 72.3013 71.6019C72.2872 71.6669 72.2603 71.7284 72.2221 71.7828C72.1839 71.8373 72.1353 71.8836 72.079 71.919C72.0228 71.9544 71.96 71.9783 71.8944 71.9891C71.8288 72 71.7617 71.9977 71.697 71.9823C71.6323 71.9669 71.5714 71.9388 71.5177 71.8996L61.2552 64.7059L54.0006 70.8409V77.7534C54.0014 78.531 54.3107 79.2766 54.8605 79.8266C55.4104 80.3765 56.1559 80.6859 56.9336 80.6869L56.9339 80.6872ZM56.9339 56.7979H77.2451C78.0228 56.7987 78.7684 57.108 79.3183 57.6579C79.8682 58.2078 80.1775 58.9534 80.1784 59.731V66.6084L77.292 63.7223C77.208 63.6382 77.0969 63.5868 76.9785 63.5772C76.86 63.5676 76.7421 63.6004 76.6456 63.6698L69.1881 69.046L61.5137 63.666C61.4232 63.6027 61.3143 63.5711 61.2039 63.5762C61.0936 63.5812 60.988 63.6227 60.9037 63.694L54.0006 69.5317V59.731C54.0014 58.9533 54.3107 58.2077 54.8606 57.6578C55.4105 57.1079 56.1562 56.7986 56.9339 56.7979ZM83.6802 74.1816C83.0245 73.3426 82.1625 72.688 81.1782 72.2816V59.731C81.1771 58.6883 80.7623 57.6885 80.025 56.9511C79.2876 56.2138 78.2879 55.799 77.2451 55.7979H56.9339C55.8911 55.799 54.8913 56.2137 54.1539 56.9511C53.4165 57.6885 53.0018 58.6882 53.0006 59.731V77.7536C53.0018 78.7964 53.4165 79.7962 54.1539 80.5337C54.8912 81.2711 55.891 81.686 56.9338 81.6874H73.815C73.8495 81.7342 73.8852 81.7811 73.9213 81.8271C74.9352 83.1212 76.4216 83.9596 78.0535 84.1577C79.6855 84.3559 81.3294 83.8976 82.6235 82.8838C83.9176 81.8699 84.7559 80.3835 84.9541 78.7515C85.1523 77.1196 84.694 75.4757 83.6802 74.1816ZM68.7657 60.3509C69.2191 60.3508 69.6622 60.4853 70.0391 60.7371C70.416 60.9889 70.7098 61.3469 70.8833 61.7657C71.0568 62.1845 71.1022 62.6453 71.0138 63.0899C70.9253 63.5345 70.7071 63.9429 70.3865 64.2635C70.066 64.584 69.6576 64.8023 69.213 64.8908C68.7684 64.9792 68.3076 64.9339 67.8887 64.7604C67.4699 64.5869 67.112 64.2932 66.8601 63.9163C66.6082 63.5394 66.4738 63.0962 66.4738 62.6429C66.4746 62.0353 66.7164 61.4528 67.146 61.0232C67.5757 60.5936 68.1581 60.3518 68.7657 60.351V60.3509ZM68.7657 65.9347C68.1147 65.9347 67.4782 65.7416 66.9369 65.3799C66.3955 65.0182 65.9736 64.5041 65.7244 63.9026C65.4752 63.3011 65.41 62.6392 65.537 62.0006C65.6641 61.362 65.9776 60.7755 66.4379 60.3151C66.8983 59.8547 67.4849 59.5412 68.1234 59.4142C68.762 59.2871 69.4239 59.3523 70.0254 59.6015C70.6269 59.8506 71.141 60.2726 71.5028 60.8139C71.8645 61.3553 72.0575 61.9917 72.0575 62.6428C72.0565 63.5155 71.7094 64.3522 71.0923 64.9694C70.4752 65.5865 69.6385 65.9336 68.7657 65.9347Z" fill="#AAAAAA"/>
</svg>
