<svg width="32" height="33" viewBox="0 0 32 33" fill="none" xmlns="http://www.w3.org/2000/svg">
<g clip-path="url(#clip0_49_1036)">
<path d="M17.9919 29.3687H23.249C23.347 29.3687 23.4123 29.3034 23.4123 29.2054V20.2585C23.4123 20.1605 23.347 20.0952 23.249 20.0952H17.9919C17.8939 20.0952 17.8286 20.1605 17.8286 20.2585V29.2054C17.8286 29.3034 17.9266 29.3687 17.9919 29.3687ZM18.1551 20.4217H23.0858V29.0422H18.1551V20.4217Z" fill="#00A650"/>
<path d="M16.2286 1.05845C16.098 0.960496 15.9347 0.960496 15.8041 1.05845L1.79596 13.1401C1.73065 13.2054 1.698 13.3034 1.698 13.4013V15.9156C1.698 16.0462 1.7633 16.1442 1.89392 16.2095C2.02453 16.2748 2.15514 16.2421 2.2531 16.1442L4.70208 14.0217V29.9891H2.35106C2.15514 29.9891 2.02453 30.1197 2.02453 30.3156V32.0136C2.02453 32.2095 2.15514 32.3401 2.35106 32.3401H29.649C29.8449 32.3401 29.9755 32.2095 29.9755 32.0136V30.3483C29.9755 30.1523 29.8449 30.0217 29.649 30.0217H27.298V14.0544L29.747 16.1768C29.8123 16.2421 29.8776 16.2421 29.9755 16.2421C30.0082 16.2421 30.0735 16.2421 30.1062 16.2095C30.2368 16.1442 30.3021 16.0462 30.3021 15.9156V13.4013C30.3021 13.3034 30.2694 13.2054 30.2041 13.1401L16.2286 1.05845ZM29.3225 31.687H2.67759V30.6748H29.3225V31.687ZM24.196 30.0217H17.0449V19.3115H24.196V30.0217ZM26.6449 13.6625V30.0217H24.5225V19.1483C24.5225 19.0503 24.4572 18.985 24.3592 18.985H16.8817C16.7837 18.985 16.7184 19.0503 16.7184 19.1483V30.0217H5.35514V13.6625L16 4.29111L26.6776 13.5319C26.6776 13.5646 26.6449 13.5972 26.6449 13.6625ZM29.649 15.1972L16.2286 3.60539C16.098 3.50743 15.9347 3.50743 15.8041 3.60539L2.35106 15.1972V13.5319L16 1.74417L29.649 13.5319V15.1972Z" fill="#00A650"/>
<path d="M22.4001 23.1972C22.3021 23.1972 22.2368 23.2625 22.2368 23.3605V23.8829H21.0287C20.9307 23.8829 20.8654 23.9482 20.8654 24.0462C20.8654 24.1442 20.9307 24.2095 21.0287 24.2095H22.2368V24.7319C22.2368 24.8299 22.3021 24.8952 22.4001 24.8952C22.4981 24.8952 22.5634 24.8299 22.5634 24.7319V23.3605C22.5634 23.2625 22.4981 23.1972 22.4001 23.1972ZM12.8327 10.8544C12.8327 12.6176 14.2695 14.0217 16.0001 14.0217C17.7634 14.0217 19.1674 12.585 19.1674 10.8544C19.1674 9.09109 17.7307 7.68701 15.9674 7.68701C14.2368 7.68701 12.8327 9.12375 12.8327 10.8544ZM15.8368 8.01354V10.6911H13.1593C13.2246 9.25436 14.4001 8.1115 15.8368 8.01354ZM13.1593 11.0176H15.8368V13.7278C14.4001 13.6299 13.2246 12.487 13.1593 11.0176ZM16.1634 13.7278V11.0503H18.8409C18.7756 12.487 17.6001 13.6299 16.1634 13.7278ZM18.8409 10.6911H16.1634V8.01354C17.6001 8.1115 18.7756 9.25436 18.8409 10.6911ZM14.9878 16.2748H6.92254C6.82458 16.2748 6.75928 16.3401 6.75928 16.438V17.2544C6.75928 17.3523 6.82458 17.4176 6.92254 17.4176H7.44499V23.7523H6.92254C6.82458 23.7523 6.75928 23.8176 6.75928 23.9156V24.7319C6.75928 24.8299 6.82458 24.8952 6.92254 24.8952H14.9552C15.0532 24.8952 15.1185 24.8299 15.1185 24.7319V23.9156C15.1185 23.8176 15.0532 23.7523 14.9552 23.7523H14.4327V17.4176H14.9552C15.0532 17.4176 15.1185 17.3523 15.1185 17.2544V16.438C15.1511 16.3401 15.0532 16.2748 14.9878 16.2748ZM7.77152 17.4176H10.7756V20.4217H7.77152V17.4176ZM7.77152 20.7482H10.7756V23.7523H7.77152V20.7482ZM14.8246 24.5686H7.08581V24.0788H14.7919V24.5686H14.8246ZM11.1021 23.7523V20.7482H14.1062V23.7523H11.1021ZM14.1062 20.4217H11.1021V17.4176H14.1062V20.4217ZM14.8246 17.0911H7.08581V16.6013H14.7919V17.0911H14.8246Z" fill="#00A650"/>
</g>
<defs>
<clipPath id="clip0_49_1036">
<rect width="32" height="32" fill="white" transform="translate(0 0.666626)"/>
</clipPath>
</defs>
</svg>
