<svg width="32" height="33" viewBox="0 0 32 33" fill="none" xmlns="http://www.w3.org/2000/svg">
<g clip-path="url(#clip0_49_1068)">
<path d="M4.5 21.1666C4.20333 21.1666 3.91332 21.2546 3.66665 21.4194C3.41997 21.5842 3.22771 21.8185 3.11418 22.0926C3.00065 22.3667 2.97094 22.6683 3.02882 22.9593C3.0867 23.2502 3.22956 23.5175 3.43934 23.7273C3.64912 23.9371 3.91639 24.0799 4.20737 24.1378C4.49834 24.1957 4.79994 24.166 5.07403 24.0524C5.34811 23.9389 5.58238 23.7467 5.7472 23.5C5.91203 23.2533 6 22.9633 6 22.6666C5.99955 22.2689 5.84138 21.8877 5.56017 21.6065C5.27896 21.3253 4.89769 21.1671 4.5 21.1666ZM4.5 23.1666C4.40111 23.1666 4.30444 23.1373 4.22222 23.0824C4.13999 23.0274 4.0759 22.9493 4.03806 22.858C4.00022 22.7666 3.99032 22.6661 4.00961 22.5691C4.0289 22.4721 4.07652 22.383 4.14645 22.3131C4.21637 22.2431 4.30546 22.1955 4.40246 22.1762C4.49945 22.1569 4.59998 22.1668 4.69134 22.2047C4.78271 22.2425 4.86079 22.3066 4.91574 22.3888C4.97068 22.4711 5 22.5677 5 22.6666C4.99985 22.7992 4.94713 22.9263 4.85339 23.02C4.75965 23.1138 4.63256 23.1665 4.5 23.1666ZM23.5 21.1666C23.2033 21.1666 22.9133 21.2546 22.6666 21.4194C22.42 21.5842 22.2277 21.8185 22.1142 22.0926C22.0007 22.3667 21.9709 22.6683 22.0288 22.9593C22.0867 23.2502 22.2296 23.5175 22.4393 23.7273C22.6491 23.9371 22.9164 24.0799 23.2074 24.1378C23.4983 24.1957 23.7999 24.166 24.074 24.0524C24.3481 23.9389 24.5824 23.7467 24.7472 23.5C24.912 23.2533 25 22.9633 25 22.6666C24.9996 22.2689 24.8414 21.8877 24.5602 21.6065C24.279 21.3253 23.8977 21.1671 23.5 21.1666ZM23.5 23.1666C23.4011 23.1666 23.3044 23.1373 23.2222 23.0824C23.14 23.0274 23.0759 22.9493 23.0381 22.858C23.0002 22.7666 22.9903 22.6661 23.0096 22.5691C23.0289 22.4721 23.0765 22.383 23.1464 22.3131C23.2164 22.2431 23.3055 22.1955 23.4025 22.1762C23.4994 22.1569 23.6 22.1668 23.6913 22.2047C23.7827 22.2425 23.8608 22.3066 23.9157 22.3888C23.9707 22.4711 24 22.5677 24 22.6666C23.9999 22.7992 23.9471 22.9263 23.8534 23.02C23.7597 23.1138 23.6326 23.1665 23.5 23.1666Z" fill="#00A650"/>
<path d="M27 22.6666C27 22.202 26.9075 21.742 26.7278 21.3135C26.5482 20.885 26.285 20.4965 25.9537 20.1708C25.6223 19.845 25.2295 19.5885 24.798 19.4162C24.3664 19.2439 23.9049 19.1592 23.4404 19.1671C21.5434 19.1988 20 20.7908 20 22.716V24.3957C18.6303 24.0229 16.6327 23.6666 14 23.6666C11.3673 23.6666 9.36967 24.0229 7.99998 24.3957V22.6666C7.99999 22.1956 7.9049 21.7293 7.72041 21.2959C7.53593 20.8625 7.26585 20.4707 6.92635 20.1442C6.58685 19.8176 6.18492 19.5629 5.74465 19.3954C5.30438 19.2279 4.83482 19.151 4.36411 19.1693C3.48447 19.2063 2.65083 19.5724 2.02828 20.1949C1.40573 20.8175 1.03968 21.6511 1.00261 22.5308C0.969237 23.3952 1.257 24.2414 1.81045 24.9062C2.36389 25.5711 3.14384 26.0076 3.99998 26.1316V28.1666C4.00058 28.6969 4.21148 29.2052 4.58643 29.5802C4.96137 29.9551 5.46973 30.166 5.99998 30.1666V31.6666C5.99998 31.7992 6.05266 31.9264 6.14643 32.0202C6.2402 32.1139 6.36738 32.1666 6.49998 32.1666H7.99998C8.09283 32.1666 8.18385 32.1408 8.26283 32.092C8.34181 32.0431 8.40564 31.9733 8.44717 31.8903L9.30898 30.1666H18.691L19.5528 31.8903C19.5943 31.9733 19.6582 32.0431 19.7371 32.092C19.8161 32.1408 19.9071 32.1666 20 32.1666H21.5C21.6326 32.1666 21.7598 32.1139 21.8535 32.0202C21.9473 31.9264 22 31.7992 22 31.6666V30.1666C22.5302 30.166 23.0386 29.9551 23.4135 29.5802C23.7885 29.2052 23.9994 28.6969 24 28.1666V26.131C24.8326 26.0097 25.5937 25.593 26.1445 24.957C26.6953 24.3209 26.9989 23.508 27 22.6666ZM7.69098 31.1666H6.99998V30.1666H8.19098L7.69098 31.1666ZM21 31.1666H20.309L19.809 30.1666H21V31.1666ZM23.5 25.1666C23.3674 25.1666 23.2402 25.2193 23.1464 25.3131C23.0527 25.4068 23 25.534 23 25.6666V28.1666C22.9997 28.4317 22.8942 28.6859 22.7067 28.8734C22.5193 29.0609 22.2651 29.1663 22 29.1666H5.99998C5.73486 29.1663 5.48069 29.0609 5.29322 28.8734C5.10576 28.6859 5.0003 28.4317 4.99998 28.1666V25.6666C4.99998 25.534 4.94731 25.4068 4.85354 25.3131C4.75977 25.2193 4.63259 25.1666 4.49998 25.1666C4.16344 25.1666 3.83035 25.0987 3.5207 24.9669C3.21104 24.835 2.93119 24.642 2.69792 24.3995C2.46465 24.1569 2.28275 23.8697 2.16315 23.5551C2.04354 23.2405 1.98868 22.905 2.00186 22.5688C2.02835 21.9407 2.28971 21.3456 2.73419 20.9011C3.17866 20.4566 3.77384 20.1952 4.40186 20.1688C4.73815 20.1555 5.07364 20.2104 5.38823 20.3299C5.70282 20.4495 5.99003 20.6314 6.23264 20.8646C6.47525 21.0979 6.66827 21.3777 6.80012 21.6874C6.93198 21.997 6.99996 22.3301 6.99998 22.6666V24.7041C6.2118 24.9791 5.79761 25.2068 5.75486 25.2308L6.24405 26.103C6.26986 26.0886 8.88705 24.6666 14 24.6666C19.1129 24.6666 21.7301 26.0886 21.7549 26.1024L22.2451 25.2308C22.2024 25.2068 21.7882 24.9789 21 24.7041V22.716C21 21.3331 22.1022 20.1896 23.457 20.167C23.7871 20.1613 24.1151 20.221 24.422 20.3427C24.7289 20.4644 25.0086 20.6457 25.2451 20.8761C25.4815 21.1065 25.67 21.3815 25.7996 21.6851C25.9292 21.9887 25.9974 22.315 26.0003 22.6452C26.0031 22.9753 25.9405 23.3027 25.8161 23.6085C25.6917 23.9143 25.508 24.1925 25.2756 24.4269C25.0431 24.6613 24.7665 24.8474 24.4618 24.9744C24.157 25.1013 23.8301 25.1667 23.5 25.1666ZM4.99998 15.6666C5.0003 15.4015 5.10576 15.1473 5.29322 14.9599C5.48069 14.7724 5.73486 14.6669 5.99998 14.6666H22C22.2651 14.6669 22.5193 14.7724 22.7067 14.9599C22.8942 15.1473 22.9997 15.4015 23 15.6666V18.1666H24V15.6666C23.9994 15.1364 23.7885 14.628 23.4135 14.2531C23.0386 13.8781 22.5302 13.6672 22 13.6666H5.99998C5.46973 13.6672 4.96137 13.8781 4.58643 14.2531C4.21148 14.628 4.00058 15.1364 3.99998 15.6666V18.1666H4.99998V15.6666Z" fill="#00A650"/>
<path d="M11 16.6666H12V17.6666H11V16.6666ZM13.5 19.1666H14.5V20.1666H13.5V19.1666ZM8.5 19.1666H9.5V20.1666H8.5V19.1666ZM11 21.6666H12V22.6666H11V21.6666ZM16 16.6666H17V17.6666H16V16.6666ZM18.5 19.1666H19.5V20.1666H18.5V19.1666ZM16 21.6666H17V22.6666H16V21.6666ZM29 1.16663H15C14.4697 1.16722 13.9614 1.37813 13.5864 1.75307C13.2115 2.12801 13.0006 2.63638 13 3.16663V3.66663H14V3.16663C14.0003 2.90151 14.1058 2.64733 14.2932 2.45987C14.4807 2.2724 14.7349 2.16694 15 2.16663H21.5V12.6666H22.5V2.16663H29C29.2651 2.16694 29.5193 2.2724 29.7068 2.45987C29.8942 2.64733 29.9997 2.90151 30 3.16663V28.1666C29.9997 28.4317 29.8942 28.6859 29.7068 28.8734C29.5193 29.0609 29.2651 29.1663 29 29.1666H24.5V30.1666H25.691L26.5528 31.8903C26.5943 31.9733 26.6582 32.0431 26.7372 32.092C26.8161 32.1408 26.9072 32.1666 27 32.1666H28.5C28.6326 32.1666 28.7598 32.1139 28.8536 32.0202C28.9473 31.9264 29 31.7992 29 31.6666V30.1666C29.5303 30.166 30.0386 29.9551 30.4136 29.5802C30.7885 29.2052 30.9994 28.6969 31 28.1666V3.16663C30.9994 2.63638 30.7885 2.12801 30.4136 1.75307C30.0386 1.37813 29.5303 1.16722 29 1.16663ZM28 31.1666H27.309L26.809 30.1666H28V31.1666Z" fill="#00A650"/>
<path d="M4.49998 11.6666H8.99998V12.6666H9.99998V11.6666H14.5C14.5691 11.6666 14.6376 11.6523 14.7009 11.6245C14.7642 11.5967 14.8211 11.5561 14.8679 11.5052C14.9148 11.4543 14.9505 11.3942 14.9729 11.3288C14.9954 11.2634 15.004 11.194 14.9982 11.1251L14.4982 5.12506C14.4878 5.00009 14.4308 4.88359 14.3385 4.79868C14.2462 4.71376 14.1254 4.66663 14 4.66663H9.99998V3.66663H8.99998V4.66663H4.99998C4.87457 4.66663 4.75374 4.71376 4.66145 4.79868C4.56916 4.88359 4.51216 5.00009 4.50173 5.12506L4.00173 11.1251C3.99598 11.194 4.00459 11.2634 4.02702 11.3288C4.04945 11.3942 4.08521 11.4543 4.13204 11.5052C4.17887 11.5561 4.23574 11.5967 4.29908 11.6245C4.36241 11.6523 4.43082 11.6666 4.49998 11.6666ZM5.46004 5.66663H13.5399L13.9566 10.6666H5.04336L5.46004 5.66663Z" fill="#00A650"/>
</g>
<defs>
<clipPath id="clip0_49_1068">
<rect width="32" height="32" fill="white" transform="translate(0 0.666626)"/>
</clipPath>
</defs>
</svg>
