<svg width="32" height="33" viewBox="0 0 32 33" fill="none" xmlns="http://www.w3.org/2000/svg">
<path fill-rule="evenodd" clip-rule="evenodd" d="M27.7584 16.2606H26.4683V9.19842C26.4683 9.14185 26.4571 9.08582 26.4354 9.03357C26.4137 8.98131 26.382 8.93385 26.3419 8.8939C26.3018 8.85395 26.2543 8.82229 26.202 8.80075C26.1497 8.7792 26.0936 8.76819 26.037 8.76834C25.8015 8.76834 25.6094 8.96098 25.6094 9.19842V18.3584H22.2099V15.3522L24.6163 12.5767C24.6631 12.521 24.6952 12.4546 24.7097 12.3834C24.7243 12.3122 24.7208 12.2384 24.6996 12.1689L23.8298 9.32905H24.5039C24.8028 9.32905 25.0002 9.03868 24.9171 8.77L23.5073 4.27452C23.6813 4.03087 23.8299 3.74645 23.9386 3.43048L26.6205 5.30626L27.7584 7.09314V16.2606ZM17.9515 18.3584V9.19842C17.9515 8.96098 17.7595 8.76834 17.5239 8.76834C17.4673 8.76818 17.4112 8.77919 17.3589 8.80073C17.3066 8.82227 17.2591 8.85392 17.219 8.89388C17.1789 8.93383 17.1471 8.9813 17.1254 9.03356C17.1038 9.08581 17.0926 9.14184 17.0926 9.19842V16.2606H15.8024V7.09314L16.9404 5.30626L19.6223 3.43048C19.731 3.74645 19.8795 4.02972 20.0535 4.27394L18.6437 8.77C18.5606 9.03874 18.758 9.32905 19.0569 9.32905H19.731L18.8612 12.1689C18.84 12.2384 18.8366 12.3122 18.8511 12.3834C18.8657 12.4546 18.8978 12.521 18.9446 12.5767L21.351 15.3522V18.3584H17.9515ZM21.351 14.0385V5.18933C21.1408 5.13935 20.9378 5.05282 20.7494 4.93525L19.6404 8.46888H20.3109C20.5999 8.46888 20.8089 8.74735 20.724 9.02453L19.7527 12.1936L21.351 14.0385ZM22.8369 9.02453C22.752 8.74735 22.9611 8.46888 23.2501 8.46888H23.9206L22.8115 4.93583C22.623 5.05333 22.4201 5.13941 22.2099 5.1894V14.0385L23.8081 12.1936L22.8369 9.02453ZM28.5485 6.73711L27.2982 4.77167C27.2686 4.72361 27.2291 4.68242 27.1823 4.65084L24.1851 2.55311C24.0338 2.4468 23.8493 2.47509 23.6415 2.47509C23.4422 2.47509 23.2646 2.61512 23.2211 2.81173C23.0182 3.73448 22.4238 4.37845 21.7787 4.37845C21.1372 4.37845 20.5428 3.73442 20.3399 2.81173C20.2964 2.61512 20.1188 2.47509 19.9195 2.47509C19.7117 2.47509 19.5272 2.4468 19.3759 2.55311L16.3787 4.65084C16.3319 4.68244 16.2924 4.72362 16.2627 4.77167L15.0124 6.73711C14.9653 6.80591 14.9435 6.88617 14.9435 6.96757V16.6907C14.9435 16.7473 14.9547 16.8033 14.9764 16.8556C14.998 16.9078 15.0298 16.9553 15.0699 16.9953C15.1099 17.0352 15.1575 17.0669 15.2098 17.0884C15.2621 17.11 15.3182 17.121 15.3748 17.1209H17.0926V18.7885C17.0926 18.8451 17.1038 18.9011 17.1254 18.9534C17.1471 19.0056 17.1789 19.0531 17.219 19.093C17.2591 19.133 17.3066 19.1646 17.3589 19.1862C17.4112 19.2077 17.4673 19.2187 17.5239 19.2186H21.351V22.302C20.9783 22.3858 20.6391 22.5789 20.3769 22.8568C20.1148 23.1346 19.9416 23.4844 19.8795 23.8613C19.6838 25.014 18.6944 25.8501 17.5239 25.8501H16.5345C16.2989 25.8501 16.1069 26.0428 16.1069 26.2802C16.1069 26.5177 16.2989 26.7103 16.5345 26.7103H17.5239C19.1149 26.7103 20.463 25.5726 20.7276 24.0047C20.7892 23.6462 21.032 23.3504 21.351 23.2069V26.2802C21.351 26.5177 21.543 26.7103 21.7786 26.7103C21.8352 26.7105 21.8912 26.6994 21.9436 26.6779C21.9959 26.6564 22.0434 26.6247 22.0835 26.5848C22.1236 26.5448 22.1554 26.4973 22.177 26.4451C22.1987 26.3928 22.2099 26.3368 22.2099 26.2802V23.2069C22.5288 23.3504 22.7716 23.6462 22.8333 24.0047C23.0978 25.5726 24.446 26.7103 26.037 26.7103H27.0263C27.2619 26.7103 27.454 26.5177 27.454 26.2802C27.454 26.0428 27.2619 25.8501 27.0263 25.8501H26.037C24.8664 25.8501 23.877 25.014 23.6813 23.8613C23.5472 23.0757 22.96 22.4712 22.2099 22.302V19.2186H26.037C26.0935 19.2187 26.1496 19.2077 26.2019 19.1862C26.2542 19.1646 26.3018 19.133 26.3418 19.093C26.3819 19.0531 26.4137 19.0056 26.4354 18.9534C26.457 18.9011 26.4682 18.8451 26.4682 18.7885V17.1209H28.186C28.2426 17.121 28.2987 17.11 28.351 17.0884C28.4033 17.0669 28.4508 17.0352 28.4909 16.9953C28.531 16.9553 28.5628 16.9078 28.5844 16.8556C28.6061 16.8033 28.6173 16.7473 28.6173 16.6907V6.96757C28.6174 6.88617 28.592 6.80591 28.5485 6.73711ZM6.78929 17.064C8.27684 16.8553 9.83915 16.8553 11.3267 17.064C11.5659 18.5441 12.2834 20.0283 13.5773 21.6954C10.7963 23.3445 7.31966 23.3445 4.53867 21.6954C5.83249 20.0283 6.55371 18.5441 6.78929 17.064ZM5.28888 11.5141L7.13355 10.8046C7.47781 11.7578 8.22443 12.3892 9.05797 12.3892C9.89515 12.3892 10.6381 11.7584 10.986 10.8046L12.8271 11.5141C11.7217 13.0755 11.1999 14.6148 11.247 16.1861C9.80446 16.0016 8.31544 16.0006 6.87262 16.1861C6.91614 14.6147 6.39422 13.0755 5.28888 11.5141ZM14.3021 30.0014H13.3127C12.1457 30.0014 11.1563 29.1652 10.9606 28.0126C10.8265 27.227 10.2358 26.6225 9.4892 26.4533V23.7821C11.265 23.7048 12.9719 23.1485 14.4506 22.161C14.6642 22.0191 14.7074 21.7317 14.5448 21.5319C11.5223 17.8142 11.3121 14.8379 13.849 11.5806C14.0267 11.3517 13.9348 11.0188 13.6642 10.9148L10.8519 9.83209C10.6061 9.73673 10.3277 9.89224 10.2756 10.1492C10.1126 10.9612 9.6124 11.5289 9.0579 11.5289C8.50341 11.5289 8.00331 10.9612 7.84017 10.1492C7.78718 9.88744 7.51205 9.73737 7.26392 9.83209L4.45157 10.9148C4.18846 11.016 4.08523 11.3467 4.26673 11.5806C6.80363 14.8385 6.59704 17.8142 3.57093 21.5319C3.41285 21.7261 3.45579 22.0219 3.66513 22.161C5.14379 23.1485 6.85438 23.7048 8.62654 23.7821V26.4533C7.87998 26.6225 7.28926 27.227 7.15512 28.0126C6.96305 29.1652 5.97368 30.0014 4.80305 30.0014H3.81387C3.6998 30.0014 3.59041 30.0467 3.50976 30.1274C3.4291 30.2081 3.38379 30.3174 3.38379 30.4315C3.38379 30.5456 3.4291 30.655 3.50976 30.7356C3.59041 30.8163 3.6998 30.8616 3.81387 30.8616H4.80325C6.39422 30.8616 7.7388 29.7238 8.00696 28.156C8.06494 27.7975 8.30776 27.5017 8.62667 27.3582V30.4315C8.62667 30.6689 8.82238 30.8616 9.0579 30.8616C9.11448 30.8617 9.17054 30.8507 9.22286 30.8292C9.27518 30.8077 9.32273 30.776 9.3628 30.7361C9.40287 30.6961 9.43465 30.6486 9.45634 30.5964C9.47803 30.5441 9.4892 30.4881 9.4892 30.4315V27.3582C9.80811 27.5017 10.0509 27.7975 10.1126 28.1565C10.2389 28.9135 10.63 29.601 11.2161 30.0964C11.8022 30.5918 12.5452 30.863 13.3127 30.8616H14.3021C14.4161 30.8616 14.5255 30.8163 14.6062 30.7356C14.6868 30.655 14.7321 30.5456 14.7321 30.4315C14.7321 30.3174 14.6868 30.2081 14.6062 30.1274C14.5255 30.0467 14.4161 30.0014 14.3021 30.0014Z" fill="#00A650"/>
</svg>
