<svg width="32" height="33" viewBox="0 0 32 33" fill="none" xmlns="http://www.w3.org/2000/svg">
<path d="M4 21.6666C3.3372 21.6658 2.70178 21.4022 2.23311 20.9335C1.76444 20.4648 1.50079 19.8294 1.5 19.1666V18.1666C1.5 17.5036 1.76339 16.8677 2.23223 16.3989C2.70107 15.93 3.33696 15.6666 4 15.6666C4.66304 15.6666 5.29893 15.93 5.76777 16.3989C6.23661 16.8677 6.5 17.5036 6.5 18.1666V19.1666C6.49921 19.8294 6.23556 20.4648 5.76689 20.9335C5.29822 21.4022 4.6628 21.6658 4 21.6666ZM4 16.6666C3.60218 16.6666 3.22064 16.8247 2.93934 17.106C2.65804 17.3873 2.5 17.7688 2.5 18.1666V19.1666C2.5 19.5645 2.65804 19.946 2.93934 20.2273C3.22064 20.5086 3.60218 20.6666 4 20.6666C4.39782 20.6666 4.77936 20.5086 5.06066 20.2273C5.34196 19.946 5.5 19.5645 5.5 19.1666V18.1666C5.5 17.7688 5.34196 17.3873 5.06066 17.106C4.77936 16.8247 4.39782 16.6666 4 16.6666ZM7.5 25.6666C7.36739 25.6666 7.24021 25.6139 7.14645 25.5202C7.05268 25.4264 7 25.2992 7 25.1666V23.6666C7 23.4014 6.89464 23.1471 6.70711 22.9595C6.51957 22.772 6.26522 22.6666 6 22.6666H2C1.73478 22.6666 1.48043 22.772 1.29289 22.9595C1.10536 23.1471 1 23.4014 1 23.6666V25.1666C1 25.2992 0.947322 25.4264 0.853553 25.5202C0.759785 25.6139 0.632608 25.6666 0.5 25.6666C0.367392 25.6666 0.240215 25.6139 0.146447 25.5202C0.0526784 25.4264 0 25.2992 0 25.1666V23.6666C0 23.1362 0.210714 22.6275 0.585786 22.2524C0.960859 21.8773 1.46957 21.6666 2 21.6666H6C6.53043 21.6666 7.03914 21.8773 7.41421 22.2524C7.78929 22.6275 8 23.1362 8 23.6666V25.1666C8 25.2992 7.94732 25.4264 7.85355 25.5202C7.75979 25.6139 7.63261 25.6666 7.5 25.6666ZM28 21.6666C27.3372 21.6658 26.7018 21.4022 26.2331 20.9335C25.7644 20.4648 25.5008 19.8294 25.5 19.1666V18.1666C25.5 17.5036 25.7634 16.8677 26.2322 16.3989C26.7011 15.93 27.337 15.6666 28 15.6666C28.663 15.6666 29.2989 15.93 29.7678 16.3989C30.2366 16.8677 30.5 17.5036 30.5 18.1666V19.1666C30.4992 19.8294 30.2356 20.4648 29.7669 20.9335C29.2982 21.4022 28.6628 21.6658 28 21.6666ZM28 16.6666C27.6022 16.6666 27.2206 16.8247 26.9393 17.106C26.658 17.3873 26.5 17.7688 26.5 18.1666V19.1666C26.5 19.5645 26.658 19.946 26.9393 20.2273C27.2206 20.5086 27.6022 20.6666 28 20.6666C28.3978 20.6666 28.7794 20.5086 29.0607 20.2273C29.342 19.946 29.5 19.5645 29.5 19.1666V18.1666C29.5 17.7688 29.342 17.3873 29.0607 17.106C28.7794 16.8247 28.3978 16.6666 28 16.6666ZM31.5 25.6666C31.3674 25.6666 31.2402 25.6139 31.1464 25.5202C31.0527 25.4264 31 25.2992 31 25.1666V23.6666C31 23.4014 30.8946 23.1471 30.7071 22.9595C30.5196 22.772 30.2652 22.6666 30 22.6666H26C25.7348 22.6666 25.4804 22.772 25.2929 22.9595C25.1054 23.1471 25 23.4014 25 23.6666V25.1666C25 25.2992 24.9473 25.4264 24.8536 25.5202C24.7598 25.6139 24.6326 25.6666 24.5 25.6666C24.3674 25.6666 24.2402 25.6139 24.1464 25.5202C24.0527 25.4264 24 25.2992 24 25.1666V23.6666C24 23.1362 24.2107 22.6275 24.5858 22.2524C24.9609 21.8773 25.4696 21.6666 26 21.6666H30C30.5304 21.6666 31.0391 21.8773 31.4142 22.2524C31.7893 22.6275 32 23.1362 32 23.6666V25.1666C32 25.2992 31.9473 25.4264 31.8536 25.5202C31.7598 25.6139 31.6326 25.6666 31.5 25.6666ZM16 8.16663C15.3372 8.16583 14.7018 7.90218 14.2331 7.43352C13.7644 6.96485 13.5008 6.32942 13.5 5.66663V4.66663C13.5 4.00358 13.7634 3.3677 14.2322 2.89886C14.7011 2.43002 15.337 2.16663 16 2.16663C16.663 2.16663 17.2989 2.43002 17.7678 2.89886C18.2366 3.3677 18.5 4.00358 18.5 4.66663V5.66663C18.4992 6.32942 18.2356 6.96485 17.7669 7.43352C17.2982 7.90218 16.6628 8.16583 16 8.16663ZM16 3.16663C15.6022 3.16663 15.2206 3.32466 14.9393 3.60597C14.658 3.88727 14.5 4.2688 14.5 4.66663V5.66663C14.5 6.06445 14.658 6.44598 14.9393 6.72729C15.2206 7.00859 15.6022 7.16663 16 7.16663C16.3978 7.16663 16.7794 7.00859 17.0607 6.72729C17.342 6.44598 17.5 6.06445 17.5 5.66663V4.66663C17.5 4.2688 17.342 3.88727 17.0607 3.60597C16.7794 3.32466 16.3978 3.16663 16 3.16663ZM19.5 12.1666C19.3674 12.1666 19.2402 12.1139 19.1464 12.0202C19.0527 11.9264 19 11.7992 19 11.6666V10.1666C19 9.90141 18.8946 9.64706 18.7071 9.45952C18.5196 9.27198 18.2652 9.16663 18 9.16663H14C13.7348 9.16663 13.4804 9.27198 13.2929 9.45952C13.1054 9.64706 13 9.90141 13 10.1666V11.6666C13 11.7992 12.9473 11.9264 12.8536 12.0202C12.7598 12.1139 12.6326 12.1666 12.5 12.1666C12.3674 12.1666 12.2402 12.1139 12.1464 12.0202C12.0527 11.9264 12 11.7992 12 11.6666V10.1666C12 9.63619 12.2107 9.12749 12.5858 8.75241C12.9609 8.37734 13.4696 8.16663 14 8.16663H18C18.5304 8.16663 19.0391 8.37734 19.4142 8.75241C19.7893 9.12749 20 9.63619 20 10.1666V11.6666C20 11.7992 19.9473 11.9264 19.8536 12.0202C19.7598 12.1139 19.6326 12.1666 19.5 12.1666ZM16 31.1666C14.3541 31.1714 12.7237 30.8488 11.2036 30.2175C9.68359 29.5863 8.30429 28.659 7.146 27.4896C7.09831 27.4434 7.06031 27.3882 7.03419 27.3272C7.00808 27.2661 6.99438 27.2005 6.9939 27.1341C6.99342 27.0677 7.00616 27.0019 7.03139 26.9405C7.05662 26.8791 7.09382 26.8233 7.14083 26.7764C7.18784 26.7296 7.24372 26.6925 7.3052 26.6675C7.36668 26.6424 7.43254 26.6299 7.49892 26.6305C7.56531 26.6312 7.6309 26.6451 7.69186 26.6714C7.75282 26.6976 7.80794 26.7358 7.854 26.7836C8.9224 27.8558 10.1919 28.7065 11.5898 29.2869C12.9877 29.8674 14.4864 30.1662 16 30.1662C17.5136 30.1662 19.0123 29.8674 20.4102 29.2869C21.8081 28.7065 23.0776 27.8558 24.146 26.7836C24.1921 26.7358 24.2472 26.6976 24.3081 26.6714C24.3691 26.6451 24.4347 26.6312 24.5011 26.6305C24.5675 26.6299 24.6333 26.6424 24.6948 26.6675C24.7563 26.6925 24.8122 26.7296 24.8592 26.7764C24.9062 26.8233 24.9434 26.8791 24.9686 26.9405C24.9938 27.0019 25.0066 27.0677 25.0061 27.1341C25.0056 27.2005 24.9919 27.2661 24.9658 27.3272C24.9397 27.3882 24.9017 27.4434 24.854 27.4896C23.6956 28.6588 22.3163 29.586 20.7963 30.2173C19.2762 30.8485 17.6459 31.1712 16 31.1666ZM27.317 15.1666C27.2136 15.1666 27.1127 15.1346 27.0282 15.0748C26.9438 15.0151 26.8799 14.9307 26.8455 14.8331C26.2671 13.219 25.3383 11.753 24.1259 10.5405C22.9135 9.32806 21.4476 8.39918 19.8335 7.82063C19.7699 7.80015 19.711 7.76712 19.6603 7.72349C19.6097 7.67986 19.5683 7.62651 19.5386 7.56661C19.5089 7.5067 19.4916 7.44145 19.4875 7.37472C19.4835 7.30798 19.4929 7.24112 19.5152 7.17808C19.5375 7.11505 19.5721 7.05712 19.6172 7.00772C19.6622 6.95833 19.7167 6.91847 19.7775 6.8905C19.8382 6.86253 19.9039 6.84703 19.9707 6.8449C20.0376 6.84278 20.1041 6.85408 20.1665 6.87813C21.9211 7.5067 23.5146 8.51623 24.8325 9.83412C26.1504 11.152 27.1599 12.7455 27.7885 14.5001C27.8151 14.5755 27.8233 14.6562 27.8123 14.7355C27.8013 14.8147 27.7714 14.8901 27.7252 14.9554C27.679 15.0207 27.6179 15.0739 27.5468 15.1107C27.4758 15.1475 27.397 15.1666 27.317 15.1666ZM4.683 15.1666C4.60302 15.1666 4.52421 15.1475 4.45318 15.1107C4.38214 15.0739 4.32097 15.0207 4.27478 14.9554C4.22859 14.8901 4.19873 14.8147 4.18772 14.7355C4.17671 14.6562 4.18487 14.5755 4.2115 14.5001C4.84008 12.7455 5.8496 11.152 7.1675 9.83412C8.48539 8.51623 10.0789 7.5067 11.8335 6.87813C11.8959 6.85408 11.9624 6.84278 12.0293 6.8449C12.0961 6.84703 12.1618 6.86253 12.2225 6.8905C12.2833 6.91847 12.3378 6.95833 12.3828 7.00772C12.4279 7.05712 12.4625 7.11505 12.4848 7.17808C12.5071 7.24112 12.5165 7.30798 12.5125 7.37472C12.5084 7.44145 12.4911 7.5067 12.4614 7.56661C12.4317 7.62651 12.3903 7.67986 12.3397 7.72349C12.289 7.76712 12.2301 7.80015 12.1665 7.82063C10.5524 8.39918 9.0865 9.32806 7.87411 10.5405C6.66172 11.753 5.73294 13.219 5.1545 14.8331C5.12006 14.9307 5.05621 15.0151 4.97177 15.0748C4.88732 15.1346 4.78643 15.1666 4.683 15.1666ZM16.583 26.1666H15.417C15.1681 26.1662 14.928 26.075 14.7414 25.9103C14.5549 25.7456 14.4347 25.5185 14.4035 25.2716L14.318 24.5911C14.111 24.5081 13.908 24.4241 13.7145 24.3286L13.1645 24.7591C12.9677 24.9116 12.7221 24.9872 12.4737 24.9717C12.2252 24.9563 11.9909 24.8508 11.8145 24.6751L10.99 23.8506C10.8142 23.6743 10.7087 23.44 10.6932 23.1915C10.6778 22.943 10.7534 22.6974 10.906 22.5006L11.327 21.9591C11.239 21.7579 11.1588 21.5535 11.0865 21.3461L10.3935 21.2626C10.147 21.2311 9.92033 21.1109 9.75592 20.9244C9.5915 20.738 9.50054 20.4982 9.5 20.2496V19.0836C9.50046 18.8348 9.59158 18.5946 9.75632 18.408C9.92105 18.2215 10.1481 18.1014 10.395 18.0701L11.0755 17.9851C11.157 17.7816 11.241 17.5786 11.337 17.3821L10.9075 16.8321C10.755 16.6353 10.6794 16.3898 10.6949 16.1413C10.7103 15.8928 10.8158 15.6585 10.9915 15.4821L11.816 14.6576C11.9924 14.482 12.2267 14.3766 12.4752 14.3612C12.7236 14.3457 12.9692 14.4212 13.166 14.5736L13.707 14.9946C13.907 14.9086 14.111 14.8246 14.3185 14.7541L14.4035 14.0611C14.4349 13.8143 14.555 13.5874 14.7416 13.4228C14.9281 13.2581 15.1682 13.1671 15.417 13.1666H16.583C16.8319 13.1671 17.072 13.2582 17.2586 13.4229C17.4451 13.5877 17.5653 13.8147 17.5965 14.0616L17.682 14.7421C17.889 14.8251 18.092 14.9091 18.2855 15.0046L18.8355 14.5741C19.0323 14.4217 19.2779 14.3462 19.5263 14.3617C19.7748 14.3771 20.0091 14.4825 20.1855 14.6581L21.01 15.4826C21.1858 15.6589 21.2913 15.8933 21.3068 16.1418C21.3222 16.3903 21.2466 16.6359 21.094 16.8326L20.673 17.3741C20.7605 17.5791 20.8445 17.7821 20.9135 17.9871L21.6065 18.0706C21.853 18.1022 22.0797 18.2224 22.2441 18.4088C22.4085 18.5952 22.4995 18.8351 22.5 19.0836V20.2496C22.4995 20.4985 22.4084 20.7387 22.2437 20.9252C22.079 21.1117 21.8519 21.2319 21.605 21.2631L20.9245 21.3481C20.8425 21.5521 20.7585 21.7556 20.663 21.9511L21.0925 22.5011C21.245 22.6979 21.3206 22.9435 21.3051 23.192C21.2897 23.4404 21.1842 23.6748 21.0085 23.8511L20.184 24.6756C20.0076 24.8513 19.7733 24.9568 19.5248 24.9722C19.2764 24.9877 19.0308 24.9121 18.834 24.7596L18.293 24.3386C18.093 24.4246 17.889 24.5086 17.6815 24.5791L17.5965 25.2721C17.5651 25.5189 17.445 25.7459 17.2584 25.9105C17.0719 26.0751 16.8318 26.1662 16.583 26.1666ZM13.7235 23.3321C13.8729 23.3322 14.0203 23.3664 14.1545 23.4321C14.3126 23.5091 14.4754 23.5759 14.642 23.6321C14.8202 23.6952 14.9772 23.8068 15.0953 23.9543C15.2134 24.1019 15.288 24.2795 15.3105 24.4671L15.3955 25.1471L16.583 25.1666L16.6895 24.4666C16.7121 24.279 16.7867 24.1014 16.905 23.9539C17.0232 23.8065 17.1803 23.695 17.3585 23.6321C17.5245 23.5757 17.6869 23.5089 17.8445 23.4321C18.015 23.351 18.2048 23.319 18.3925 23.3398C18.5802 23.3605 18.7583 23.4332 18.907 23.5496L19.448 23.9706L20.3 23.1436L19.881 22.5736C19.7646 22.425 19.692 22.247 19.6711 22.0594C19.6503 21.8718 19.6821 21.6821 19.763 21.5116C19.8396 21.3539 19.9064 21.1916 19.963 21.0256C20.0263 20.8471 20.1382 20.6899 20.2861 20.5716C20.434 20.4533 20.612 20.3787 20.8 20.3561L21.5 20.2496V19.0836L20.8 18.9771C20.6125 18.9542 20.435 18.8795 20.2876 18.7614C20.1401 18.6434 20.0284 18.4866 19.965 18.3086C19.909 18.1418 19.8422 17.9788 19.765 17.8206C19.6842 17.6503 19.6525 17.4609 19.6733 17.2736C19.6942 17.0863 19.7668 16.9085 19.883 16.7601L20.304 16.2186L19.477 15.3666L18.9075 15.7856C18.759 15.9022 18.581 15.9751 18.3934 15.996C18.2057 16.017 18.016 15.9851 17.8455 15.9041C17.6874 15.8272 17.5246 15.7604 17.358 15.7041C17.1798 15.6411 17.0228 15.5295 16.9047 15.3819C16.7866 15.2344 16.712 15.0568 16.6895 14.8691L16.6045 14.1891L15.417 14.1666L15.3105 14.8666C15.2879 15.0543 15.2133 15.2318 15.095 15.3793C14.9768 15.5268 14.8197 15.6382 14.6415 15.7011C14.4755 15.7575 14.3131 15.8243 14.1555 15.9011C13.985 15.9823 13.7952 16.0143 13.6075 15.9935C13.4198 15.9727 13.2417 15.9001 13.093 15.7836L12.55 15.3636L11.7 16.1896L12.119 16.7596C12.2355 16.9082 12.3082 17.0862 12.3291 17.2738C12.3499 17.4614 12.318 17.6511 12.237 17.8216C12.16 17.9792 12.0932 18.1415 12.037 18.3076C11.9737 18.4861 11.8618 18.6434 11.7139 18.7617C11.566 18.8799 11.388 18.9546 11.2 18.9771L10.5185 19.0621L10.5 20.2496L11.2 20.3561C11.3875 20.3791 11.565 20.4537 11.7124 20.5718C11.8599 20.6899 11.9716 20.8467 12.035 21.0246C12.0914 21.191 12.1582 21.3536 12.235 21.5116C12.3159 21.682 12.3477 21.8716 12.327 22.0591C12.3062 22.2465 12.2337 22.4245 12.1175 22.5731L11.697 23.1166L12.523 23.9666L13.0925 23.5476C13.2732 23.4079 13.4951 23.3321 13.7235 23.3321Z" fill="#00A650"/>
<path d="M16 22.6666C15.4067 22.6666 14.8266 22.4907 14.3333 22.161C13.8399 21.8314 13.4554 21.3629 13.2284 20.8147C13.0013 20.2665 12.9419 19.6633 13.0576 19.0814C13.1734 18.4994 13.4591 17.9649 13.8787 17.5453C14.2982 17.1257 14.8328 16.84 15.4147 16.7243C15.9967 16.6085 16.5999 16.6679 17.1481 16.895C17.6962 17.1221 18.1648 17.5066 18.4944 17.9999C18.8241 18.4933 19 19.0733 19 19.6666C18.9992 20.462 18.6829 21.2246 18.1204 21.7871C17.558 22.3495 16.7954 22.6658 16 22.6666ZM16 17.6666C15.6044 17.6666 15.2178 17.7839 14.8889 18.0037C14.56 18.2235 14.3036 18.5358 14.1522 18.9013C14.0009 19.2667 13.9613 19.6688 14.0384 20.0568C14.1156 20.4448 14.3061 20.8011 14.5858 21.0808C14.8655 21.3605 15.2219 21.551 15.6098 21.6282C15.9978 21.7054 16.3999 21.6658 16.7654 21.5144C17.1308 21.363 17.4432 21.1067 17.6629 20.7778C17.8827 20.4489 18 20.0622 18 19.6666C18 19.1362 17.7893 18.6275 17.4142 18.2524C17.0391 17.8773 16.5304 17.6666 16 17.6666Z" fill="#00A650"/>
</svg>
