<svg width="32" height="33" viewBox="0 0 32 33" fill="none" xmlns="http://www.w3.org/2000/svg">
<g clip-path="url(#clip0_50_2097)">
<g clip-path="url(#clip1_50_2097)">
<path d="M18.6667 12.7866L30.4133 15.12C31.36 15.32 32 16.12 32 17.0666V30.6666C32 31.7733 31.1067 32.6666 30 32.6666H18C18.3733 32.6666 18.6667 32.3733 18.6667 32V31.3333H30C30.36 31.3333 30.6667 31.04 30.6667 30.6666V17.0666C30.6667 16.76 30.4533 16.48 30.1467 16.4133L18.6667 14.1466V12.7866Z" fill="#00A650"/>
<path d="M26 19.3333C26.3734 19.3333 26.6667 19.6267 26.6667 20C26.6667 20.3733 26.3734 20.6667 26 20.6667H23.3334C22.96 20.6667 22.6667 20.3733 22.6667 20C22.6667 19.6267 22.96 19.3333 23.3334 19.3333H26ZM26 23.3333C26.3734 23.3333 26.6667 23.6267 26.6667 24C26.6667 24.3733 26.3734 24.6667 26 24.6667H23.3334C22.96 24.6667 22.6667 24.3733 22.6667 24C22.6667 23.6267 22.96 23.3333 23.3334 23.3333H26ZM26 27.3333C26.3734 27.3333 26.6667 27.6267 26.6667 28C26.6667 28.3733 26.3734 28.6667 26 28.6667H23.3334C22.96 28.6667 22.6667 28.3733 22.6667 28C22.6667 27.6267 22.96 27.3333 23.3334 27.3333H26ZM18.6667 32C18.6667 32.3733 18.3734 32.6667 18 32.6667C17.6267 32.6667 17.3334 32.3733 17.3334 32V13.3333C17.3334 13.1333 17.4267 12.9467 17.5734 12.8133C17.7334 12.6933 17.9334 12.64 18.1334 12.68L18.6667 12.7867V31.3333V32Z" fill="#00A650"/>
<path d="M17.3333 31.3333V31.9999C17.3333 32.3733 17.6267 32.6666 18 32.6666H12.6667C13.04 32.6666 13.3333 32.3733 13.3333 31.9999V31.3333H17.3333ZM14 7.33325C14.3733 7.33325 14.6667 7.62659 14.6667 7.99992C14.6667 8.37325 14.3733 8.66659 14 8.66659H11.3333C10.96 8.66659 10.6667 8.37325 10.6667 7.99992C10.6667 7.62659 10.96 7.33325 11.3333 7.33325H14ZM14.6667 11.9999C14.6667 12.3733 14.3733 12.6666 14 12.6666H11.3333C10.96 12.6666 10.6667 12.3733 10.6667 11.9999C10.6667 11.6266 10.96 11.3333 11.3333 11.3333H14C14.3733 11.3333 14.6667 11.6266 14.6667 11.9999ZM14 15.3333C14.3733 15.3333 14.6667 15.6266 14.6667 15.9999C14.6667 16.3733 14.3733 16.6666 14 16.6666H11.3333C10.96 16.6666 10.6667 16.3733 10.6667 15.9999C10.6667 15.6266 10.96 15.3333 11.3333 15.3333H14ZM14 19.3333C14.3733 19.3333 14.6667 19.6266 14.6667 19.9999C14.6667 20.3733 14.3733 20.6666 14 20.6666H11.3333C10.96 20.6666 10.6667 20.3733 10.6667 19.9999C10.6667 19.6266 10.96 19.3333 11.3333 19.3333H14ZM8 19.9999C8 20.3733 7.70667 20.6666 7.33333 20.6666H4.66667C4.29333 20.6666 4 20.3733 4 19.9999C4 19.6266 4.29333 19.3333 4.66667 19.3333H7.33333C7.70667 19.3333 8 19.6266 8 19.9999ZM7.33333 7.33325C7.70667 7.33325 8 7.62659 8 7.99992C8 8.37325 7.70667 8.66659 7.33333 8.66659H4.66667C4.29333 8.66659 4 8.37325 4 7.99992C4 7.62659 4.29333 7.33325 4.66667 7.33325H7.33333ZM7.33333 11.3333C7.70667 11.3333 8 11.6266 8 11.9999C8 12.3733 7.70667 12.6666 7.33333 12.6666H4.66667C4.29333 12.6666 4 12.3733 4 11.9999C4 11.6266 4.29333 11.3333 4.66667 11.3333H7.33333ZM7.33333 15.3333C7.70667 15.3333 8 15.6266 8 15.9999C8 16.3733 7.70667 16.6666 7.33333 16.6666H4.66667C4.29333 16.6666 4 16.3733 4 15.9999C4 15.6266 4.29333 15.3333 4.66667 15.3333H7.33333ZM12 25.3333C12 24.9599 11.6933 24.6666 11.3333 24.6666H7.33333C6.96 24.6666 6.66667 24.9599 6.66667 25.3333V31.3333H5.33333V25.3333C5.33333 24.2266 6.22667 23.3333 7.33333 23.3333H11.3333C12.44 23.3333 13.3333 24.2266 13.3333 25.3333V31.3333H12V25.3333Z" fill="#00A650"/>
<path d="M6.66671 31.3333H13.3334V31.9999C13.3334 32.3733 13.04 32.6666 12.6667 32.6666H6.00004C5.62671 32.6666 5.33337 32.3733 5.33337 31.9999V31.3333H6.66671Z" fill="#00A650"/>
<path d="M2.33333 0.933307L16.9867 3.15997C17.96 3.31997 18.6667 4.14664 18.6667 5.13331V12.7866L18.1333 12.68C17.9333 12.64 17.7333 12.6933 17.5733 12.8133C17.4267 12.9466 17.3333 13.1333 17.3333 13.3333V5.13331C17.3333 4.79997 17.0933 4.51997 16.7733 4.46664L2.12 2.25331C2.08 2.23997 2.04 2.23997 2 2.23997C1.84 2.23997 1.69333 2.29331 1.57333 2.39997C1.41333 2.53331 1.33333 2.70664 1.33333 2.90664V30.6666C1.33333 31.04 1.64 31.3333 2 31.3333H5.33333V32C5.33333 32.3733 5.62667 32.6666 6 32.6666H2C0.893333 32.6666 0 31.7733 0 30.6666V2.90664C0 2.31997 0.253333 1.75997 0.706667 1.38664C1.16 0.999974 1.74667 0.839974 2.33333 0.933307Z" fill="#00A650"/>
</g>
</g>
<defs>
<clipPath id="clip0_50_2097">
<rect width="32" height="32" fill="white" transform="translate(0 0.666626)"/>
</clipPath>
<clipPath id="clip1_50_2097">
<rect width="32" height="32" fill="white" transform="translate(0 0.666626)"/>
</clipPath>
</defs>
</svg>
