<svg width="32" height="33" viewBox="0 0 32 33" fill="none" xmlns="http://www.w3.org/2000/svg">
<g clip-path="url(#clip0_50_1807)">
<path d="M17.375 10.5416C17.5076 10.5416 17.6348 10.4889 17.7286 10.3952C17.8223 10.3014 17.875 10.1742 17.875 10.0416V5.60413C17.875 5.47152 17.8223 5.34434 17.7286 5.25057C17.6348 5.1568 17.5076 5.10413 17.375 5.10413C17.2424 5.10413 17.1152 5.1568 17.0214 5.25057C16.9277 5.34434 16.875 5.47152 16.875 5.60413V10.0416C16.875 10.1742 16.9277 10.3014 17.0214 10.3952C17.1152 10.4889 17.2424 10.5416 17.375 10.5416ZM2.71875 14.9166H6.03125C6.16386 14.9166 6.29104 14.8639 6.3848 14.7702C6.47857 14.6764 6.53125 14.5492 6.53125 14.4166C6.53125 14.284 6.47857 14.1568 6.3848 14.0631C6.29104 13.9693 6.16386 13.9166 6.03125 13.9166H2.71875C2.58614 13.9166 2.45896 13.9693 2.3652 14.0631C2.27143 14.1568 2.21875 14.284 2.21875 14.4166C2.21875 14.5492 2.27143 14.6764 2.3652 14.7702C2.45896 14.8639 2.58614 14.9166 2.71875 14.9166ZM13.5938 14.9166H15.2188C15.3514 14.9166 15.4785 14.8639 15.5723 14.7702C15.6661 14.6764 15.7188 14.5492 15.7188 14.4166C15.7188 14.284 15.6661 14.1568 15.5723 14.0631C15.4785 13.9693 15.3514 13.9166 15.2188 13.9166H13.5938C13.4611 13.9166 13.334 13.9693 13.2402 14.0631C13.1464 14.1568 13.0938 14.284 13.0938 14.4166C13.0938 14.5492 13.1464 14.6764 13.2402 14.7702C13.334 14.8639 13.4611 14.9166 13.5938 14.9166ZM10.2188 14.9166H11.8438C11.9764 14.9166 12.1035 14.8639 12.1973 14.7702C12.2911 14.6764 12.3438 14.5492 12.3438 14.4166C12.3438 14.284 12.2911 14.1568 12.1973 14.0631C12.1035 13.9693 11.9764 13.9166 11.8438 13.9166H10.2188C10.0861 13.9166 9.95896 13.9693 9.8652 14.0631C9.77143 14.1568 9.71875 14.284 9.71875 14.4166C9.71875 14.5492 9.77143 14.6764 9.8652 14.7702C9.95896 14.8639 10.0861 14.9166 10.2188 14.9166ZM6.95894 24.1881C6.91251 24.2345 6.87568 24.2896 6.85055 24.3503C6.82542 24.4109 6.81249 24.476 6.81249 24.5416C6.81249 24.6073 6.82542 24.6723 6.85055 24.733C6.87568 24.7936 6.91251 24.8488 6.95894 24.8952C7.00537 24.9416 7.06049 24.9785 7.12115 25.0036C7.18182 25.0287 7.24684 25.0416 7.3125 25.0416C7.37816 25.0416 7.44318 25.0287 7.50385 25.0036C7.56451 24.9785 7.61963 24.9416 7.66606 24.8952L9.66606 22.8952C9.75983 22.8014 9.81251 22.6742 9.81251 22.5416C9.81251 22.409 9.75983 22.2818 9.66606 22.1881C9.57229 22.0943 9.44511 22.0416 9.3125 22.0416C9.17989 22.0416 9.05271 22.0943 8.95894 22.1881L6.95894 24.1881ZM19.2911 21.0943C19.1973 21.0006 19.0701 20.9479 18.9375 20.9479C18.8049 20.9479 18.6777 21.0006 18.5839 21.0943L14.7402 24.9381C14.6464 25.0318 14.5937 25.159 14.5937 25.2916C14.5937 25.4242 14.6464 25.5514 14.7402 25.6452C14.834 25.739 14.9611 25.7916 15.0938 25.7916C15.2264 25.7916 15.3535 25.739 15.4473 25.6452L19.2911 21.8014C19.3375 21.755 19.3743 21.6999 19.3995 21.6392C19.4246 21.5786 19.4375 21.5135 19.4375 21.4479C19.4375 21.3822 19.4246 21.3172 19.3995 21.2565C19.3743 21.1959 19.3375 21.1407 19.2911 21.0943ZM20.2089 22.4693L18.2089 24.4693C18.1152 24.5631 18.0625 24.6903 18.0625 24.8229C18.0625 24.9555 18.1152 25.0827 18.2089 25.1764C18.3027 25.2702 18.4299 25.3229 18.5625 25.3229C18.6951 25.3229 18.8223 25.2702 18.9161 25.1764L20.9161 23.1764C21.0098 23.0827 21.0625 22.9555 21.0625 22.8229C21.0625 22.6903 21.0098 22.5631 20.9161 22.4693C20.8223 22.3755 20.6951 22.3229 20.5625 22.3229C20.4299 22.3229 20.3027 22.3755 20.2089 22.4693Z" fill="#00A650"/>
<path d="M30.4375 0.729126H15.6875C14.8604 0.729126 14.1875 1.40206 14.1875 2.22913V11.6041H1.5625C0.735375 11.6041 0.0625 12.2771 0.0625 13.1041V31.1041C0.0625 31.9312 0.735375 32.6041 1.5625 32.6041H30.4375C31.2646 32.6041 31.9375 31.9312 31.9375 31.1041V2.22913C31.9375 1.40206 31.2646 0.729126 30.4375 0.729126ZM15.1875 2.22913C15.1875 1.95344 15.4118 1.72913 15.6875 1.72913H30.4375C30.7132 1.72913 30.9375 1.95344 30.9375 2.22913V12.6041H17.789C17.5826 12.0222 17.0268 11.6041 16.375 11.6041H15.1875V2.22913ZM19.7031 31.6041H17.1094V30.3854H19.7031V31.6041ZM20.2031 29.3854H11.4375C11.2996 29.3854 11.1875 29.2733 11.1875 29.1354V28.3541H25.625V29.1354C25.625 29.2733 25.5129 29.3854 25.375 29.3854H20.2031ZM8.96875 28.9791C6.33238 28.9791 4.1875 26.8343 4.1875 24.1979C4.1875 21.5614 6.33238 19.4166 8.96875 19.4166C9.42375 19.4166 9.86344 19.482 10.2804 19.6016C10.2191 19.7512 10.1875 19.9112 10.1875 20.0729V20.3569C9.79351 20.231 9.38239 20.1668 8.96875 20.1666C6.74594 20.1666 4.9375 21.9751 4.9375 24.1979C4.9375 26.4207 6.74594 28.2291 8.96875 28.2291C9.38239 28.229 9.79351 28.1648 10.1875 28.0388V28.8194C9.78988 28.9252 9.3802 28.9789 8.96875 28.9791ZM10.1875 23.5359C10.1131 23.5601 10.0455 23.6015 9.99019 23.6568L9.20894 24.4381C9.11517 24.5318 9.06249 24.659 9.06249 24.7916C9.06249 24.9242 9.11517 25.0514 9.20894 25.1452C9.30271 25.239 9.42989 25.2916 9.5625 25.2916C9.69511 25.2916 9.82229 25.239 9.91606 25.1452L10.1875 24.8738V26.9725C9.80358 27.1421 9.38845 27.2295 8.96875 27.2291C7.29731 27.2291 5.9375 25.8693 5.9375 24.1979C5.9375 22.5264 7.29731 21.1666 8.96875 21.1666C9.38844 21.1662 9.80358 21.2536 10.1875 21.4232V23.5359ZM25.625 27.3541H11.1875V20.0729C11.1875 19.935 11.2996 19.8229 11.4375 19.8229H25.375C25.5129 19.8229 25.625 19.935 25.625 20.0729V27.3541ZM1.5625 12.6041H16.375C16.6507 12.6041 16.875 12.8284 16.875 13.1041V15.9791H1.0625V13.1041C1.0625 12.8284 1.28681 12.6041 1.5625 12.6041ZM1.0625 31.1041V16.9791H16.875V18.8229H11.4375C11.3456 18.8229 11.2563 18.8335 11.17 18.8524C10.472 18.564 9.724 18.4159 8.96875 18.4166C5.78094 18.4166 3.1875 21.0101 3.1875 24.1979C3.1875 27.3857 5.78094 29.9791 8.96875 29.9791C9.44549 29.9791 9.92039 29.92 10.3826 29.8031C10.6044 30.1524 10.9939 30.3854 11.4375 30.3854H16.1094V31.6041H1.5625C1.28681 31.6041 1.0625 31.3798 1.0625 31.1041ZM30.4375 31.6041H20.7031V30.3854H25.375C26.0643 30.3854 26.625 29.8246 26.625 29.1354V20.0729C26.625 19.3836 26.0643 18.8229 25.375 18.8229H17.875V13.6041H30.9375V31.1041C30.9375 31.3798 30.7132 31.6041 30.4375 31.6041Z" fill="#00A650"/>
</g>
<defs>
<clipPath id="clip0_50_1807">
<rect width="32" height="32" fill="white" transform="translate(0 0.666626)"/>
</clipPath>
</defs>
</svg>
