<svg width="32" height="33" viewBox="0 0 32 33" fill="none" xmlns="http://www.w3.org/2000/svg">
<g clip-path="url(#clip0_49_1044)">
<path d="M30.5 20.1667H27.5V18.6667C27.5 17.8397 26.827 17.1667 26 17.1667H21C20.569 17.1667 20.1825 17.3522 19.9085 17.6442L14.5 16.7432V15.4902C15.992 14.6242 17 13.0127 17 11.1667H17.5C18.327 11.1667 19 10.4937 19 9.66665C19 8.83965 18.327 8.16665 17.5 8.16665H17.26L17.534 7.53115C17.7872 6.94254 17.897 6.30223 17.8544 5.6629C17.8118 5.02356 17.618 4.40348 17.289 3.85365C16.8692 3.1513 16.2448 2.59393 15.4995 2.25615L14.104 1.62065C12.4565 0.870651 10.437 1.09015 8.98851 2.17565L8.20001 2.76665L8.20101 2.76815C7.41068 2.97362 6.73191 3.47978 6.30951 4.17865C6.03879 4.62747 5.88625 5.13758 5.86614 5.66133C5.84603 6.18509 5.95901 6.7054 6.19451 7.17365L6.69101 8.16665H6.50001C5.67301 8.16665 5.00001 8.83965 5.00001 9.66665C5.00001 10.4937 5.67301 11.1667 6.50001 11.1667H7.00001C7.00001 13.0127 8.00801 14.6242 9.50001 15.4902V16.7432L3.42451 17.7557C2.60632 17.8898 1.86264 18.3109 1.32674 18.9436C0.790848 19.5762 0.497763 20.379 0.500013 21.2082V31.6667C0.500013 31.7993 0.552691 31.9264 0.646459 32.0202C0.740228 32.114 0.867405 32.1667 1.00001 32.1667H30.5C31.0515 32.1667 31.5 31.7182 31.5 31.1667V21.1667C31.5 20.6152 31.0515 20.1667 30.5 20.1667ZM26.5 18.6667V20.1667H23.334C23.0675 19.3187 22.4885 18.6037 21.7145 18.1667H26C26.2755 18.1667 26.5 18.3907 26.5 18.6667ZM20.5 18.7642C20.8836 18.8432 21.2432 19.0113 21.5498 19.2549C21.8564 19.4986 22.1014 19.8109 22.265 20.1667H20.5V18.7642ZM18 9.66665C18 9.94215 17.7755 10.1667 17.5 10.1667H17V9.16665H17.5C17.7755 9.16665 18 9.39115 18 9.66665ZM7.16701 4.69315C7.35572 4.38085 7.62163 4.12237 7.93915 3.94259C8.25668 3.76282 8.61513 3.66779 8.98001 3.66665C9.76401 3.66665 10.4915 4.05615 10.927 4.70815L11.084 4.94365L11.916 4.38915L11.759 4.15365C11.3145 3.48768 10.645 3.00415 9.87301 2.79165C11.005 2.08965 12.4715 1.97565 13.6895 2.53015L15.085 3.16565C15.6457 3.41998 16.1154 3.83932 16.4315 4.36765C16.6791 4.78134 16.8249 5.24789 16.857 5.72893C16.8891 6.20997 16.8065 6.69176 16.616 7.13465L16.5825 7.21265L15.9475 5.94265C15.9148 5.87709 15.868 5.81953 15.8106 5.77404C15.7531 5.72855 15.6864 5.69624 15.6151 5.67941C15.5438 5.66257 15.4696 5.66161 15.3979 5.6766C15.3262 5.69159 15.2586 5.72216 15.2 5.76615L14.4 6.36615C13.712 6.88265 12.8595 7.16665 12 7.16665C11.1405 7.16665 10.288 6.88265 9.60001 6.36665L8.80001 5.76665C8.74141 5.72266 8.67386 5.69209 8.60213 5.6771C8.5304 5.66211 8.45626 5.66307 8.38494 5.67991C8.31363 5.69674 8.24689 5.72905 8.18944 5.77454C8.13199 5.82003 8.08525 5.87759 8.05251 5.94315L7.37501 7.29865L7.08901 6.72665C6.92901 6.40876 6.85224 6.05548 6.86588 5.69985C6.87952 5.34422 6.98313 4.99786 7.16701 4.69315ZM6.50001 10.1667C6.22451 10.1667 6.00001 9.94215 6.00001 9.66665C6.00001 9.39115 6.22451 9.16665 6.50001 9.16665H7.00001V10.1667H6.50001ZM8.00001 11.1667V8.28465L8.67901 6.92615L9.00001 7.16665C9.86001 7.81165 10.9255 8.16665 12 8.16665C13.0745 8.16665 14.14 7.81165 15 7.16665L15.321 6.92615L16 8.28465V11.1667C16 13.3722 14.2055 15.1667 12 15.1667C9.79451 15.1667 8.00001 13.3722 8.00001 11.1667ZM12 16.1667C12.5089 16.1669 13.0147 16.0892 13.5 15.9362V16.9597L12 18.4597L10.5 16.9597V15.9362C10.9853 16.0892 11.4912 16.1669 12 16.1667ZM11.8385 21.6667H12.1615L12.9775 23.7067L12 27.9432L11.0225 23.7067L11.8385 21.6667ZM12.948 19.5932L12.2325 20.6667H11.7675L11.0515 19.5932L11.2185 19.0927L11.6465 19.5207C11.7403 19.6143 11.8675 19.6669 12.0001 19.6668C12.1327 19.6667 12.2598 19.614 12.3535 19.5202L12.7815 19.0922L12.948 19.5932ZM6.50001 31.1667V22.6667H5.50001V31.1667H1.50001V21.2082C1.49848 20.6159 1.70785 20.0424 2.09063 19.5905C2.4734 19.1385 3.00458 18.8376 3.58901 18.7417L9.82851 17.7022L10.428 18.3017L10.0255 19.5086C10.0013 19.5809 9.99399 19.6577 10.0041 19.7332C10.0143 19.8087 10.0416 19.8809 10.084 19.9442L10.938 21.2252L10.0355 23.4812C9.99777 23.5758 9.98974 23.6798 10.0125 23.7792L11.5125 30.2792C11.5377 30.3896 11.5996 30.4883 11.6882 30.5589C11.7768 30.6296 11.8867 30.668 12 30.668C12.1133 30.668 12.2233 30.6296 12.3118 30.5589C12.4004 30.4883 12.4623 30.3896 12.4875 30.2792L13.9875 23.7792C14.01 23.6801 14.0025 23.5762 13.9645 23.4812L13.062 21.2252L13.916 19.9442C14.0015 19.8157 14.023 19.6551 13.9745 19.5086L13.572 18.3017L14.1715 17.7022L19.5075 18.5912C19.5065 18.6166 19.5 18.6407 19.5 18.6667V20.1667H16.5C15.9485 20.1667 15.5 20.6152 15.5 21.1667V31.1667H6.50001ZM17 31.1667H16.5V30.1667H30.5005V31.1667H17ZM30.5005 29.1667H16.5V25.1112C16.825 25.4453 17.2137 25.7108 17.6431 25.8921C18.0725 26.0734 18.5339 26.1668 19 26.1667H22V26.6667C22 27.4937 22.673 28.1667 23.5 28.1667C24.327 28.1667 25 27.4937 25 26.6667V26.1667H28C28.4662 26.1666 28.9276 26.0732 29.3571 25.8919C29.7865 25.7107 30.1753 25.4452 30.5005 25.1112V29.1667ZM23 26.6667V24.1667H24V26.6667C23.9943 26.7954 23.9391 26.9169 23.8459 27.006C23.7528 27.0951 23.6289 27.1448 23.5 27.1448C23.3711 27.1448 23.2472 27.0951 23.1541 27.006C23.061 26.9169 23.0058 26.7954 23 26.6667ZM30.5 22.6667C30.5 24.0452 29.3785 25.1667 28 25.1667H25V23.6667C25 23.534 24.9473 23.4069 24.8536 23.3131C24.7598 23.2193 24.6326 23.1667 24.5 23.1667H22.5C22.3674 23.1667 22.2402 23.2193 22.1465 23.3131C22.0527 23.4069 22 23.534 22 23.6667V25.1667H19C17.6215 25.1667 16.5 24.0452 16.5 22.6667V21.1667H30.5V22.6667Z" fill="#00A650"/>
</g>
<defs>
<clipPath id="clip0_49_1044">
<rect width="32" height="32" fill="white" transform="translate(0 0.666626)"/>
</clipPath>
</defs>
</svg>
