<svg width="32" height="33" viewBox="0 0 32 33" fill="none" xmlns="http://www.w3.org/2000/svg">
<path d="M30 10.6667H16.725L8.875 1.83668C8.80697 1.75917 8.71665 1.7046 8.6164 1.68043C8.51614 1.65626 8.41087 1.66368 8.315 1.70168C8.25 1.72668 2.08 4.28168 1.785 10.6667C1.4483 10.71 1.13626 10.8663 0.899889 11.11C0.663519 11.3537 0.516797 11.6703 0.483707 12.0082C0.450617 12.3461 0.533116 12.6852 0.717718 12.9701C0.90232 13.255 1.17811 13.4688 1.5 13.5767V16.1217C1.5 16.7967 1.76813 17.444 2.24541 17.9213C2.72269 18.3985 3.37003 18.6667 4.045 18.6667H4.83C5.09 20.1667 6.495 21.4367 8.62 22.3367L5.295 25.6667C4.86606 25.3548 4.46307 25.0086 4.09 24.6317C3.81117 24.3589 3.43703 24.2054 3.04696 24.2039C2.65688 24.2024 2.28154 24.3528 2.00056 24.6234C1.71958 24.894 1.55505 25.2634 1.54188 25.6532C1.5287 26.0431 1.66792 26.4228 1.93 26.7117C4.925 29.8117 10.185 31.6667 16 31.6667C21.815 31.6667 27.075 29.8117 30.07 26.7067C30.3321 26.4178 30.4713 26.0381 30.4581 25.6482C30.445 25.2584 30.2804 24.889 29.9994 24.6184C29.7185 24.3478 29.3431 24.1974 28.953 24.1989C28.563 24.2004 28.1888 24.3539 27.91 24.6267C27.5371 25.0054 27.1341 25.3532 26.705 25.6667L23.38 22.3417C25.5 21.4367 26.91 20.1667 27.17 18.6667H27.955C28.63 18.6667 29.2773 18.3985 29.7546 17.9213C30.2319 17.444 30.5 16.7967 30.5 16.1217V13.5767C30.8307 13.4567 31.1087 13.2243 31.2854 12.9201C31.4621 12.6159 31.5263 12.2593 31.4667 11.9126C31.4071 11.5659 31.2276 11.2512 30.9595 11.0234C30.6914 10.7957 30.3518 10.6694 30 10.6667ZM8.37 2.77168L15.385 10.6667H2.795C3.06 5.69168 7.17 3.35168 8.37 2.77168ZM28.63 25.3217C28.7237 25.2286 28.8504 25.1763 28.9825 25.1763C29.1146 25.1763 29.2413 25.2286 29.335 25.3217C29.4335 25.4103 29.4929 25.5344 29.5 25.6667C29.5021 25.7989 29.4518 25.9265 29.36 26.0217C26.54 28.9267 21.55 30.6667 16 30.6667C10.45 30.6667 5.46 28.9267 2.65 26.0117C2.557 25.9206 2.50318 25.7968 2.5 25.6667C2.50158 25.601 2.51609 25.5363 2.54268 25.4763C2.56928 25.4162 2.60744 25.362 2.655 25.3167C2.74609 25.2237 2.86986 25.1699 3 25.1667C3.06735 25.1669 3.13396 25.1808 3.19582 25.2074C3.25768 25.2341 3.31353 25.2729 3.36 25.3217C5.96 28.0017 10.795 29.6667 16 29.6667C21.205 29.6667 26.04 28.0017 28.63 25.3217ZM25.855 26.2267C23.315 27.7617 19.77 28.6667 16 28.6667C12.23 28.6667 8.685 27.7617 6.145 26.2267L9.645 22.7267C11.7006 23.3728 13.8454 23.69 16 23.6667C18.1529 23.6895 20.296 23.3723 22.35 22.7267L25.855 26.2267ZM16 22.6667C10.845 22.6667 6.435 20.8817 5.85 18.6667H26.15C25.565 20.8817 21.155 22.6667 16 22.6667ZM29.5 16.1217C29.5 16.5314 29.3372 16.9244 29.0475 17.2142C28.7577 17.5039 28.3648 17.6667 27.955 17.6667H4.045C3.63524 17.6667 3.24226 17.5039 2.95252 17.2142C2.66278 16.9244 2.5 16.5314 2.5 16.1217V13.6667H29.5V16.1217ZM30 12.6667H2C1.86739 12.6667 1.74022 12.614 1.64645 12.5202C1.55268 12.4265 1.5 12.2993 1.5 12.1667C1.5 12.0341 1.55268 11.9069 1.64645 11.8131C1.74022 11.7194 1.86739 11.6667 2 11.6667H30C30.1326 11.6667 30.2598 11.7194 30.3536 11.8131C30.4473 11.9069 30.5 12.0341 30.5 12.1667C30.5 12.2993 30.4473 12.4265 30.3536 12.5202C30.2598 12.614 30.1326 12.6667 30 12.6667Z" fill="#00A650"/>
</svg>
