<svg width="32" height="33" viewBox="0 0 32 33" fill="none" xmlns="http://www.w3.org/2000/svg">
<g clip-path="url(#clip0_49_1062)">
<path d="M21.399 15.6261C19.959 13.3798 17.5066 12.0384 14.8387 12.0384C12.1709 12.0384 9.71829 13.3798 8.2786 15.6261L4.80885 21.0389C4.23323 21.9371 3.9676 22.9745 4.04054 24.0387C4.11354 25.1031 4.5186 26.0943 5.21173 26.9056C5.90529 27.7167 6.82179 28.2709 7.8621 28.5087C8.90235 28.7462 9.96879 28.6449 10.9459 28.2154L11.0096 28.1871C13.4684 27.1273 16.2786 27.1368 18.7312 28.2154C19.3638 28.4936 20.034 28.6342 20.7102 28.6342C21.0779 28.6342 21.4478 28.5924 21.8142 28.5089C22.8545 28.2714 23.771 27.7172 24.4649 26.9061C25.1582 26.0951 25.5635 25.1036 25.6367 24.0392C25.71 22.9745 25.4444 21.9371 24.8687 21.0387L21.399 15.6261ZM23.0394 25.6869C22.1568 26.7186 20.729 27.0448 19.4864 26.4984C18.0093 25.8488 16.4239 25.5241 14.8379 25.5241C13.2535 25.5241 11.6682 25.8485 10.1922 26.4974L10.1502 26.516C8.91704 27.0375 7.51029 26.7071 6.63748 25.6869C5.75591 24.6549 5.6556 23.1939 6.38798 22.0511L9.85798 16.6383C10.9512 14.9327 12.813 13.9144 14.8387 13.9144C16.8643 13.9144 18.7264 14.9328 19.8199 16.6383L23.2893 22.0509C24.022 23.1942 23.9214 24.6554 23.0393 25.6869H23.0394ZM5.74348 15.619C6.77566 15.2226 7.55985 14.3908 7.95173 13.2768C8.32423 12.2167 8.29373 11.0199 7.86529 9.90663C7.43654 8.79413 6.65679 7.88588 5.66966 7.349C4.63235 6.78525 3.49298 6.6935 2.46241 7.09069C0.389227 7.88781 -0.562211 10.4498 0.341789 12.8031C1.06398 14.6761 2.74835 15.8585 4.45116 15.8585C4.89302 15.8591 5.33116 15.7779 5.74348 15.619ZM2.09235 12.1293C1.5596 10.7426 2.0276 9.26744 3.13629 8.84119C3.33669 8.76429 3.54958 8.72513 3.76423 8.72569C4.09773 8.72569 4.44216 8.81675 4.77373 8.99719C5.36991 9.32119 5.84623 9.88369 6.11479 10.5807C6.3831 11.2782 6.40704 12.0145 6.18191 12.6544C5.97566 13.2408 5.58085 13.6719 5.0706 13.8681L5.0696 13.8685C3.96241 14.2953 2.62673 13.5148 2.09235 12.1293ZM12.4759 11.3783C15.0677 11.3783 17.1763 8.97594 17.1763 6.02306C17.1763 3.06944 15.0677 0.666626 12.4759 0.666626C9.88429 0.666626 7.77591 3.06944 7.77591 6.02306C7.77591 8.97594 9.88423 11.3783 12.4759 11.3783ZM12.4759 2.54238C14.0332 2.54238 15.3006 4.10388 15.3006 6.02306C15.3006 7.9415 14.0332 9.50256 12.4759 9.50256C10.9185 9.50256 9.65166 7.9415 9.65166 6.02306C9.65166 4.10388 10.9185 2.54238 12.4759 2.54238ZM20.5935 12.694H20.5938C20.9842 12.8237 21.3929 12.8897 21.8042 12.8895C23.6944 12.8895 25.5364 11.5138 26.2393 9.3995C26.6441 8.1825 26.6174 6.89563 26.1643 5.77625C25.6902 4.60463 24.8115 3.754 23.69 3.381C22.5684 3.00844 21.3548 3.16369 20.2735 3.8185C19.2405 4.44419 18.449 5.45888 18.045 6.67588C17.1917 9.24331 18.335 11.943 20.5935 12.694ZM19.825 7.26738C20.089 6.47269 20.5934 5.81794 21.2455 5.42294C21.8487 5.05744 22.5069 4.96444 23.0985 5.16094C23.6898 5.35775 24.161 5.82594 24.4257 6.47981C24.7115 7.18631 24.7238 8.013 24.4594 8.80769C23.9322 10.3936 22.4635 11.3384 21.1854 10.9139C19.9083 10.4891 19.2979 8.85331 19.825 7.26738ZM30.4922 12.069L30.4915 12.0683C28.7042 10.7479 26.031 11.3202 24.5323 13.3446C23.035 15.37 23.2691 18.0929 25.0537 19.4142C25.7046 19.8964 26.4737 20.1268 27.2608 20.1268C28.6327 20.1268 30.0599 19.4266 31.0137 18.1391C32.511 16.1136 32.2772 13.3908 30.4922 12.0689V12.069ZM29.5062 17.0231C28.6212 18.2176 27.1248 18.6139 26.1699 17.9066C25.2159 17.2004 25.1577 15.6539 26.0404 14.4601C26.627 13.6676 27.4839 13.2267 28.2737 13.2267C28.6731 13.2267 29.0555 13.3395 29.3767 13.577C30.3301 14.2841 30.388 15.8299 29.5061 17.0231H29.5062Z" fill="#00A650"/>
</g>
<defs>
<clipPath id="clip0_49_1062">
<rect width="32" height="32" fill="white" transform="translate(0 0.666626)"/>
</clipPath>
</defs>
</svg>
