<svg width="32" height="33" viewBox="0 0 32 33" fill="none" xmlns="http://www.w3.org/2000/svg">
<path d="M30.2505 14.0266L28.3745 12.5256L28.352 12.5061L30.0985 12.1566C30.2118 12.1341 30.3138 12.0729 30.387 11.9835C30.4602 11.8941 30.5001 11.7822 30.5 11.6666V10.1666C30.5 10.034 30.4473 9.90684 30.3536 9.81307C30.2598 9.7193 30.1326 9.66663 30 9.66663H27.5C27.3674 9.66663 27.2402 9.7193 27.1464 9.81307C27.0527 9.90684 27 10.034 27 10.1666V11.0426L26.9655 10.9961C26.9338 10.9112 26.8788 10.8369 26.807 10.7816C26.5255 10.3831 26.2845 9.98413 26.1275 9.63913L25.2825 7.78063C24.744 6.59513 23.302 5.66663 22 5.66663H10C8.698 5.66663 7.256 6.59513 6.7175 7.78063L5.873 9.63863C5.716 9.98363 5.475 10.3831 5.1935 10.7816C5.12179 10.837 5.06691 10.9113 5.035 10.9961L5.0005 11.0426V10.1666C5.0005 10.034 4.94782 9.90684 4.85405 9.81307C4.76029 9.7193 4.63311 9.66663 4.5005 9.66663H2C1.86739 9.66663 1.74021 9.7193 1.64645 9.81307C1.55268 9.90684 1.5 10.034 1.5 10.1666V11.6666C1.5 11.9051 1.668 12.1101 1.902 12.1566L3.6485 12.5061L3.626 12.5256L1.7495 14.0266C0.7685 14.8116 0 16.4106 0 17.6666V26.1666C0 26.9936 0.673 27.6666 1.5 27.6666H5.5C6.327 27.6666 7 26.9936 7 26.1666V25.1666H25V26.1666C25 26.9936 25.673 27.6666 26.5 27.6666H30.5C31.327 27.6666 32 26.9936 32 26.1666V17.6666C32 16.4106 31.2315 14.8116 30.2505 14.0266ZM25.707 24.1666L24.5605 23.0201C24.074 22.5336 23.188 22.1666 22.5 22.1666H9.25C8.562 22.1666 7.676 22.5336 7.1895 23.0201L6.043 24.1666H2.5C1.673 24.1666 1 23.4936 1 22.6666V20.1666H1.5V20.6666C1.5 21.7696 2.397 22.6666 3.5 22.6666H5C5.13261 22.6666 5.25979 22.6139 5.35355 22.5202C5.44732 22.4264 5.5 22.2992 5.5 22.1666C5.5 22.034 5.44732 21.9068 5.35355 21.8131C5.25979 21.7193 5.13261 21.6666 5 21.6666H3.5C2.9485 21.6666 2.5 21.2181 2.5 20.6666V20.1666H3.5C3.915 20.1666 4.56 20.4336 4.8535 20.7271C4.89983 20.7737 4.95491 20.8107 5.01557 20.8359C5.07624 20.8612 5.1413 20.8741 5.207 20.8741C5.2727 20.8741 5.33776 20.8612 5.39843 20.8359C5.45909 20.8107 5.51417 20.7737 5.5605 20.7271C5.60697 20.6807 5.64384 20.6256 5.669 20.565C5.69415 20.5043 5.7071 20.4393 5.7071 20.3736C5.7071 20.308 5.69415 20.2429 5.669 20.1823C5.64384 20.1216 5.60697 20.0665 5.5605 20.0201C5.074 19.5336 4.1885 19.1666 3.5 19.1666H1V17.6666C1 17.4901 1.028 17.2996 1.0675 17.1051C1.3875 17.4391 1.853 17.6666 2.5 17.6666H6.5C6.6326 17.6666 6.75975 17.6139 6.8535 17.5201L7.5 16.8736L8.1465 17.5201C8.19287 17.5666 8.24797 17.6035 8.30863 17.6286C8.3693 17.6538 8.43433 17.6667 8.5 17.6666H14.293L15.6465 19.0201C15.6928 19.0667 15.7479 19.1037 15.8086 19.1289C15.8692 19.1542 15.9343 19.1671 16 19.1671C16.0657 19.1671 16.1308 19.1542 16.1914 19.1289C16.2521 19.1037 16.3072 19.0667 16.3535 19.0201L17.707 17.6666H23.5C23.6325 17.6666 23.76 17.6141 23.8535 17.5201L24.5 16.8736L25.1465 17.5201C25.1929 17.5666 25.248 17.6035 25.3086 17.6286C25.3693 17.6538 25.4343 17.6667 25.5 17.6666H29.5C30.147 17.6666 30.6125 17.4391 30.9325 17.1051C30.972 17.2996 31 17.4901 31 17.6666V19.1666H28.5C27.812 19.1666 26.926 19.5336 26.4395 20.0201C26.3931 20.0665 26.3563 20.1217 26.3311 20.1823C26.306 20.243 26.2931 20.308 26.2931 20.3736C26.2931 20.4393 26.306 20.5043 26.3311 20.5649C26.3563 20.6256 26.3931 20.6807 26.4395 20.7271C26.4859 20.7735 26.541 20.8104 26.6017 20.8355C26.6623 20.8606 26.7273 20.8736 26.793 20.8736C26.8587 20.8736 26.9237 20.8606 26.9843 20.8355C27.045 20.8104 27.1001 20.7735 27.1465 20.7271C27.44 20.4336 28.085 20.1666 28.5 20.1666H29.5V20.6666C29.5 21.2181 29.0515 21.6666 28.5 21.6666H27C26.8674 21.6666 26.7402 21.7193 26.6464 21.8131C26.5527 21.9068 26.5 22.034 26.5 22.1666C26.5 22.2992 26.5527 22.4264 26.6464 22.5202C26.7402 22.6139 26.8674 22.6666 27 22.6666H28.5C29.603 22.6666 30.5 21.7696 30.5 20.6666V20.1666H31V22.6666C31 23.4936 30.327 24.1666 29.5 24.1666H25.707ZM24.293 24.1666H7.457L7.8965 23.7271C8.19 23.4336 8.835 23.1666 9.25 23.1666H22.5C22.915 23.1666 23.56 23.4336 23.8535 23.7271L24.293 24.1666ZM5.78 11.6666H26.22C26.7045 12.3071 27.258 12.9131 27.7495 13.3066L28.351 13.7876L24.8145 15.2021L24.8135 15.2026C24.7512 15.2277 24.6946 15.2652 24.647 15.3126L24.147 15.8126L23.293 16.6666H17.5C17.4343 16.6666 17.3693 16.6795 17.3086 16.7046C17.248 16.7297 17.1929 16.7666 17.1465 16.8131L16 17.9596L14.8535 16.8131C14.8071 16.7666 14.752 16.7297 14.6914 16.7046C14.6307 16.6795 14.5657 16.6666 14.5 16.6666H8.707L7.8535 15.8131L7.3535 15.3131C7.30595 15.2657 7.24932 15.2282 7.187 15.2031L7.186 15.2026L3.6495 13.7881L4.251 13.3071C4.742 12.9131 5.2955 12.3071 5.78 11.6666ZM30.4705 15.8761C30.37 16.3986 30.046 16.6666 29.5 16.6666H25.707L25.207 16.1666L25.281 16.0926L29.2485 14.5056L29.6255 14.8076C29.9425 15.0611 30.235 15.4466 30.4705 15.8761ZM28 10.6666H29.5V11.2566L28 11.5566V10.6666ZM6.7825 10.0526L7.627 8.19463C8.004 7.36613 9.0905 6.66663 10 6.66663H22C22.9095 6.66663 23.996 7.36613 24.3725 8.19413L25.2175 10.0526C25.3055 10.2456 25.42 10.4541 25.5455 10.6666H6.4545C6.58 10.4541 6.695 10.2456 6.7825 10.0526ZM2.5 10.6666H4V11.5566L2.5 11.2566V10.6666ZM2.374 14.8076L2.751 14.5056L6.719 16.0926L6.793 16.1666L6.293 16.6666H2.5C1.954 16.6666 1.63 16.3986 1.5295 15.8761C1.765 15.4466 2.057 15.0611 2.374 14.8076ZM5.5 26.6666H1.5C1.2245 26.6666 1 26.4421 1 26.1666V24.6541C1.43036 24.9847 1.95736 25.1647 2.5 25.1666H6V26.1666C6 26.4421 5.7755 26.6666 5.5 26.6666ZM30.5 26.6666H26.5C26.2245 26.6666 26 26.4421 26 26.1666V25.1666H29.5C30.065 25.1666 30.581 24.9711 31 24.6541V26.1666C31 26.4421 30.7755 26.6666 30.5 26.6666Z" fill="#00A650"/>
</svg>
