<svg width="32" height="33" viewBox="0 0 32 33" fill="none" xmlns="http://www.w3.org/2000/svg">
<path d="M19.604 10.4726V9.49665H24.774V10.4726C24.7744 10.8485 24.9239 11.2088 25.1896 11.4745C25.4554 11.7403 25.8157 11.8897 26.1915 11.8901H28.9085C29.2844 11.8897 29.6448 11.7403 29.9106 11.4746C30.1764 11.2088 30.326 10.8485 30.3265 10.4726V5.23065C30.326 4.85478 30.1764 4.49446 29.9106 4.22873C29.6448 3.963 29.2844 3.81354 28.9085 3.81315H26.1915C25.8157 3.81354 25.4554 3.96301 25.1896 4.22876C24.9239 4.49451 24.7744 4.85482 24.774 5.23065V6.20665H19.604V5.23065C19.6036 4.85482 19.4542 4.49451 19.1884 4.22876C18.9227 3.96301 18.5623 3.81354 18.1865 3.81315H15.469C15.0932 3.81354 14.7329 3.96301 14.4671 4.22876C14.2014 4.49451 14.0519 4.85482 14.0515 5.23065V10.4726C14.0519 10.8485 14.2014 11.2088 14.4671 11.4745C14.7329 11.7403 15.0932 11.8897 15.469 11.8901H18.1865C18.5624 11.8899 18.9228 11.7405 19.1886 11.4747C19.4543 11.2089 19.6038 10.8485 19.604 10.4726ZM25.774 5.23065C25.774 5.00065 25.9615 4.81315 26.1915 4.81315H28.9085C29.139 4.81315 29.3265 5.00065 29.3265 5.23065V10.4726C29.3265 10.7026 29.139 10.8901 28.9085 10.8901H26.1915C26.0808 10.89 25.9747 10.846 25.8965 10.7677C25.8182 10.6894 25.7742 10.5833 25.774 10.4726V5.23065ZM24.774 7.20665V8.49665H19.604V7.20665H24.774ZM18.604 10.4726C18.604 10.7026 18.4165 10.8901 18.1865 10.8901H15.469C15.3583 10.89 15.2522 10.846 15.174 10.7677C15.0957 10.6894 15.0517 10.5833 15.0515 10.4726V5.23065C15.0515 5.00065 15.239 4.81315 15.469 4.81315H18.1865C18.4165 4.81315 18.604 5.00065 18.604 5.23065V10.4726ZM30.365 14.9316C30.365 14.799 30.3123 14.6719 30.2186 14.5781C30.1248 14.4843 29.9976 14.4316 29.865 14.4316H21.565C20.7802 14.4324 20.0278 14.7446 19.4729 15.2995C18.9179 15.8544 18.6058 16.6068 18.605 17.3916V27.0051L18.604 27.0246C18.6048 27.7588 18.8968 28.4626 19.4159 28.9817C19.935 29.5009 20.6389 29.7929 21.373 29.7936H29.866C29.9986 29.7936 30.1258 29.741 30.2196 29.6472C30.3133 29.5534 30.366 29.4263 30.366 29.2936L30.365 14.9316ZM21.565 15.4316H29.365V24.2556H21.373C20.7269 24.2552 20.1012 24.4817 19.605 24.8956V17.3916C19.6057 16.872 19.8124 16.3739 20.1798 16.0064C20.5473 15.639 21.0454 15.4323 21.565 15.4316ZM29.366 28.7936H21.373C20.9044 28.7931 20.455 28.6068 20.1234 28.2756C19.7919 27.9444 19.6051 27.4953 19.604 27.0266H19.605V27.0151C19.6081 26.548 19.7956 26.101 20.1267 25.7715C20.4579 25.442 20.9059 25.2568 21.373 25.2561H29.366V28.7936ZM14.19 19.7921V19.3416C14.1903 18.9778 14.0462 18.6286 13.7894 18.3708C13.5325 18.1131 13.1839 17.9677 12.82 17.9666H11.55C11.1862 17.9677 10.8376 18.1131 10.5809 18.3709C10.3241 18.6287 10.1801 18.9778 10.1805 19.3416V19.7351H7.88502V19.3416C7.88542 18.9778 7.74144 18.6287 7.48468 18.3709C7.22792 18.1131 6.87936 17.9677 6.51552 17.9666H5.24552C4.88163 17.9677 4.53303 18.1131 4.27619 18.3708C4.01935 18.6286 3.87525 18.9778 3.87552 19.3416V19.7921C2.87702 20.0091 2.09902 20.8636 2.02352 21.9181L1.64002 27.2316C1.59202 27.8911 1.82302 28.5471 2.27402 29.0316C2.72502 29.5161 3.36252 29.7936 4.02402 29.7936C4.39496 29.7928 4.76066 29.706 5.09241 29.5401C5.42415 29.3741 5.71291 29.1335 5.93602 28.8371L7.19202 27.1626C7.30295 27.0155 7.44645 26.8961 7.61127 26.8136C7.77609 26.7312 7.95775 26.6881 8.14202 26.6876H9.92252C10.2945 26.6876 10.6495 26.8646 10.8725 27.1621L12.129 28.8371C12.3521 29.1334 12.6408 29.374 12.9724 29.5399C13.3041 29.7059 13.6697 29.7927 14.0405 29.7936C14.702 29.7936 15.34 29.5156 15.7905 29.0316C16.241 28.5476 16.472 27.8916 16.4245 27.2316L16.0415 21.9181C15.966 20.8636 15.1885 20.0096 14.19 19.7921ZM11.18 19.3416C11.18 19.1351 11.346 18.9666 11.5495 18.9666H12.8195C13.0235 18.9666 13.1895 19.1351 13.1895 19.3416V19.7351H11.1795V19.3416H11.18ZM5.24502 18.9666H6.51502C6.71852 18.9666 6.88452 19.1351 6.88452 19.3416V19.7351H4.87502V19.3416C4.87502 19.1351 5.04102 18.9666 5.24502 18.9666ZM15.0585 28.3501C14.929 28.4907 14.7715 28.6028 14.5962 28.6791C14.421 28.7555 14.2317 28.7945 14.0405 28.7936C13.6055 28.7936 13.19 28.5856 12.9285 28.2376L11.672 26.5626C11.4679 26.2914 11.2036 26.0712 10.8999 25.9194C10.5963 25.7675 10.2615 25.6882 9.92202 25.6876H8.14152C7.80207 25.6885 7.46743 25.7679 7.16382 25.9197C6.86021 26.0715 6.59587 26.2916 6.39152 26.5626L5.13552 28.2376C5.00559 28.4099 4.83754 28.5498 4.64453 28.6462C4.45152 28.7427 4.23879 28.7931 4.02302 28.7936C3.83182 28.7946 3.64253 28.7556 3.46724 28.6793C3.29195 28.6029 3.13453 28.4908 3.00502 28.3501C2.87433 28.2108 2.77406 28.0459 2.71062 27.8657C2.64718 27.6855 2.62194 27.4941 2.63652 27.3036L3.02002 21.9901C3.0458 21.6495 3.19903 21.3311 3.44915 21.0984C3.69927 20.8657 4.0279 20.7358 4.36952 20.7346H13.6945C14.0362 20.7357 14.3649 20.8655 14.615 21.0983C14.8652 21.331 15.0184 21.6495 15.044 21.9901L15.427 27.3036C15.4416 27.4941 15.4164 27.6855 15.3529 27.8657C15.2895 28.0459 15.1892 28.2108 15.0585 28.3501ZM5.71902 21.6501C5.26394 21.6507 4.82765 21.8317 4.50586 22.1535C4.18407 22.4753 4.00305 22.9116 4.00252 23.3666C4.00292 23.8218 4.18387 24.2582 4.50568 24.5801C4.82749 24.902 5.26385 25.0831 5.71902 25.0836C6.17428 25.0832 6.61077 24.9022 6.93268 24.5803C7.2546 24.2584 7.43562 23.8219 7.43602 23.3666C7.43549 22.9115 7.25441 22.4751 6.93251 22.1533C6.61061 21.8315 6.17419 21.6505 5.71902 21.6501ZM5.71902 24.0831C5.32402 24.0831 5.00252 23.7611 5.00252 23.3661C5.00252 22.9711 5.32402 22.6496 5.71902 22.6496C6.11402 22.6496 6.43602 22.9711 6.43602 23.3661C6.43602 23.7611 6.11452 24.0831 5.71902 24.0831ZM12.345 21.6501C11.8899 21.6505 11.4534 21.8315 11.1315 22.1533C10.8096 22.4751 10.6286 22.9115 10.628 23.3666C10.6284 23.8219 10.8094 24.2584 11.1314 24.5803C11.4533 24.9022 11.8898 25.0832 12.345 25.0836C12.8002 25.0831 13.2366 24.902 13.5584 24.5801C13.8802 24.2582 14.0611 23.8218 14.0615 23.3666C14.061 22.9116 13.88 22.4753 13.5582 22.1535C13.2364 21.8317 12.8001 21.6507 12.345 21.6501ZM12.345 24.0831C11.95 24.0831 11.628 23.7611 11.628 23.3661C11.628 22.9711 11.95 22.6496 12.345 22.6496C12.74 22.6496 13.0615 22.9711 13.0615 23.3661C13.0615 23.7611 12.74 24.0831 12.345 24.0831ZM4.36952 7.33415C4.79148 7.52176 5.24823 7.61836 5.71002 7.61765C6.11052 7.61765 6.50752 7.53715 6.88652 7.39565V9.27115H3.29152C3.21795 9.27095 3.14526 9.28702 3.07863 9.31821C3.012 9.3494 2.95309 9.39493 2.90612 9.45155C2.85915 9.50817 2.82529 9.57448 2.80694 9.64572C2.7886 9.71696 2.78624 9.79138 2.80002 9.86365L3.64102 14.3251C3.72283 14.7593 3.95371 15.1512 4.29378 15.4332C4.63385 15.7152 5.06174 15.8696 5.50352 15.8696H9.26902C9.71072 15.8693 10.1385 15.715 10.4786 15.4331C10.8186 15.1513 11.0497 14.7596 11.132 14.3256L11.973 9.86365C11.9868 9.79138 11.9844 9.71696 11.9661 9.64572C11.9478 9.57448 11.9139 9.50817 11.8669 9.45155C11.8199 9.39493 11.761 9.3494 11.6944 9.31821C11.6278 9.28702 11.5551 9.27095 11.4815 9.27115H7.88652V7.39615C8.26212 7.53971 8.66043 7.61473 9.06252 7.61765C9.52428 7.61812 9.98099 7.52153 10.403 7.33415C11.4775 6.85465 12.2245 5.82165 12.352 4.63765C12.3615 4.54977 12.3475 4.46095 12.3115 4.38023C12.2755 4.29951 12.2188 4.22978 12.147 4.17815C11.181 3.48115 9.91202 3.34715 8.83852 3.82665C8.23778 4.09836 7.73209 4.54363 7.38652 5.10515C7.04097 4.54361 6.53528 4.09834 5.93452 3.82665C4.85802 3.34665 3.59102 3.48215 2.62502 4.17815C2.55329 4.22978 2.49652 4.29951 2.46051 4.38023C2.4245 4.46095 2.41053 4.54977 2.42002 4.63765C2.54802 5.82215 3.29502 6.85515 4.36952 7.33415ZM10.1495 14.1406C10.0695 14.5636 9.69952 14.8701 9.26902 14.8701H5.50352C5.07352 14.8701 4.70302 14.5636 4.62352 14.1406L3.89452 10.2716H10.8785L10.1495 14.1406ZM9.24502 4.73965C9.57182 4.59295 9.92836 4.52456 10.2862 4.53992C10.6441 4.55529 10.9935 4.65398 11.3065 4.82815C11.2267 5.17733 11.0667 5.50311 10.839 5.77963C10.6114 6.05615 10.3224 6.2758 9.99502 6.42115C9.66806 6.56723 9.31161 6.63528 8.95384 6.61992C8.59606 6.60456 8.24675 6.50621 7.93352 6.33265C8.01329 5.98346 8.17336 5.65768 8.40102 5.38116C8.62867 5.10464 8.91765 4.88499 9.24502 4.73965ZM5.52652 4.73965C5.85389 4.88499 6.14287 5.10464 6.37052 5.38116C6.59818 5.65768 6.75825 5.98346 6.83802 6.33265C6.52489 6.50624 6.17566 6.60461 5.81796 6.61997C5.46025 6.63533 5.10388 6.56726 4.77702 6.42115C4.44958 6.27583 4.16052 6.0562 3.93278 5.77968C3.70504 5.50316 3.54488 5.17736 3.46502 4.82815C3.77814 4.65424 4.12748 4.5557 4.48532 4.54034C4.84315 4.52498 5.19965 4.59322 5.52652 4.73965Z" fill="#00A650"/>
</svg>
