
<svg xmlns="http://www.w3.org/2000/svg" viewBox="0 0 24 24"><g data-name="Exchange 1"><g data-name="&lt;Group&gt;"><path fill="none" stroke="#00A650" stroke-linecap="round" stroke-linejoin="round" d="M13.49,7.65c0-.05,0-.1,0-.15a6,6,0,1,0-6,6h.15" data-name="&lt;Path&gt;"/><circle cx="15" cy="15" r="7.5" fill="none" stroke="#00A650" stroke-linecap="round" stroke-linejoin="round" data-name="&lt;Path&gt;"/><path fill="none" stroke="#00A650" stroke-linecap="round" stroke-linejoin="round" d="M13.5,17.5h1.75a1.25,1.25,0,0,0,1.25-1.25h0A1.25,1.25,0,0,0,15.25,15h-.5a1.25,1.25,0,0,1-1.25-1.25h0a1.25,1.25,0,0,1,1.25-1.25H16.5" data-name="&lt;Path&gt;"/><line x1="15" x2="15" y1="11.5" y2="12.5" fill="none" stroke="#00A650" stroke-linecap="round" stroke-linejoin="round" data-name="&lt;Path&gt;"/><line x1="15" x2="15" y1="17.5" y2="18.5" fill="none" stroke="#00A650" stroke-linecap="round" stroke-linejoin="round" data-name="&lt;Path&gt;"/><g data-name="&lt;Group&gt;"><path fill="none" stroke="#00A650" stroke-linecap="round" stroke-linejoin="round" d="M8.5,5h-1a2,2,0,0,0-2,2V8a2,2,0,0,0,2,2h1" data-name="&lt;Path&gt;"/><line x1="5" x2="7.5" y1="7.5" y2="7.5" fill="none" stroke="#00A650" stroke-linecap="round" stroke-linejoin="round" data-name="&lt;Path&gt;"/></g><g data-name="&lt;Group&gt;"><polyline fill="none" stroke="#00A650" stroke-linecap="round" stroke-linejoin="round" points="22.5 4.5 21.5 6.5 19.5 5.5" data-name="&lt;Path&gt;"/><path fill="none" stroke="#00A650" stroke-linecap="round" stroke-linejoin="round" d="M16.5,1.5c2.76,0,4.66,2.38,5,5h0" data-name="&lt;Path&gt;"/></g><g data-name="&lt;Group&gt;"><polyline fill="none" stroke="#00A650" stroke-linecap="round" stroke-linejoin="round" points="1.51 19.5 2.51 17.5 4.51 18.5" data-name="&lt;Path&gt;"/><path fill="none" stroke="#00A650" stroke-linecap="round" stroke-linejoin="round" d="M7.51,22.5c-2.76,0-4.66-2.37-5-5h0" data-name="&lt;Path&gt;"/></g></g></g></svg>