<svg width="217" height="72" viewBox="0 0 217 72" fill="none" xmlns="http://www.w3.org/2000/svg">
<g clip-path="url(#clip0_1148_5014)">
<mask id="mask0_1148_5014" style="mask-type:luminance" maskUnits="userSpaceOnUse" x="0" y="0" width="217" height="72">
<path d="M217 0.5H0V71.5H217V0.5Z" fill="white"/>
</mask>
<g mask="url(#mask0_1148_5014)">
<mask id="mask1_1148_5014" style="mask-type:luminance" maskUnits="userSpaceOnUse" x="0" y="0" width="217" height="72">
<path d="M217 0.5H0V71.5H217V0.5Z" fill="white"/>
</mask>
<g mask="url(#mask1_1148_5014)">
<mask id="mask2_1148_5014" style="mask-type:luminance" maskUnits="userSpaceOnUse" x="80" y="20" width="137" height="32">
<path d="M216.28 20.4077H80.5576V51.216H216.28V20.4077Z" fill="white"/>
</mask>
<g mask="url(#mask2_1148_5014)">
<path d="M103.56 44.7499C102.444 46.7571 100.847 48.3377 98.7784 49.4872C96.7049 50.6412 94.294 51.216 91.5369 51.216H80.5576V24.907H91.5369C94.2895 24.907 96.7049 25.4638 98.7784 26.5775C100.852 27.6911 102.444 29.2402 103.56 31.2205C104.675 33.2007 105.233 35.4549 105.233 37.9829C105.233 40.511 104.675 42.7382 103.56 44.7454V44.7499ZM95.2206 42.3341C96.3136 41.3193 96.8578 39.8689 96.8578 37.9874C96.8578 36.106 96.3136 34.6556 95.2206 33.6408C94.1276 32.6259 92.6523 32.1185 90.7902 32.1185H88.8157V43.8608H90.7902C92.6523 43.8608 94.1276 43.3534 95.2206 42.3386V42.3341Z" fill="#00A650"/>
<path d="M108.537 21.5797C109.405 20.7984 110.561 20.4077 112.001 20.4077C113.44 20.4077 114.555 20.7984 115.423 21.5797C116.292 22.361 116.728 23.3444 116.728 24.5343C116.728 25.7243 116.292 26.6673 115.423 27.4351C114.555 28.203 113.413 28.5891 112.001 28.5891C110.588 28.5891 109.405 28.2074 108.537 27.4351C107.669 26.6673 107.233 25.7018 107.233 24.5343C107.233 23.3669 107.665 22.361 108.537 21.5797ZM116.094 30.255V51.216H107.831V30.255H116.094Z" fill="#00A650"/>
<path d="M133.094 44.1932V51.2161H129.968C124.211 51.2161 121.332 48.3557 121.332 42.6305V37.1299H118.728V30.2551H121.332V25.199H129.595V30.2551H133.017V37.1299H129.595V42.7787C129.595 43.2727 129.712 43.6319 129.95 43.8564C130.184 44.0809 130.575 44.1932 131.124 44.1932H133.098H133.094Z" fill="#00A650"/>
<path d="M152.721 32.0467C154.597 33.5824 155.779 35.7153 156.274 38.4364H147.526C147.202 37.3453 146.572 36.8019 145.628 36.8019C144.958 36.8019 144.431 37.1118 144.045 37.7314C143.658 38.3511 143.469 39.2671 143.469 40.4795C143.469 41.6919 143.662 42.6124 144.045 43.2276C144.427 43.8473 144.958 44.1571 145.628 44.1571C146.572 44.1571 147.202 43.6138 147.526 42.5226H156.274C155.779 45.2483 154.592 47.3767 152.721 48.9124C150.845 50.4481 148.547 51.2159 145.817 51.2159C143.734 51.2159 141.877 50.7849 140.253 49.9137C138.629 49.0471 137.361 47.8033 136.457 46.1778C135.553 44.5568 135.098 42.6529 135.098 40.475C135.098 38.2972 135.553 36.3933 136.457 34.7723C137.361 33.1513 138.629 31.9075 140.253 31.0363C141.877 30.1697 143.734 29.7341 145.817 29.7341C148.547 29.7341 150.85 30.502 152.721 32.0377V32.0467Z" fill="#00A650"/>
<path d="M178.618 32.5226C179.972 34.1346 180.646 36.3124 180.646 39.065V51.2159H172.42V40.1068C172.42 39.1144 172.155 38.3286 171.619 37.7448C171.084 37.1611 170.373 36.8692 169.478 36.8692C168.583 36.8692 167.841 37.1611 167.319 37.7448C166.798 38.3286 166.537 39.1144 166.537 40.1068V51.2159H158.274V23.717H166.537V33.4521C167.18 32.4597 168.043 31.6559 169.123 31.0363C170.202 30.4166 171.489 30.1068 172.978 30.1068C175.384 30.1068 177.264 30.9105 178.618 32.5226Z" fill="#00A650"/>
<path d="M192.909 24.907V51.216H184.646V24.907H192.909Z" fill="#00A650"/>
<path d="M209.275 43.9012V50.9241H206.149C200.392 50.9241 197.513 48.0638 197.513 42.3386V36.8379H194.909V29.9632H197.513V24.907H205.776V29.9632H209.199V36.8379H205.776V42.4867C205.776 42.9807 205.893 43.3399 206.131 43.5644C206.365 43.7889 206.756 43.9012 207.305 43.9012H209.28H209.275Z" fill="#00A650"/>
</g>
<path fill-rule="evenodd" clip-rule="evenodd" d="M0 35.9442C0 16.492 15.7919 0.721924 35.2766 0.721924C54.3609 0.721924 69.901 15.8409 70.5352 34.7363C70.5487 35.1359 70.5577 35.54 70.5577 35.9442C70.5577 36.7345 70.5307 37.5113 70.4812 38.2881C70.3733 39.9271 70.1484 41.5391 69.8245 43.1107C69.6536 43.9415 69.4557 44.7587 69.2263 45.5625C68.5741 47.8526 67.7016 50.0528 66.6176 52.1319C66.1948 52.9536 65.736 53.7618 65.2457 54.5432C64.4991 55.7376 63.6895 56.8781 62.8124 57.9693C62.2367 58.6833 61.634 59.3793 61.0043 60.0483C54.5679 66.8916 45.4237 71.1664 35.2766 71.1664C15.7919 71.1664 0 55.3963 0 35.9442ZM13.3677 55.6433C13.7995 55.2706 14.2627 55.329 14.7575 55.4817C15.1866 55.6133 15.6144 55.7487 16.0419 55.8841C17.2189 56.2567 18.3939 56.6287 19.5882 56.9186C25.6243 58.3869 31.6784 58.5486 37.6785 56.7659C43.3458 55.082 48.0191 51.8355 51.9547 47.4709C52.238 47.1566 52.5169 46.8332 52.7598 46.3932C52.6613 46.4152 52.5623 46.4358 52.4635 46.4564C52.26 46.4987 52.057 46.5408 51.8602 46.5953C48.4643 47.4799 45.028 47.9244 41.5197 47.5427C39.1223 47.2823 36.8689 46.6087 34.9168 45.1224C34.5525 44.844 34.2871 44.5162 34.3771 44.0403C34.4671 43.5598 34.7864 43.25 35.2452 43.1152C38.1521 42.2385 40.8693 40.9178 43.5838 39.5985C44.0529 39.3704 44.522 39.1425 44.992 38.9168L45.2084 38.8124L45.3326 38.7523C46.8954 37.9965 48.4555 37.2421 50.1915 36.9365C52.7958 36.4875 55.391 36.5863 57.9773 36.9814C62.3582 37.655 66.4242 39.02 70.1709 41.0991C70.1125 41.4942 70.0495 41.8939 69.973 42.289C69.8291 43.0658 69.6627 43.8247 69.4738 44.5791C69.0735 46.1732 68.5607 47.7178 67.958 49.2042C67.6387 49.99 67.2968 50.7578 66.928 51.5077C65.871 53.6406 64.6161 55.6478 63.1768 57.4978C62.9609 57.7538 62.736 58.0052 62.5066 58.2567C61.4676 59.3972 60.3656 60.4659 59.2097 61.4628C54.7208 62.9536 50.3265 64.7318 45.995 66.6581C42.6261 68.1579 39.1538 68.4632 35.5375 67.8885C29.8568 66.9859 24.6123 64.9069 19.7276 61.9343C17.9977 60.8805 16.3394 59.7164 14.6799 58.5513C14.303 58.2867 13.9255 58.0217 13.5476 57.7583C12.6885 57.161 12.6525 56.2405 13.3677 55.6298V55.6433ZM24.5485 5.77619C29.391 6.66349 32.5961 11.3019 31.7073 16.1364C30.8186 20.9709 26.1725 24.1708 21.3299 23.2835C16.4873 22.3962 13.2821 17.7577 14.1709 12.9232C15.0597 8.08869 19.7059 4.88889 24.5485 5.77619ZM37.0352 28.3779L36.0862 27.1565L36.0875 27.1552C35.822 26.8227 35.6426 26.4299 35.5446 25.993C34.9734 24.0313 36.1689 21.0656 38.6649 18.6861C41.7136 15.7796 45.548 14.8483 47.2293 16.6059C47.2425 16.6196 47.2554 16.6335 47.2682 16.6475L47.2768 16.6401L48.3113 17.7357C49.4043 18.7236 49.7326 20.4749 48.7746 22.6706C47.2543 26.1462 43.4132 29.1592 40.1747 29.4511C38.7534 29.5813 37.7144 29.1951 37.0397 28.3823L37.0352 28.3779ZM31.8953 33.9672C34.5993 37.4942 35.1379 41.6169 33.0983 43.1754C32.646 43.5211 32.1049 43.7116 31.507 43.7603C29.3883 44.0624 26.4715 42.4746 24.2945 39.6351C21.5904 36.108 21.0518 31.9853 23.0915 30.4268C23.5439 30.0811 24.0851 29.8906 24.683 29.842C26.8017 29.5399 29.7184 31.1277 31.8953 33.9672ZM41.9052 54.5797C42.232 54.4324 42.5586 54.2852 42.8871 54.1435L42.8916 54.148L42.8557 54.0716C42.6156 54.1444 42.3764 54.2213 42.1372 54.2981C41.6103 54.4673 41.0835 54.6365 40.5483 54.7632C36.9545 55.6163 33.3247 55.5939 29.6815 55.1448C26.4475 54.7452 23.3215 53.892 20.218 52.9221C19.2664 52.6222 18.2683 52.4677 17.2727 52.3136C17.0306 52.2761 16.7888 52.2387 16.5478 52.1992C16.2599 52.1543 15.9181 52.2396 15.6392 52.3608C15.2434 52.527 15.059 52.8862 15.0725 53.3217C15.086 53.9055 15.4773 54.1974 15.9585 54.3905C18.5133 55.4232 21.1356 56.236 23.8568 56.7209C29.2767 57.6909 34.5976 57.372 39.7881 55.4726C40.508 55.2096 41.2071 54.8944 41.9052 54.5797ZM42.7835 53.434L42.7641 53.4427C42.6166 53.4748 42.4691 53.509 42.3213 53.5433C41.9979 53.6183 41.6731 53.6936 41.3442 53.7483C37.3996 54.3905 33.5449 53.8651 29.7667 52.7335C28.6395 52.3936 27.536 51.9754 26.4315 51.5569C25.61 51.2456 24.7881 50.9341 23.9555 50.6545C23.1549 50.3851 22.3003 50.2504 21.4592 50.1381C21.0409 50.0797 20.7036 50.3581 20.6001 50.8027C20.4967 51.2517 20.7081 51.575 21.0949 51.7771C21.6211 52.0465 22.1519 52.3114 22.6916 52.5539C27.4548 54.7003 32.416 55.6118 37.629 54.9203C39.4076 54.6832 41.1149 54.1833 42.7641 53.4427L42.7835 53.4385V53.434ZM42.7735 52.9276C42.7754 52.9273 42.7773 52.927 42.7792 52.9267L42.7747 52.9312C42.7743 52.93 42.7739 52.9288 42.7735 52.9276ZM41.6185 53.1317C42.0032 53.0604 42.3879 52.989 42.7735 52.9276C42.7709 52.9198 42.7682 52.9121 42.7656 52.9046C42.7551 52.8744 42.7447 52.8458 42.7342 52.8144C42.507 52.8289 42.2798 52.8475 42.0526 52.8661C41.5737 52.9054 41.0947 52.9447 40.6157 52.9447C39.9095 52.9402 39.1989 52.8818 38.4972 52.7875C35.4162 52.3834 32.5691 51.2832 29.8164 49.8867C29.2476 49.5986 28.6243 49.4076 28.0117 49.2198C27.9655 49.2056 27.9193 49.1915 27.8733 49.1773C27.482 49.056 27.0997 49.1324 26.9423 49.5814C26.7938 50.017 27.0727 50.2505 27.4055 50.4525C31.0128 52.6348 34.8989 53.7754 39.1359 53.4925C39.9689 53.4375 40.7936 53.2846 41.6185 53.1317Z" fill="#00A650"/>
</g>
</g>
</g>
<defs>
<clipPath id="clip0_1148_5014">
<rect width="217" height="71" fill="white" transform="translate(0 0.5)"/>
</clipPath>
</defs>
</svg>
