<svg width="217" height="72" viewBox="0 0 217 72" fill="none" xmlns="http://www.w3.org/2000/svg">
<g clip-path="url(#clip0_1148_4912)">
<mask id="mask0_1148_4912" style="mask-type:luminance" maskUnits="userSpaceOnUse" x="0" y="0" width="217" height="72">
<path d="M217 0.5H0V71.5H217V0.5Z" fill="white"/>
</mask>
<g mask="url(#mask0_1148_4912)">
<mask id="mask1_1148_4912" style="mask-type:luminance" maskUnits="userSpaceOnUse" x="80" y="20" width="137" height="32">
<path d="M216.28 20.4077H80.5576V51.216H216.28V20.4077Z" fill="white"/>
</mask>
<g mask="url(#mask1_1148_4912)">
<path d="M103.56 44.7499C102.444 46.7571 100.847 48.3377 98.7784 49.4872C96.7049 50.6412 94.294 51.216 91.5369 51.216H80.5576V24.907H91.5369C94.2895 24.907 96.7049 25.4638 98.7784 26.5775C100.852 27.6911 102.444 29.2402 103.56 31.2205C104.675 33.2007 105.233 35.4549 105.233 37.9829C105.233 40.511 104.675 42.7382 103.56 44.7454V44.7499ZM95.2206 42.3341C96.3136 41.3193 96.8578 39.8689 96.8578 37.9874C96.8578 36.106 96.3136 34.6556 95.2206 33.6408C94.1276 32.6259 92.6523 32.1185 90.7902 32.1185H88.8157V43.8608H90.7902C92.6523 43.8608 94.1276 43.3534 95.2206 42.3386V42.3341Z" fill="#00A650"/>
<path d="M108.537 21.5797C109.405 20.7984 110.561 20.4077 112.001 20.4077C113.44 20.4077 114.555 20.7984 115.423 21.5797C116.292 22.361 116.728 23.3444 116.728 24.5343C116.728 25.7243 116.292 26.6673 115.423 27.4351C114.555 28.203 113.413 28.5891 112.001 28.5891C110.588 28.5891 109.405 28.2074 108.537 27.4351C107.669 26.6673 107.233 25.7018 107.233 24.5343C107.233 23.3669 107.665 22.361 108.537 21.5797ZM116.094 30.255V51.216H107.831V30.255H116.094Z" fill="#00A650"/>
<path d="M133.094 44.1932V51.2161H129.968C124.211 51.2161 121.332 48.3557 121.332 42.6305V37.1299H118.728V30.2551H121.332V25.199H129.595V30.2551H133.017V37.1299H129.595V42.7787C129.595 43.2727 129.712 43.6319 129.95 43.8564C130.184 44.0809 130.575 44.1932 131.124 44.1932H133.098H133.094Z" fill="#00A650"/>
<path d="M152.721 32.0467C154.597 33.5824 155.779 35.7153 156.274 38.4364H147.526C147.202 37.3453 146.572 36.8019 145.628 36.8019C144.958 36.8019 144.431 37.1118 144.045 37.7314C143.658 38.3511 143.469 39.2671 143.469 40.4795C143.469 41.6919 143.662 42.6124 144.045 43.2276C144.427 43.8473 144.958 44.1571 145.628 44.1571C146.572 44.1571 147.202 43.6138 147.526 42.5226H156.274C155.779 45.2483 154.592 47.3767 152.721 48.9124C150.845 50.4481 148.547 51.2159 145.817 51.2159C143.734 51.2159 141.877 50.7849 140.253 49.9137C138.629 49.0471 137.361 47.8033 136.457 46.1778C135.553 44.5568 135.098 42.6529 135.098 40.475C135.098 38.2972 135.553 36.3933 136.457 34.7723C137.361 33.1513 138.629 31.9075 140.253 31.0363C141.877 30.1697 143.734 29.7341 145.817 29.7341C148.547 29.7341 150.85 30.502 152.721 32.0377V32.0467Z" fill="#00A650"/>
<path d="M178.618 32.5226C179.972 34.1346 180.646 36.3124 180.646 39.065V51.2159H172.42V40.1068C172.42 39.1144 172.155 38.3286 171.619 37.7448C171.084 37.1611 170.373 36.8692 169.478 36.8692C168.583 36.8692 167.841 37.1611 167.319 37.7448C166.798 38.3286 166.537 39.1144 166.537 40.1068V51.2159H158.274V23.717H166.537V33.4521C167.18 32.4597 168.043 31.6559 169.123 31.0363C170.202 30.4166 171.489 30.1068 172.978 30.1068C175.384 30.1068 177.264 30.9105 178.618 32.5226Z" fill="#00A650"/>
<path d="M192.909 24.907V51.216H184.646V24.907H192.909Z" fill="#00A650"/>
<path d="M209.275 43.9012V50.9241H206.149C200.392 50.9241 197.513 48.0638 197.513 42.3386V36.8379H194.909V29.9632H197.513V24.907H205.776V29.9632H209.199V36.8379H205.776V42.4867C205.776 42.9807 205.893 43.3399 206.131 43.5644C206.365 43.7889 206.756 43.9012 207.305 43.9012H209.28H209.275Z" fill="#00A650"/>
</g>
<path d="M0 35.9442C0 16.492 15.7919 0.721924 35.2766 0.721924C54.3609 0.721924 69.901 15.8409 70.5352 34.7363C70.5487 35.1359 70.5577 35.54 70.5577 35.9442C70.5577 36.7345 70.5307 37.5113 70.4812 38.2881C70.3733 39.9271 70.1484 41.5391 69.8245 43.1107C69.6536 43.9415 69.4557 44.7587 69.2263 45.5625C68.5741 47.8526 67.7016 50.0528 66.6176 52.1319C66.1948 52.9536 65.736 53.7618 65.2457 54.5432C64.4991 55.7376 63.6895 56.8781 62.8124 57.9693C62.2367 58.6833 61.634 59.3793 61.0043 60.0483C54.5679 66.8916 45.4237 71.1664 35.2766 71.1664C15.7919 71.1664 0 55.3963 0 35.9442Z" fill="#00A650"/>
<path d="M13.3677 55.6433C13.7995 55.2706 14.2627 55.329 14.7575 55.4817C16.3677 55.9756 17.96 56.5234 19.5882 56.9186C25.6243 58.3869 31.6784 58.5486 37.6785 56.7659C43.3458 55.082 48.0191 51.8355 51.9547 47.4709C52.238 47.1566 52.5169 46.8332 52.7598 46.3932C52.4584 46.4606 52.1526 46.5144 51.8602 46.5953C48.4643 47.4799 45.028 47.9244 41.5197 47.5427C39.1223 47.2823 36.8689 46.6087 34.9168 45.1224C34.5525 44.844 34.2871 44.5162 34.3771 44.0403C34.4671 43.5598 34.7864 43.25 35.2452 43.1152C38.6545 42.087 41.803 40.448 44.992 38.9168C46.6697 38.1085 48.3294 37.2643 50.1915 36.9365C52.7958 36.4875 55.391 36.5863 57.9773 36.9814C62.3582 37.655 66.4242 39.02 70.1709 41.0991C70.1125 41.4942 70.0495 41.8939 69.973 42.289C69.8291 43.0658 69.6627 43.8247 69.4738 44.5791C69.0735 46.1732 68.5607 47.7178 67.958 49.2042C67.6387 49.99 67.2968 50.7578 66.928 51.5077C65.871 53.6406 64.6161 55.6478 63.1768 57.4978C62.9609 57.7538 62.736 58.0052 62.5066 58.2567C61.4676 59.3972 60.3656 60.4659 59.2097 61.4628C54.7208 62.9536 50.3265 64.7318 45.995 66.6581C42.6261 68.1579 39.1538 68.4632 35.5375 67.8885C29.8568 66.9859 24.6123 64.9069 19.7276 61.9343C17.6046 60.6411 15.5896 59.1817 13.5476 57.7583C12.6885 57.161 12.6525 56.2405 13.3677 55.6298V55.6433Z" fill="white"/>
<path d="M42.8871 54.1435C41.8571 54.588 40.8451 55.0865 39.7881 55.4726C34.5976 57.372 29.2767 57.6909 23.8568 56.7209C21.1356 56.236 18.5133 55.4232 15.9585 54.3905C15.4773 54.1974 15.086 53.9055 15.0725 53.3217C15.059 52.8862 15.2434 52.527 15.6392 52.3608C15.9181 52.2396 16.2599 52.1543 16.5478 52.1992C17.7802 52.4012 19.0351 52.5494 20.218 52.9221C23.3215 53.892 26.4475 54.7452 29.6815 55.1448C33.3247 55.5939 36.9545 55.6163 40.5483 54.7632C41.3264 54.579 42.0865 54.3051 42.8557 54.0716L42.8916 54.148L42.8871 54.1435Z" fill="white"/>
<path d="M42.7835 53.434C41.1283 54.1794 39.4146 54.6823 37.629 54.9203C32.416 55.6118 27.4548 54.7003 22.6916 52.5539C22.1519 52.3114 21.6211 52.0465 21.0949 51.7771C20.7081 51.575 20.4967 51.2517 20.6001 50.8027C20.7036 50.3581 21.0409 50.0797 21.4592 50.1381C22.3003 50.2504 23.1549 50.3851 23.9555 50.6545C25.9076 51.3101 27.8012 52.1408 29.7667 52.7335C33.5449 53.8651 37.3996 54.3905 41.3442 53.7483C41.8299 53.6675 42.3067 53.5418 42.7835 53.4385V53.434Z" fill="white"/>
<path d="M42.7792 52.9267C41.5647 53.1198 40.3593 53.4117 39.1359 53.4925C34.8989 53.7754 31.0128 52.6348 27.4055 50.4525C27.0727 50.2505 26.7938 50.017 26.9423 49.5814C27.0997 49.1324 27.482 49.056 27.8733 49.1773C28.53 49.3793 29.2047 49.5769 29.8164 49.8867C32.5691 51.2832 35.4162 52.3834 38.4972 52.7875C39.1989 52.8818 39.9095 52.9402 40.6157 52.9447C41.3219 52.9447 42.028 52.8593 42.7342 52.8144C42.7477 52.8549 42.7612 52.8908 42.7747 52.9312L42.7792 52.9267Z" fill="white"/>
<path d="M31.7073 16.1364C32.5961 11.3019 29.391 6.66349 24.5485 5.77619C19.7059 4.88889 15.0597 8.08869 14.1709 12.9232C13.2821 17.7577 16.4873 22.3962 21.3299 23.2835C26.1725 24.1708 30.8186 20.9709 31.7073 16.1364Z" fill="#FCDE16"/>
<g style="mix-blend-mode:multiply">
<path d="M14.1368 15.9441L16.3453 15.5894C16.6106 17.2328 17.4877 18.782 18.927 19.8597C21.8731 22.0689 26.0606 21.4762 28.2735 18.5306C29.407 17.0218 29.8028 15.1942 29.5239 13.4699L31.7324 13.1152C32.515 17.9693 29.2091 22.5359 24.3514 23.3173C19.4893 24.0986 14.9149 20.7982 14.1323 15.9486L14.1368 15.9441Z" fill="#EEE5D1"/>
</g>
<g style="mix-blend-mode:multiply">
<path d="M23.8294 21.1331C27.4827 20.6413 30.0449 17.2859 29.5523 13.6386C29.0596 9.9914 25.6987 7.4335 22.0453 7.9253C18.392 8.4171 15.8298 11.7725 16.3224 15.4197C16.8151 19.0669 20.1761 21.6249 23.8294 21.1331Z" fill="#DCC99E"/>
</g>
<g style="mix-blend-mode:multiply">
<path d="M27.0231 9.9721C24.077 7.7628 19.8895 8.3555 17.6765 11.3012C16.7095 12.5899 16.2777 14.1122 16.3452 15.6075C16.0618 13.8787 16.4576 12.0421 17.5956 10.5289C19.8085 7.5877 23.9915 6.9905 26.9421 9.1997C28.6018 10.4436 29.5149 12.3071 29.6048 14.2244C29.335 12.5855 28.4579 11.0453 27.0231 9.9721Z" fill="#DFCDA7"/>
</g>
<g style="mix-blend-mode:overlay">
<path d="M16.3677 15.7242C16.66 17.3183 17.5281 18.8091 18.927 19.8598C21.873 22.0691 26.0605 21.4763 28.2735 18.5307C29.326 17.1342 29.7398 15.4593 29.5733 13.8472C29.8927 15.6119 29.5059 17.4979 28.3454 19.0426C26.1325 21.9837 21.9495 22.581 18.9989 20.3717C17.4517 19.2132 16.5521 17.5069 16.3677 15.7242Z" fill="#FDE961"/>
</g>
<path d="M25.3679 16.3574C25.3679 15.9533 25.2734 15.63 25.08 15.383C24.8866 15.136 24.6527 14.9474 24.3694 14.8217C24.086 14.696 23.7352 14.5792 23.3034 14.4714V12.3924C23.8476 12.4688 24.3514 12.6978 24.8191 13.0794L25.2419 12.1814C25.017 11.9793 24.7427 11.8087 24.4188 11.674C24.095 11.5392 23.7442 11.4494 23.3753 11.4045V10.3538H22.3993V11.418C21.9945 11.4674 21.6392 11.5886 21.3288 11.7772C21.0185 11.9658 20.7756 12.1993 20.6047 12.4867C20.4337 12.7696 20.3438 13.0839 20.3438 13.4297C20.3438 13.8428 20.4427 14.1796 20.6406 14.44C20.8385 14.7005 21.0859 14.8935 21.3783 15.0238C21.6707 15.154 22.035 15.2752 22.4623 15.383V17.3722C21.8146 17.3273 21.2164 17.0893 20.6586 16.6538L20.2358 17.5518C20.5102 17.7808 20.8296 17.9649 21.1984 18.0952C21.5672 18.2299 21.963 18.3107 22.3903 18.3421V19.3839H23.3663V18.3197C23.9735 18.2299 24.4593 18.0098 24.8191 17.6551C25.179 17.3004 25.3589 16.8648 25.3589 16.3484L25.3679 16.3574ZM21.5807 13.3623C21.5807 13.1154 21.6572 12.9043 21.8146 12.7382C21.972 12.572 22.1879 12.4598 22.4623 12.4014V14.2469C22.1789 14.1526 21.963 14.0359 21.8101 13.8967C21.6572 13.7575 21.5807 13.5779 21.5807 13.3578V13.3623ZM23.3079 17.3228V15.6075C23.5777 15.6928 23.7801 15.7916 23.9196 15.9128C24.059 16.0341 24.131 16.1957 24.131 16.3933C24.131 16.6403 24.059 16.8468 23.9196 16.9995C23.7801 17.1567 23.5732 17.2644 23.3079 17.3183V17.3228Z" fill="#DF9800"/>
<path d="M21.3964 13.1376C21.3964 12.8907 21.4728 12.6796 21.6303 12.5135C21.7877 12.3473 22.0036 12.2352 22.2779 12.1768V14.0223C21.9946 13.928 21.7787 13.8113 21.6258 13.6721C21.4728 13.5329 21.3964 13.3533 21.3964 13.1333V13.1376ZM23.1235 17.0982V15.3829C23.3934 15.4682 23.5958 15.5669 23.7352 15.6882C23.8747 15.8094 23.9466 15.9711 23.9466 16.1686C23.9466 16.4156 23.8747 16.6223 23.7352 16.7749C23.5958 16.9321 23.3889 17.0399 23.1235 17.0937V17.0982ZM25.1836 16.1327C25.1836 15.7286 25.0891 15.4053 24.8957 15.1583C24.7023 14.9113 24.4684 14.7227 24.185 14.597C23.9017 14.4713 23.5508 14.3546 23.119 14.2469V12.1678C23.6633 12.2442 24.167 12.4732 24.6348 12.8549L25.0576 11.9568C24.8327 11.7547 24.5584 11.5841 24.2345 11.4494C23.9107 11.3147 23.5598 11.2249 23.191 11.18V10.1292H22.215V11.1933C21.8102 11.2427 21.4548 11.3641 21.1445 11.5527C20.8341 11.7412 20.5913 11.9747 20.4203 12.2621C20.2494 12.545 20.1595 12.8592 20.1595 13.205C20.1595 13.6181 20.2584 13.955 20.4563 14.2154C20.6542 14.4759 20.9016 14.669 21.194 14.7992C21.4863 14.9294 21.8507 15.0505 22.2779 15.1583V17.1476C21.6303 17.1027 21.032 16.8646 20.4743 16.4291L20.0515 17.3272C20.3259 17.5562 20.6452 17.7403 21.0141 17.8706C21.3829 18.0053 21.7787 18.0861 22.206 18.1175V19.1593H23.182V18.0951C23.7892 18.0053 24.275 17.7853 24.6348 17.4305C24.9946 17.0758 25.1746 16.6402 25.1746 16.1238L25.1836 16.1327Z" fill="#FFDE56"/>
<path d="M25.5838 4.78121C25.7008 4.78121 25.7997 4.68691 25.7997 4.56561V1.84451C25.7997 1.72771 25.7053 1.62891 25.5838 1.62891C25.4624 1.62891 25.3679 1.72321 25.3679 1.84451V4.56561C25.3679 4.68241 25.4624 4.78121 25.5838 4.78121Z" fill="#B3D7DD"/>
<path d="M22.7098 4.2065C22.8267 4.2065 22.9257 4.1122 22.9257 3.9909V-8.61796C22.9257 -8.73471 22.8312 -8.8335 22.7098 -8.8335C22.5884 -8.8335 22.4939 -8.7392 22.4939 -8.61796V3.9954C22.4939 4.1122 22.5884 4.211 22.7098 4.211V4.2065Z" fill="#B3D7DD"/>
<path d="M20.2718 4.49386C20.3887 4.49386 20.4877 4.39956 20.4877 4.27836V0.407669C20.4877 0.290929 20.3932 0.192139 20.2718 0.192139C20.1504 0.192139 20.0559 0.286429 20.0559 0.407669V4.27836C20.0559 4.39506 20.1504 4.49386 20.2718 4.49386Z" fill="#B3D7DD"/>
<path d="M21.8957 31.1486L23.29 30.2954L23.6543 30.74C24.5989 30.74 25.6873 31.0498 26.8433 31.7099C30.3246 33.7036 33.0998 38.1087 33.0368 41.5348C33.0278 42.0377 32.9559 42.4867 32.8344 42.8909L33.0638 43.2232L31.7954 44.1796C30.6305 45.2079 28.7504 45.3561 26.5554 44.0988C23.0741 42.1051 20.3529 37.736 20.4159 34.3098C20.4429 32.8056 20.9646 31.7638 21.9002 31.1486H21.8957Z" fill="#FCDE16"/>
<g style="mix-blend-mode:multiply">
<path d="M21.8957 31.1486L23.29 30.2954L23.6543 30.74C24.5989 30.74 25.6873 31.0498 26.8433 31.7099C30.3246 33.7036 33.0998 38.1087 33.0368 41.5348C33.0278 42.0377 32.9559 42.4867 32.8344 42.8909L33.0638 43.2232L31.7954 44.1796C30.6305 45.2079 28.7504 45.3561 26.5554 44.0988C23.0741 42.1051 20.3529 37.736 20.4159 34.3098C20.4429 32.8056 20.9511 31.7818 21.9002 31.1486H21.8957Z" fill="#DCC99E"/>
</g>
<path d="M32.8838 43.1994C34.9235 41.6408 34.3849 37.5181 31.6808 33.9911C28.9767 30.464 25.1312 28.8683 23.0915 30.4268C21.0518 31.9853 21.5904 36.108 24.2945 39.6351C26.9986 43.1621 30.8441 44.7579 32.8838 43.1994Z" fill="#FCDE16"/>
<path d="M33.0983 43.1754C35.1379 41.6169 34.5993 37.4942 31.8953 33.9672C29.1912 30.4401 25.3456 28.8443 23.306 30.4029C21.2663 31.9614 21.8049 36.0841 24.5089 39.6111C27.213 43.1382 31.0586 44.734 33.0983 43.1754Z" fill="#FCDE16"/>
<g style="mix-blend-mode:multiply">
<path d="M27.8192 30.4929L27.9137 32.0734C26.7667 31.5076 25.6468 31.3818 24.8102 31.8264C23.0965 32.7334 23.2179 35.6928 25.089 38.4364C26.0471 39.8418 27.275 40.915 28.4759 41.5077L28.5704 43.0884C25.188 41.4224 22.2779 37.2509 22.071 33.7709C21.8641 30.2909 24.4368 28.827 27.8192 30.4929Z" fill="#EEE5D1"/>
</g>
<g style="mix-blend-mode:multiply">
<path d="M31.8709 41.5744C33.3996 40.4062 32.9964 37.3168 30.9702 34.674C28.9441 32.0311 26.0622 30.8357 24.5335 32.0038C23.0047 33.172 23.4079 36.2614 25.4341 38.9042C27.4602 41.547 30.3421 42.7425 31.8709 41.5744Z" fill="#DCC99E"/>
</g>
<path d="M27.3693 38.5126C27.6527 38.5799 27.8641 38.5665 28.008 38.4722C28.1519 38.3734 28.2419 38.2342 28.2824 38.0546C28.3229 37.8704 28.3453 37.6325 28.3543 37.3406L29.8116 37.6953C29.8476 38.077 29.7667 38.4048 29.5778 38.6742L30.2794 39.1322C30.3874 39.0065 30.4593 38.8359 30.4998 38.6203C30.5403 38.4048 30.5448 38.1713 30.5178 37.9064L31.2555 38.086L31.0935 37.3765L30.3469 37.1969C30.2434 36.896 30.104 36.6176 29.9196 36.3617C29.7352 36.1057 29.5328 35.8902 29.3034 35.7151C29.074 35.54 28.8401 35.4232 28.5972 35.3648C28.3049 35.293 28.0845 35.3065 27.936 35.4097C27.7876 35.5085 27.6887 35.6567 27.6482 35.8453C27.6032 36.0384 27.5807 36.2764 27.5762 36.5683L26.1774 36.227C26.1009 35.7645 26.1729 35.3693 26.3843 35.0415L25.6826 34.5835C25.5657 34.7452 25.4937 34.9472 25.4577 35.1897C25.4217 35.4322 25.4307 35.7061 25.4802 36.0114L24.7471 35.8318L24.909 36.5413L25.6556 36.7209C25.8176 37.1744 26.0514 37.5651 26.3618 37.8884C26.6677 38.2117 27.005 38.4183 27.3693 38.5036V38.5126ZM28.8491 36.2764C29.0245 36.3168 29.1819 36.4111 29.3259 36.5548C29.4698 36.6985 29.5823 36.8736 29.6677 37.0801L28.3723 36.7658C28.3948 36.5772 28.4398 36.4425 28.5118 36.3527C28.5837 36.2629 28.6962 36.2405 28.8536 36.2764H28.8491ZM26.3483 36.8511L27.5492 37.143C27.5357 37.3226 27.4953 37.4528 27.4368 37.5337C27.3738 37.6145 27.2749 37.637 27.1354 37.6055C26.96 37.5651 26.8071 37.4753 26.6721 37.3496C26.5372 37.2193 26.4293 37.0532 26.3483 36.8511Z" fill="#DF9800"/>
<path d="M28.9749 36.1868C29.1504 36.2272 29.3078 36.3215 29.4517 36.4652C29.5956 36.6089 29.7081 36.784 29.7935 36.9906L28.4982 36.6762C28.5207 36.4876 28.5656 36.3529 28.6376 36.2631C28.7096 36.1733 28.822 36.1509 28.9794 36.1868H28.9749ZM26.4741 36.7616L27.6751 37.0534C27.6616 37.233 27.6211 37.3633 27.5626 37.4441C27.4996 37.5249 27.4007 37.5474 27.2613 37.5159C27.0858 37.4755 26.9329 37.3857 26.798 37.26C26.663 37.1298 26.5551 36.9636 26.4741 36.7616ZM27.4907 38.423C27.774 38.4903 27.9854 38.4769 28.1293 38.3826C28.2733 38.2838 28.3632 38.1446 28.4037 37.965C28.4442 37.7809 28.4667 37.5429 28.4757 37.251L29.933 37.6057C29.969 37.9874 29.888 38.3152 29.6991 38.5846L30.4008 39.0427C30.5087 38.9169 30.5807 38.7463 30.6212 38.5308C30.6616 38.3152 30.6661 38.0817 30.6391 37.8168L31.3768 37.9964L31.2149 37.2869L30.4682 37.1073C30.3648 36.8065 30.2253 36.5281 30.0409 36.2721C29.8565 36.0162 29.6541 35.8006 29.4247 35.6255C29.1953 35.4504 28.9614 35.3336 28.7186 35.2753C28.4262 35.2034 28.2058 35.2169 28.0574 35.3202C27.909 35.4189 27.81 35.5671 27.7695 35.7557C27.7245 35.9488 27.7021 36.1868 27.6976 36.4787L26.2987 36.1374C26.2223 35.6749 26.2942 35.2797 26.5056 34.952L25.804 34.4939C25.687 34.6556 25.615 34.8577 25.5791 35.1001C25.5431 35.3426 25.5521 35.6165 25.6016 35.9219L24.8684 35.7423L25.0303 36.4517L25.777 36.6313C25.9389 37.0849 26.1728 37.4755 26.4831 37.7988C26.789 38.1221 27.1263 38.3287 27.4907 38.414V38.423Z" fill="#FFDE56"/>
<g style="mix-blend-mode:multiply">
<path d="M27.4864 31.8806C25.4309 31.1621 23.8657 32.0871 23.8252 34.238C23.7802 36.7346 25.7952 39.9363 28.332 41.3866C28.6064 41.5438 28.8718 41.6695 29.1326 41.7728C28.8043 41.6605 28.467 41.5034 28.1161 41.3058C25.5793 39.8554 23.5598 36.6538 23.6093 34.1572C23.6498 31.93 25.323 31.0184 27.4864 31.8806Z" fill="#DCC99E"/>
</g>
<g style="mix-blend-mode:multiply">
<path d="M32.4791 39.3345C32.5241 36.8378 30.5045 33.6407 27.9722 32.1858C27.5764 31.9568 27.1896 31.7862 26.8208 31.6694C27.2841 31.7817 27.7788 31.9793 28.2871 32.2711C30.8239 33.7215 32.8434 36.9231 32.7939 39.4198C32.7535 41.5482 31.2242 42.4777 29.2047 41.8041C31.0713 42.2891 32.4431 41.3506 32.4791 39.3345Z" fill="#DCC99E"/>
</g>
<path d="M26.2764 31.5751C24.7291 31.4314 23.6452 32.3699 23.6092 34.1616C23.5642 36.6582 25.5792 39.8598 28.116 41.3102C28.7322 41.6649 29.3259 41.8805 29.8702 41.9703C29.2585 41.9119 28.5748 41.6874 27.8551 41.2743C25.3184 39.8239 23.2988 36.6223 23.3483 34.1256C23.3843 32.2397 24.5897 31.2922 26.2764 31.5751Z" fill="#FCDE16"/>
<path d="M31.3904 44.0269L30.2075 44.9294C30.0366 44.9608 29.8612 44.9743 29.6768 44.9833L30.8597 44.0807C31.0441 44.0718 31.2195 44.0583 31.3904 44.0269Z" fill="#FCDE16"/>
<path d="M29.6498 43.9639L28.4668 44.8664C28.3544 44.8395 28.2374 44.8125 28.125 44.7766L29.3079 43.874C29.4249 43.91 29.5373 43.9369 29.6498 43.9639Z" fill="#FCDE16"/>
<path d="M28.395 43.5285L27.2121 44.431C27.1176 44.3861 27.0232 44.3457 26.9287 44.2963L28.1116 43.3938C28.2061 43.4432 28.3006 43.4836 28.395 43.5285Z" fill="#FCDE16"/>
<path d="M27.329 42.9446L26.1461 43.8472C26.0651 43.7933 25.9796 43.7394 25.8987 43.6855L27.0816 42.783C27.1626 42.8368 27.248 42.8907 27.329 42.9446Z" fill="#FCDE16"/>
<path d="M26.3844 42.2712L25.2015 43.1737C25.125 43.1153 25.053 43.057 24.9766 42.9941L26.1595 42.0916C26.2315 42.1544 26.3079 42.2128 26.3844 42.2712Z" fill="#FCDE16"/>
<path d="M25.5343 41.5301L24.3513 42.4327C24.2839 42.3698 24.2164 42.3025 24.1489 42.2351L25.3319 41.3325C25.3993 41.3999 25.4668 41.4628 25.5343 41.5301Z" fill="#FCDE16"/>
<path d="M24.7563 40.7264L23.5733 41.629C23.5104 41.5616 23.4519 41.4898 23.3889 41.4179L24.5718 40.5154C24.6303 40.5872 24.6933 40.6591 24.7563 40.7264Z" fill="#FCDE16"/>
<path d="M24.0544 39.8688L22.8715 40.7714C22.813 40.695 22.7591 40.6232 22.7051 40.5468L23.888 39.6443C23.942 39.7206 23.996 39.7925 24.0544 39.8688Z" fill="#FCDE16"/>
<path d="M23.4202 38.9618L22.2373 39.8644C22.1878 39.7836 22.1383 39.7072 22.0889 39.6264L23.2718 38.7239C23.3213 38.8047 23.3708 38.881 23.4202 38.9618Z" fill="#FCDE16"/>
<path d="M22.8537 37.9963L21.6707 38.8989C21.6257 38.8136 21.5808 38.7327 21.5403 38.6474L22.7232 37.7449C22.7637 37.8302 22.8087 37.911 22.8537 37.9963Z" fill="#FCDE16"/>
<path d="M22.3678 36.9725L21.1849 37.875C21.1489 37.7852 21.1084 37.6954 21.0769 37.6056L22.2598 36.7031C22.2958 36.7929 22.3318 36.8827 22.3678 36.9725Z" fill="#FCDE16"/>
<path d="M21.9719 35.8814L20.789 36.7839C20.762 36.6896 20.7305 36.5908 20.708 36.4966L21.8909 35.594C21.9179 35.6883 21.9449 35.7871 21.9719 35.8814Z" fill="#FCDE16"/>
<path d="M21.6932 34.6959L20.5103 35.5985C20.4923 35.4907 20.4788 35.3874 20.4653 35.2842L21.6483 34.3816C21.6618 34.4849 21.6753 34.5926 21.6932 34.6959Z" fill="#FCDE16"/>
<path d="M21.5987 33.3758L20.4158 34.2784C20.4158 34.1526 20.4248 34.0314 20.4338 33.9102L21.6167 33.0076C21.6077 33.1288 21.5987 33.2501 21.5987 33.3758Z" fill="#FCDE16"/>
<path d="M21.8822 31.7682L20.6992 32.6707C20.7757 32.4687 20.8656 32.2846 20.9691 32.1139L22.152 31.2114C22.0486 31.382 21.9586 31.5706 21.8822 31.7682Z" fill="#FCDE16"/>
<path d="M29.6272 29.7744C29.7352 29.7744 29.8207 29.6891 29.8207 29.5813V24.6599C29.8207 24.5521 29.7352 24.4668 29.6272 24.4668C29.5193 24.4668 29.4338 24.5521 29.4338 24.6599V29.5813C29.4338 29.6891 29.5193 29.7744 29.6272 29.7744Z" fill="#B3D7DD"/>
<path d="M27.8101 28.9977C27.9181 28.9977 28.0035 28.9124 28.0035 28.8046V26.0835C28.0035 25.9757 27.9181 25.8904 27.8101 25.8904C27.7022 25.8904 27.6167 25.9757 27.6167 26.0835V28.8046C27.6167 28.9124 27.7022 28.9977 27.8101 28.9977Z" fill="#B3D7DD"/>
<path d="M37.0352 28.3779L36.0862 27.1565L36.4685 26.7703C36.3695 25.8857 36.5495 24.826 37.0577 23.672C38.578 20.1965 42.4506 17.1251 45.6891 16.8332C46.1614 16.7883 46.5976 16.8107 46.989 16.8871L47.2768 16.6401L48.3113 17.7357C49.4043 18.7236 49.7326 20.4749 48.7746 22.6706C47.2543 26.1462 43.4132 29.1592 40.1747 29.4511C38.7534 29.5813 37.7144 29.1951 37.0397 28.3823L37.0352 28.3779Z" fill="#FCDE16"/>
<g style="mix-blend-mode:multiply">
<path d="M37.0352 28.3779L36.0862 27.1565L36.4685 26.7703C36.3695 25.8857 36.5495 24.826 37.0577 23.672C38.578 20.1965 42.4506 17.1251 45.6891 16.8332C46.1614 16.7883 46.5976 16.8107 46.989 16.8871L47.2768 16.6401L48.3113 17.7357C49.4043 18.7236 49.7326 20.4749 48.7746 22.6706C47.2543 26.1462 43.4132 29.1592 40.1747 29.4511C38.7534 29.5813 37.7369 29.2086 37.0397 28.3824L37.0352 28.3779Z" fill="#DCC99E"/>
</g>
<path d="M44.8044 25.2496C47.8531 22.3431 48.9616 18.562 47.2803 16.8044C45.599 15.0467 41.7646 15.9781 38.7159 18.8846C35.6672 21.7911 34.5587 25.5721 36.24 27.3297C37.9213 29.0874 41.7557 28.1561 44.8044 25.2496Z" fill="#FCDE16"/>
<path d="M44.7533 25.0511C47.802 22.1446 48.9105 18.3636 47.2293 16.6059C45.548 14.8483 41.7136 15.7796 38.6649 18.6861C35.6162 21.5926 34.5077 25.3736 36.189 27.1313C37.8703 28.8889 41.7047 27.9576 44.7533 25.0511Z" fill="#FCDE16"/>
<g style="mix-blend-mode:multiply">
<path d="M35.8074 22.8728L37.2917 22.6214C36.8779 23.7574 36.8734 24.8216 37.3771 25.567C38.4116 27.0848 41.1913 26.6627 43.5841 24.624C44.8076 23.5778 45.6981 22.3115 46.1299 21.1216L47.6142 20.8701C46.3908 24.2199 42.7565 27.3901 39.4956 27.9424C36.2347 28.4947 34.584 26.2271 35.8119 22.8773L35.8074 22.8728Z" fill="#EEE5D1"/>
</g>
<g style="mix-blend-mode:multiply">
<path d="M43.9892 24.2524C46.2726 22.0755 47.1028 19.2436 45.8436 17.9271C44.5843 16.6107 41.7125 17.3082 39.4291 19.4851C37.1457 21.662 36.3155 24.4939 37.5747 25.8103C38.834 27.1268 41.7058 26.4292 43.9892 24.2524Z" fill="#DCC99E"/>
</g>
<path d="M42.6889 22.9222C42.8463 22.6932 42.9048 22.4956 42.8643 22.334C42.8238 22.1723 42.7294 22.0421 42.5809 21.9478C42.428 21.849 42.2256 21.7502 41.9647 21.6469L42.7698 20.457C43.1252 20.5513 43.395 20.7309 43.575 20.9958L44.2226 20.5199C44.1417 20.3807 44.0157 20.2594 43.8358 20.1517C43.6559 20.0439 43.4445 19.9586 43.2016 19.9002L43.6109 19.2985L42.9183 19.2087L42.5045 19.8194C42.1986 19.8104 41.9018 19.8463 41.6094 19.9226C41.317 20.0035 41.0562 20.1157 40.8223 20.2594C40.5884 20.4076 40.4085 20.5782 40.2735 20.7758C40.1116 21.0138 40.0531 21.2159 40.0936 21.382C40.1341 21.5481 40.2331 21.6829 40.3905 21.7861C40.5479 21.8894 40.7593 21.9927 41.0202 22.096L40.2466 23.2365C39.8058 23.1512 39.4729 22.9581 39.248 22.6573L38.6003 23.1332C38.7038 23.2904 38.8612 23.4251 39.0726 23.5374C39.2795 23.6496 39.5314 23.7349 39.8193 23.7933L39.4145 24.3905L40.1071 24.4803L40.5209 23.8697C40.9842 23.8741 41.416 23.7933 41.8073 23.6227C42.1986 23.4521 42.4955 23.223 42.6979 22.9222H42.6889ZM41.1686 20.8477C41.2631 20.704 41.4025 20.5917 41.5779 20.5109C41.7533 20.4301 41.9467 20.3851 42.1671 20.3807L41.452 21.4404C41.2901 21.3596 41.1821 21.2697 41.1236 21.1799C41.0697 21.0856 41.0832 20.9779 41.1686 20.8477ZM40.8538 23.2814L41.5194 22.298C41.6769 22.3699 41.7803 22.4507 41.8343 22.5315C41.8883 22.6124 41.8748 22.7111 41.7983 22.8279C41.7039 22.9716 41.5734 23.0794 41.4115 23.1557C41.2496 23.232 41.0652 23.2724 40.8538 23.2814Z" fill="#DF9800"/>
<path d="M41.1237 20.7039C41.2181 20.5602 41.3576 20.4479 41.533 20.3671C41.7084 20.2863 41.9018 20.2414 42.1222 20.2369L41.4071 21.2966C41.2451 21.2158 41.1372 21.126 41.0787 21.0362C41.0247 20.9419 41.0382 20.8341 41.1237 20.7039ZM40.8088 23.1376L41.4745 22.1543C41.6319 22.2261 41.7354 22.3069 41.7894 22.3878C41.8433 22.4686 41.8299 22.5674 41.7534 22.6841C41.6589 22.8278 41.5285 22.9356 41.3666 23.0119C41.2047 23.0883 41.0202 23.1287 40.8088 23.1376ZM42.644 22.7784C42.8014 22.5494 42.8599 22.3518 42.8194 22.1902C42.7789 22.0285 42.6844 21.8983 42.536 21.804C42.3831 21.7052 42.1807 21.6064 41.9198 21.5032L42.7249 20.3132C43.0803 20.4075 43.3501 20.5871 43.53 20.8521L44.1777 20.3761C44.0968 20.2369 43.9708 20.1156 43.7909 20.0079C43.611 19.9001 43.3996 19.8148 43.1567 19.7564L43.566 19.1547L42.8734 19.0649L42.4595 19.6756C42.1537 19.6666 41.8568 19.7025 41.5645 19.7789C41.2721 19.8597 41.0112 19.972 40.7774 20.1156C40.5435 20.2638 40.3636 20.4345 40.2286 20.632C40.0667 20.87 40.0082 21.0721 40.0487 21.2382C40.0892 21.4044 40.1881 21.5391 40.3456 21.6424C40.503 21.7456 40.7144 21.8489 40.9753 21.9522L40.2016 23.0927C39.7608 23.0074 39.428 22.8143 39.2031 22.5135L38.5554 22.9895C38.6589 23.1466 38.8163 23.2813 39.0277 23.3936C39.2346 23.5059 39.4865 23.5912 39.7743 23.6495L39.3695 24.2468L40.0622 24.3366L40.476 23.7259C40.9393 23.7304 41.3711 23.6495 41.7624 23.4789C42.1537 23.3083 42.4506 23.0793 42.653 22.7784H42.644Z" fill="#FFDE56"/>
<g style="mix-blend-mode:multiply">
<path d="M37.1521 23.0435C36.6843 25.0507 37.7188 26.4292 39.7564 26.2451C42.1177 26.0341 44.9289 23.8024 46.0354 21.2698C46.1523 20.9959 46.2468 20.7355 46.3187 20.4795C46.2468 20.7983 46.1343 21.1351 45.9814 21.4809C44.8749 24.0179 42.0593 26.2451 39.7024 26.4562C37.5974 26.6448 36.5629 25.1675 37.1521 23.0435Z" fill="#DCC99E"/>
</g>
<g style="mix-blend-mode:multiply">
<path d="M43.6651 17.5786C41.3083 17.7941 38.4971 20.0213 37.3862 22.5539C37.2107 22.949 37.0893 23.3307 37.0173 23.6899C37.0758 23.2454 37.2107 22.7604 37.4356 22.2485C38.5421 19.7115 41.3578 17.4843 43.7146 17.2732C45.7252 17.0936 46.7597 18.4317 46.3324 20.403C46.5977 18.5979 45.5677 17.4035 43.6651 17.5786Z" fill="#DCC99E"/>
</g>
<path d="M36.9858 24.2153C37.0082 25.6837 38.0068 26.6087 39.7025 26.456C42.0638 26.245 44.875 24.0133 45.9814 21.4807C46.2513 20.861 46.3952 20.2863 46.4222 19.7654C46.4312 20.3447 46.2873 21.0137 45.9724 21.7322C44.866 24.2692 42.0503 26.4964 39.6935 26.7075C37.9078 26.8691 36.8958 25.8319 36.9858 24.2198V24.2153Z" fill="#FCDE16"/>
<path d="M48.2078 18.1221L49.1838 19.1414C49.2288 19.2986 49.2648 19.4647 49.2872 19.6354L48.3112 18.616C48.2842 18.4454 48.2527 18.2793 48.2078 18.1221Z" fill="#FCDE16"/>
<path d="M48.3293 19.7654L49.3053 20.7847C49.2918 20.8925 49.2783 21.0047 49.2558 21.117L48.2798 20.0977C48.2978 19.9854 48.3158 19.8732 48.3293 19.7654Z" fill="#FCDE16"/>
<path d="M48.046 20.9912L49.022 22.0105C48.9905 22.1048 48.959 22.1946 48.9231 22.2889L47.947 21.2696C47.983 21.1753 48.0145 21.081 48.046 20.9912Z" fill="#FCDE16"/>
<path d="M47.6054 22.051L48.5812 23.0703C48.5407 23.1556 48.5003 23.2364 48.4553 23.3218L47.4792 22.3024C47.5242 22.2216 47.5649 22.1363 47.6054 22.051Z" fill="#FCDE16"/>
<path d="M47.0698 23.0076L48.0458 24.0269C47.9964 24.1033 47.9514 24.1796 47.8974 24.2559L46.9214 23.2366C46.9709 23.1603 47.0203 23.0839 47.0698 23.0076Z" fill="#FCDE16"/>
<path d="M46.4582 23.8877L47.4342 24.907C47.3802 24.9789 47.3263 25.0462 47.2678 25.1181L46.2917 24.0988C46.3457 24.0269 46.4042 23.9596 46.4582 23.8877Z" fill="#FCDE16"/>
<path d="M45.779 24.7004L46.7551 25.7197C46.6966 25.787 46.6336 25.8499 46.5752 25.9128L45.5991 24.8935C45.6576 24.8306 45.7206 24.7632 45.779 24.7004Z" fill="#FCDE16"/>
<path d="M45.0459 25.4502L46.022 26.4695C45.959 26.5278 45.8915 26.5907 45.8286 26.6491L44.8525 25.6298C44.92 25.5714 44.983 25.513 45.0459 25.4502Z" fill="#FCDE16"/>
<path d="M44.2496 26.1418L45.2257 27.1611C45.1582 27.215 45.0862 27.2734 45.0188 27.3272L44.0427 26.3079C44.1147 26.254 44.1822 26.2002 44.2496 26.1418Z" fill="#FCDE16"/>
<path d="M43.3997 26.7705L44.3757 27.7898C44.2993 27.8392 44.2273 27.8886 44.1508 27.938L43.1748 26.9187C43.2513 26.8693 43.3232 26.8199 43.3997 26.7705Z" fill="#FCDE16"/>
<path d="M42.4865 27.3318L43.4626 28.3511C43.3816 28.396 43.3006 28.4409 43.2197 28.4814L42.2437 27.462C42.3246 27.4216 42.4056 27.3767 42.4865 27.3318Z" fill="#FCDE16"/>
<path d="M41.4927 27.8167L42.4687 28.8358C42.3787 28.8717 42.2933 28.9077 42.2033 28.9436L41.2273 27.9244C41.3173 27.8885 41.4027 27.8526 41.4927 27.8167Z" fill="#FCDE16"/>
<path d="M40.4086 28.1985L41.3846 29.2178C41.2857 29.2447 41.1867 29.2717 41.0922 29.2941L40.1162 28.2748C40.2152 28.2523 40.3141 28.2254 40.4086 28.1985Z" fill="#FCDE16"/>
<path d="M39.1718 28.4275L40.1478 29.4468C40.0309 29.4558 39.9139 29.4647 39.8015 29.4647L38.8254 28.4454C38.9379 28.4454 39.0548 28.4364 39.1718 28.4275Z" fill="#FCDE16"/>
<path d="M37.6245 28.3287L38.6006 29.348C38.4027 29.2986 38.2182 29.2312 38.0473 29.1504L37.0713 28.1311C37.2467 28.2119 37.4311 28.2793 37.6245 28.3287Z" fill="#FCDE16"/>
<path d="M43.0982 14.3141C43.2017 14.3141 43.2826 14.2333 43.2826 14.13V1.24269C43.2826 1.13939 43.2017 1.05859 43.0982 1.05859C42.9948 1.05859 42.9138 1.13939 42.9138 1.24269V14.13C42.9138 14.2333 42.9948 14.3141 43.0982 14.3141Z" fill="#B3D7DD"/>
<path d="M40.764 14.9294C40.8675 14.9294 40.9484 14.8485 40.9484 14.7453V4.06716C40.9484 3.96386 40.8675 3.88306 40.764 3.88306C40.6605 3.88306 40.5796 3.96386 40.5796 4.06716V14.7453C40.5796 14.8485 40.6605 14.9294 40.764 14.9294Z" fill="#B3D7DD"/>
<path d="M45.3158 14.193C45.4192 14.193 45.5002 14.1121 45.5002 14.0089V10.5738C45.5002 10.4705 45.4192 10.3896 45.3158 10.3896C45.2123 10.3896 45.1313 10.4705 45.1313 10.5738V14.0089C45.1313 14.1121 45.2123 14.193 45.3158 14.193Z" fill="#B3D7DD"/>
</g>
</g>
<defs>
<clipPath id="clip0_1148_4912">
<rect width="217" height="71" fill="white" transform="translate(0 0.5)"/>
</clipPath>
</defs>
</svg>
