<svg width="201" height="200" viewBox="0 0 201 200" fill="none" xmlns="http://www.w3.org/2000/svg">
<path d="M60.6115 46.5765C60.124 45.9229 59.5931 45.3029 59.0225 44.7205C58.4725 44.154 57.8285 43.5485 57.0725 42.907V42.9255C57.0728 43.2105 57.0089 43.4919 56.8857 43.7488C56.7624 44.0058 56.5829 44.2318 56.3605 44.41C56.8564 44.7913 57.212 45.3261 57.3716 45.931C57.5313 46.5358 57.4861 47.1764 57.2431 47.7528C57.0001 48.3292 56.5729 48.8089 56.0284 49.1168C55.4839 49.4247 54.8527 49.5435 54.2335 49.4547C53.6143 49.3659 53.042 49.0744 52.606 48.6258C52.1701 48.1773 51.895 47.5969 51.8238 46.9754C51.7526 46.3539 51.8893 45.7264 52.2126 45.1909C52.5359 44.6553 53.0275 44.242 53.6105 44.0155C53.4325 43.7619 53.3193 43.4687 53.2805 43.1613C53.2418 42.8539 53.2788 42.5418 53.3884 42.252C53.4979 41.9622 53.6767 41.7036 53.909 41.4987C54.1414 41.2938 54.4203 41.1489 54.7215 41.0765C52.83 39.713 50.459 38.229 47.4865 36.6525C47.334 36.9391 47.1243 37.1913 46.8703 37.3935C46.6163 37.5958 46.3235 37.7437 46.0101 37.8282C45.6966 37.9126 45.3691 37.9318 45.0479 37.8846C44.7267 37.8374 44.4187 37.7247 44.1428 37.5535C43.8669 37.3824 43.6291 37.1564 43.4441 36.8896C43.2592 36.6228 43.1309 36.3209 43.0674 36.0025C43.0038 35.6841 43.0064 35.3561 43.0748 35.0387C43.1432 34.7213 43.276 34.4214 43.465 34.1575C32.955 26.464 33.5375 16.085 33.5375 16.085C26.8085 32.6165 28.025 46.358 30.9785 56.0315C31.5237 55.4408 32.2074 54.9954 32.9678 54.7353C33.7283 54.4752 34.5416 54.4087 35.3343 54.5417C36.1269 54.6748 36.8739 55.0033 37.5078 55.4975C38.1416 55.9917 38.6423 56.636 38.9647 57.3723C39.287 58.1085 39.4209 58.9135 39.3541 59.7145C39.2873 60.5154 39.022 61.2871 38.5821 61.9598C38.1423 62.6325 37.5417 63.185 36.8348 63.5674C36.1279 63.9498 35.3368 64.15 34.533 64.15C34.4215 64.15 34.31 64.1455 34.2005 64.138C34.9501 65.6411 35.7748 67.1056 36.6715 68.526C38.759 71.845 41.6475 74.615 41.6475 74.615L56.185 71.5405C56.335 71.317 56.641 69.85 56.8175 61.9495C56.953 55.8805 59.4845 51.975 62.177 49.834C62.177 49.835 62.1325 48.636 60.6115 46.5765Z" fill="url(#paint0_linear_257_7183)"/>
<path opacity="0.11" d="M61.2965 47.6002C52.4661 54.4164 45.2279 63.0758 40.086 72.9752L39.2215 71.9797C47.839 53.8397 60.612 46.5747 60.612 46.5747L61.2965 47.6002Z" fill="black"/>
<path d="M30.65 47.1001C30.6577 47.0615 30.6729 47.0247 30.6948 46.992C30.7168 46.9592 30.7449 46.9311 30.7777 46.9092C30.8105 46.8874 30.8472 46.8722 30.8859 46.8645C30.9245 46.8568 30.9643 46.8569 31.003 46.8646L39.6645 48.5936C37.3975 45.1086 35.6725 41.4256 34.5245 37.6126C33.268 33.4386 32.949 29.8776 32.903 27.6251C32.853 25.1751 33.0985 23.7336 33.109 23.6751C33.1254 23.5998 33.1702 23.5337 33.234 23.4905C33.2979 23.4473 33.3759 23.4303 33.4519 23.4431C33.5279 23.4559 33.5961 23.4975 33.6423 23.5592C33.6885 23.6209 33.7091 23.6981 33.7 23.7746C33.7 23.7886 33.45 25.2381 33.5035 27.6411C33.551 29.8576 33.8755 33.3621 35.1165 37.4706C36.7165 42.7666 40.092 49.8291 47.2915 56.8206V45.0206C47.2915 44.941 47.3231 44.8647 47.3793 44.8085C47.4356 44.7522 47.5119 44.7206 47.5915 44.7206C47.671 44.7206 47.7473 44.7522 47.8036 44.8085C47.8599 44.8647 47.8915 44.941 47.8915 45.0206V57.4001C50.4115 59.7961 53.399 62.1781 56.913 64.4716C56.9793 64.516 57.0252 64.5848 57.0408 64.6631C57.0563 64.7413 57.0401 64.8226 56.9957 64.8889C56.9514 64.9552 56.8825 65.0011 56.8042 65.0166C56.726 65.0322 56.6448 65.016 56.5785 64.9716C53.2201 62.7796 50.1945 60.4163 47.5015 57.8816C47.4523 57.8688 47.4072 57.8438 47.3704 57.8088C47.3336 57.7738 47.3063 57.73 47.291 57.6816C45.1078 55.6165 43.1068 53.3668 41.3105 50.9576C40.9035 50.4103 40.5115 49.8578 40.1345 49.3001L30.887 47.4501C30.8093 47.4349 30.7408 47.3895 30.6964 47.3239C30.652 47.2584 30.6353 47.1779 30.65 47.1001Z" fill="url(#paint1_linear_257_7183)"/>
<path d="M184.372 108.121C184.372 150.321 150.16 184.536 107.957 184.536C90.526 184.536 74.4565 178.7 61.601 168.875C57.558 165.785 53.8317 162.301 50.477 158.475C50.271 158.242 50.0665 158.006 49.8635 157.767C46.9504 154.362 44.3417 150.708 42.0675 146.848C41.8939 146.554 41.7224 146.258 41.553 145.961C35.182 134.806 31.5415 121.889 31.5415 108.122C31.5372 101.875 32.2972 95.651 33.8045 89.5886C34.529 86.6803 35.4254 83.8176 36.489 81.0156C37.317 78.8336 38.2407 76.7003 39.26 74.6156C39.529 74.0649 39.8044 73.5184 40.086 72.9761C45.2278 63.0764 52.466 54.4166 61.2965 47.6001C61.5859 47.3761 61.8772 47.1543 62.1705 46.9346C74.931 37.3706 90.7825 31.7046 107.957 31.7046C150.16 31.7061 184.372 65.9186 184.372 108.121Z" fill="url(#paint2_linear_257_7183)"/>
<path d="M125.217 83.3221V143.653C125.217 144.265 124.973 144.852 124.541 145.284C124.108 145.717 123.521 145.96 122.91 145.96H41.553C36.7419 137.541 33.5889 128.278 32.2645 118.673C30.9264 108.968 31.449 99.0969 33.8045 89.5876C34.529 86.6794 35.4254 83.8167 36.489 81.0146H122.909C123.521 81.0146 124.108 81.2578 124.541 81.6905C124.973 82.1232 125.217 82.7102 125.217 83.3221Z" fill="white"/>
<path d="M170.963 96.809C170.126 95.9024 169.076 95.2186 167.908 94.8194C166.741 94.4202 165.492 94.3182 164.275 94.5227C163.058 94.7271 161.911 95.2316 160.938 95.9904C159.965 96.7493 159.197 97.7386 158.702 98.869C158.207 99.9995 158.001 101.235 158.104 102.465C158.207 103.695 158.614 104.88 159.289 105.912C159.965 106.945 160.887 107.793 161.972 108.381C163.057 108.968 164.272 109.275 165.506 109.275C165.678 109.275 165.848 109.269 166.017 109.258C162.342 116.647 158.879 120.677 158.879 120.677C158.879 120.677 148.059 132.941 130.938 138.143L125.403 133.661C125.403 133.661 125.488 118.023 125.217 105.893C125.008 96.5745 125.217 83.322 125.217 83.322C125.217 83.322 123.197 83.7045 129.453 77.9385C129.904 77.5225 130.387 77.0957 130.903 76.658V76.6865C130.902 77.124 131 77.556 131.19 77.9504C131.379 78.3448 131.654 78.6916 131.996 78.965C131.234 79.5503 130.688 80.3715 130.443 81.3002C130.197 82.2289 130.266 83.2128 130.639 84.098C131.012 84.9833 131.668 85.72 132.504 86.1929C133.34 86.6659 134.309 86.8486 135.26 86.7123C136.211 86.576 137.09 86.1284 137.76 85.4397C138.429 84.7509 138.852 83.8596 138.961 82.9053C139.07 81.9509 138.86 80.9872 138.364 80.1649C137.867 79.3425 137.112 78.7078 136.217 78.36C136.489 77.9705 136.662 77.5204 136.721 77.0488C136.78 76.5773 136.723 76.0984 136.555 75.6539C136.387 75.2093 136.113 74.8124 135.757 74.4976C135.401 74.1829 134.974 73.9597 134.512 73.8475C137.416 71.7535 141.056 69.475 145.62 67.0555C145.853 67.4964 146.175 67.8844 146.565 68.1957C146.955 68.5069 147.405 68.7347 147.887 68.8648C148.369 68.995 148.872 69.0247 149.366 68.9523C149.859 68.8798 150.333 68.7066 150.757 68.4435C151.181 68.1804 151.546 67.8329 151.83 67.4227C152.114 67.0125 152.311 66.5483 152.408 66.0588C152.506 65.5694 152.501 65.0652 152.395 64.5776C152.29 64.0899 152.085 63.6292 151.794 63.224C167.929 51.4135 167.034 35.478 167.034 35.478C177.366 60.8595 175.5 81.957 170.963 96.809Z" fill="url(#paint3_linear_257_7183)"/>
<path d="M171.466 83.0942C171.441 82.9745 171.371 82.8692 171.269 82.8015C171.168 82.7337 171.043 82.709 170.924 82.7327L157.624 85.3872C161.105 80.0372 163.753 74.3822 165.515 68.5277C167.445 62.1192 167.934 56.6517 168.005 53.1937C168.082 49.4337 167.705 47.2187 167.689 47.1262C167.668 47.0059 167.6 46.8988 167.5 46.8285C167.4 46.7582 167.276 46.7305 167.156 46.7515C167.035 46.7724 166.928 46.8403 166.858 46.9402C166.788 47.0401 166.76 47.1639 166.781 47.2842C166.785 47.3062 167.162 49.5312 167.081 53.2207C167.008 56.6237 166.51 62.0042 164.605 68.3122C162.149 76.4427 156.966 87.2862 145.912 98.0227V79.9067C145.908 79.7871 145.857 79.6738 145.771 79.5906C145.685 79.5074 145.57 79.4609 145.451 79.4609C145.331 79.4609 145.216 79.5074 145.13 79.5906C145.044 79.6738 144.994 79.7871 144.99 79.9067V98.9067C141.122 102.585 136.535 106.242 131.14 109.764C131.09 109.797 131.047 109.84 131.013 109.89C130.979 109.94 130.956 109.997 130.944 110.056C130.932 110.115 130.932 110.176 130.944 110.235C130.955 110.295 130.979 110.351 131.012 110.401C131.055 110.465 131.112 110.518 131.18 110.554C131.248 110.591 131.324 110.61 131.401 110.61C131.491 110.61 131.578 110.584 131.654 110.535C136.81 107.168 141.455 103.54 145.59 99.6492C145.665 99.6297 145.734 99.5915 145.79 99.5381C145.847 99.4846 145.889 99.4178 145.913 99.3437C149.358 96.0677 152.419 92.6265 155.095 89.0202C155.719 88.1782 156.322 87.3282 156.903 86.4702L171.103 83.6362C171.162 83.6245 171.218 83.6012 171.269 83.5676C171.319 83.534 171.363 83.4908 171.396 83.4404C171.43 83.3901 171.454 83.3336 171.465 83.2742C171.477 83.2148 171.477 83.1536 171.466 83.0942Z" fill="url(#paint4_linear_257_7183)"/>
<path d="M53.1045 17.9811C54.5098 17.9811 55.649 16.8419 55.649 15.4366C55.649 14.0313 54.5098 12.8921 53.1045 12.8921C51.6992 12.8921 50.56 14.0313 50.56 15.4366C50.56 16.8419 51.6992 17.9811 53.1045 17.9811Z" fill="url(#paint5_linear_257_7183)"/>
<path d="M58.9965 21.9319C59.536 21.3924 59.536 20.5177 58.9965 19.9782C58.457 19.4387 57.5823 19.4387 57.0428 19.9782C56.5033 20.5177 56.5033 21.3924 57.0428 21.9319C57.5823 22.4715 58.457 22.4715 58.9965 21.9319Z" fill="url(#paint6_linear_257_7183)"/>
<path d="M57.9556 38.9483C59.1654 38.4472 59.7399 37.0602 59.2388 35.8504C58.7376 34.6407 57.3507 34.0662 56.1409 34.5673C54.9311 35.0684 54.3566 36.4553 54.8577 37.6651C55.3588 38.8749 56.7458 39.4494 57.9556 38.9483Z" fill="url(#paint7_linear_257_7183)"/>
<path d="M26.6191 73.9156C27.8779 73.5549 28.6059 72.242 28.2452 70.9832C27.8845 69.7244 26.5716 68.9964 25.3128 69.3571C24.054 69.7178 23.3259 71.0307 23.6866 72.2895C24.0474 73.5483 25.3602 74.2764 26.6191 73.9156Z" fill="url(#paint8_linear_257_7183)"/>
<path d="M20.1392 71.1785C21.7649 69.5528 21.7649 66.9169 20.1392 65.2912C18.5134 63.6654 15.8775 63.6654 14.2518 65.2912C12.626 66.9169 12.626 69.5528 14.2518 71.1785C15.8775 72.8043 18.5134 72.8043 20.1392 71.1785Z" fill="url(#paint9_linear_257_7183)"/>
<path d="M130.939 69.7835C132.812 69.7835 134.33 68.2651 134.33 66.392C134.33 64.5189 132.812 63.0005 130.939 63.0005C129.065 63.0005 127.547 64.5189 127.547 66.392C127.547 68.2651 129.065 69.7835 130.939 69.7835Z" fill="url(#paint10_linear_257_7183)"/>
<path d="M122.73 58.2349C123.54 57.7345 123.79 56.6724 123.29 55.8627C122.789 55.053 121.727 54.8024 120.918 55.3028C120.108 55.8033 119.857 56.8654 120.358 57.675C120.858 58.4847 121.92 58.7354 122.73 58.2349Z" fill="url(#paint11_linear_257_7183)"/>
<path d="M185.725 110.825C188.377 108.174 188.377 103.875 185.725 101.224C183.074 98.572 178.775 98.572 176.123 101.224C173.472 103.875 173.472 108.174 176.123 110.825C178.775 113.477 183.074 113.477 185.725 110.825Z" fill="url(#paint12_linear_257_7183)"/>
<path d="M148.988 59.5842C150.535 59.2189 151.494 57.668 151.129 56.1202C150.763 54.5724 149.212 53.6139 147.665 53.9792C146.117 54.3445 145.158 55.8953 145.524 57.4431C145.889 58.9909 147.44 59.9495 148.988 59.5842Z" fill="url(#paint13_linear_257_7183)"/>
<path d="M46.0676 166.964C46.8815 166.775 47.3876 165.961 47.198 165.148C47.0085 164.334 46.1951 163.828 45.3813 164.017C44.5675 164.207 44.0614 165.02 44.2509 165.834C44.4404 166.648 45.2538 167.154 46.0676 166.964Z" fill="url(#paint14_linear_257_7183)"/>
<path d="M41.553 187.345C44.6916 187.345 47.236 184.8 47.236 181.662C47.236 178.523 44.6916 175.979 41.553 175.979C38.4144 175.979 35.87 178.523 35.87 181.662C35.87 184.8 38.4144 187.345 41.553 187.345Z" fill="url(#paint15_linear_257_7183)"/>
<path opacity="0.11" d="M137.953 135.503C137.953 135.503 138.568 124.683 126.883 119.745V80.3286L125.096 82.5841V120.781L136.326 136.207L137.953 135.503Z" fill="black"/>
<mask id="mask0_257_7183" style="mask-type:luminance" maskUnits="userSpaceOnUse" x="31" y="81" width="95" height="65">
<path style="mix-blend-mode:multiply" d="M125.217 83.3221V143.653C125.217 144.265 124.973 144.852 124.541 145.284C124.108 145.717 123.521 145.96 122.91 145.96H41.553C36.7419 137.541 33.5889 128.278 32.2645 118.673C30.9264 108.968 31.449 99.0969 33.8045 89.5876C34.529 86.6794 35.4254 83.8167 36.489 81.0146H122.909C123.521 81.0146 124.108 81.2578 124.541 81.6905C124.973 82.1232 125.217 82.7102 125.217 83.3221Z" fill="url(#paint16_linear_257_7183)"/>
</mask>
<g mask="url(#mask0_257_7183)">
<path d="M125.217 83.3221V143.653C125.217 144.265 124.973 144.852 124.541 145.284C124.108 145.717 123.521 145.96 122.91 145.96H41.553C36.7419 137.541 33.5889 128.278 32.2645 118.673C30.9264 108.968 31.449 99.0969 33.8045 89.5876C34.529 86.6794 35.4254 83.8167 36.489 81.0146H122.909C123.521 81.0146 124.108 81.2578 124.541 81.6905C124.973 82.1232 125.217 82.7102 125.217 83.3221Z" fill="url(#paint17_linear_257_7183)"/>
</g>
<path opacity="0.11" d="M125.217 117.014V143.653C125.217 144.265 124.973 144.852 124.541 145.284C124.108 145.717 123.521 145.96 122.91 145.96H97.483C96.4227 143.341 95.8794 140.541 95.883 137.715C95.883 128.868 101.114 121.242 108.651 117.762C113.864 115.365 119.808 115.096 125.217 117.012V117.014Z" fill="black"/>
<path d="M68.494 127.25C68.494 127.25 63.3555 132.831 49.366 132.831C42.525 132.831 37.801 131.496 34.759 130.131C33.6334 126.381 32.7994 122.55 32.2645 118.672C35.4085 112.415 41.886 108.122 49.3645 108.122C59.93 108.121 68.494 116.685 68.494 127.25Z" fill="#FF858B"/>
<path opacity="0.11" d="M43.441 145.96H41.553C35.182 134.805 31.5415 121.888 31.5415 108.121C31.5372 101.874 32.2972 95.6501 33.8045 89.5876C34.529 86.6794 35.4254 83.8167 36.489 81.0146H38.394C38.394 81.0146 36.956 84.1466 35.6555 89.5876C32.9575 100.883 30.8525 122.129 43.441 145.96ZM43.682 108.98C43.682 108.98 45.389 111.736 49.366 111.736C53.343 111.736 55.05 108.98 55.05 108.98H43.682Z" fill="black"/>
<path d="M49.366 110.831C54.6986 110.831 59.0215 106.508 59.0215 101.175C59.0215 95.8424 54.6986 91.5195 49.366 91.5195C44.0334 91.5195 39.7105 95.8424 39.7105 101.175C39.7105 106.508 44.0334 110.831 49.366 110.831Z" fill="#FF858B"/>
<path d="M77.18 87.8994H119.477V91.5199H77.18V87.8994ZM77.18 95.6349H119.477V99.2554H77.18V95.6349ZM77.18 103.37H98.3285V106.99H77.18V103.37Z" fill="#92AAFF"/>
<path d="M117.851 156.252C128.088 156.252 136.387 147.953 136.387 137.715C136.387 127.478 128.088 119.179 117.851 119.179C107.613 119.179 99.314 127.478 99.314 137.715C99.314 147.953 107.613 156.252 117.851 156.252Z" fill="#5572FF"/>
<path d="M114.872 145.142L107.797 138.067L109.618 136.245L114.872 141.499L126.083 130.288L127.904 132.11L114.872 145.142Z" fill="white"/>
<path d="M71.5295 138.481C72.9977 138.481 74.188 137.291 74.188 135.823C74.188 134.354 72.9977 133.164 71.5295 133.164C70.0612 133.164 68.871 134.354 68.871 135.823C68.871 137.291 70.0612 138.481 71.5295 138.481Z" fill="url(#paint18_linear_257_7183)"/>
<path d="M76.5465 141.925C75.8255 141.661 75.1255 141.418 74.4465 141.198C74.4464 141.871 74.2946 142.535 74.0024 143.142C73.7102 143.748 73.285 144.281 72.7586 144.7C72.2322 145.119 71.618 145.415 70.9617 145.564C70.3054 145.713 69.6239 145.713 68.9678 145.563C68.3117 145.412 67.698 145.116 67.1722 144.696C66.6464 144.276 66.222 143.742 65.9307 143.136C65.6394 142.529 65.4886 141.864 65.4895 141.191C65.4904 140.518 65.6431 139.854 65.936 139.248C58.743 138.394 55.6195 140.372 55.6195 140.372C55.6195 140.372 50.237 140.391 42.0695 146.847C44.3437 150.708 46.9524 154.362 49.8655 157.766C50.0685 158.004 50.273 158.24 50.479 158.475C53.8337 162.301 57.56 165.785 61.603 168.875C62.536 168.825 63.053 168.752 63.053 168.752C89.453 163.233 94.0175 138.042 94.0755 137.715C94.0205 137.907 91.2095 147.294 76.5465 141.925ZM58.3395 143.955C58.5656 143.643 58.8793 143.404 59.241 143.27C59.6027 143.136 59.9961 143.112 60.3714 143.201C60.7467 143.29 61.0871 143.489 61.3494 143.772C61.6118 144.055 61.7843 144.409 61.8452 144.79C61.9061 145.171 61.8526 145.562 61.6916 145.912C61.5305 146.263 61.269 146.558 60.9403 146.76C60.6115 146.961 60.2303 147.061 59.8448 147.047C59.4592 147.032 59.0868 146.903 58.7745 146.676C58.3563 146.373 58.0757 145.916 57.9941 145.406C57.9125 144.896 58.0368 144.374 58.3395 143.955Z" fill="url(#paint19_linear_257_7183)"/>
<path d="M89.3335 144.55C89.3065 144.596 88.6685 145.7 87.2225 147.297C85.894 148.762 83.6015 150.934 80.2225 152.958C79.8935 153.155 79.5602 153.347 79.2225 153.534L83.027 154.234C83.0684 154.242 83.1079 154.257 83.1432 154.28C83.1785 154.303 83.209 154.332 83.2329 154.367C83.2568 154.402 83.2737 154.441 83.2826 154.482C83.2914 154.523 83.2921 154.565 83.2845 154.607C83.277 154.648 83.2614 154.687 83.2385 154.723C83.2157 154.758 83.1862 154.789 83.1516 154.812C83.117 154.836 83.0781 154.853 83.0369 154.862C82.9958 154.871 82.9534 154.872 82.912 154.864L78.308 154.036C75.2345 155.629 71.8345 156.832 68.1485 157.644L72.864 161.06C72.8998 161.084 72.9303 161.114 72.9539 161.15C72.9774 161.187 72.9934 161.227 73.001 161.269C73.0086 161.312 73.0075 161.355 72.998 161.397C72.9884 161.439 72.9704 161.479 72.9452 161.514C72.9199 161.548 72.8879 161.578 72.8511 161.6C72.8142 161.622 72.7733 161.637 72.7306 161.643C72.688 161.649 72.6446 161.646 72.603 161.635C72.5614 161.624 72.5225 161.605 72.4885 161.579L67.5045 157.97C67.4498 157.923 67.4116 157.859 67.3955 157.789C67.3455 157.799 67.2955 157.815 67.2455 157.825C63.902 158.48 60.339 158.795 56.5705 158.796L64.2855 164.383C64.3543 164.433 64.4005 164.508 64.4139 164.592C64.4272 164.676 64.4067 164.762 64.3568 164.831C64.3068 164.9 64.2316 164.946 64.1477 164.959C64.0637 164.972 63.9779 164.952 63.909 164.902L55.4315 158.76C53.8129 158.726 52.1614 158.631 50.477 158.474C50.271 158.24 50.0665 158.004 49.8635 157.765C55.3315 158.319 60.094 158.188 64.206 157.637C64.2124 157.606 64.2235 157.575 64.239 157.547L64.7195 156.685L69.6 146.619C69.6151 146.579 69.638 146.543 69.6673 146.512C69.6966 146.481 69.7317 146.456 69.7706 146.439C69.8095 146.422 69.8514 146.413 69.8939 146.412C69.9364 146.411 69.9786 146.419 70.0181 146.435C70.0575 146.451 70.0935 146.474 70.1239 146.504C70.1542 146.533 70.1783 146.569 70.1949 146.608C70.2114 146.647 70.2199 146.689 70.22 146.732C70.2202 146.774 70.2118 146.816 70.1955 146.856C68.3735 151.442 68.257 151.65 65.2775 156.997L64.9825 157.526C68.213 157.042 71.027 156.297 73.4535 155.426C73.4617 155.399 73.4731 155.373 73.4875 155.349L80.05 144.373C80.095 144.303 80.1654 144.253 80.2464 144.234C80.3273 144.215 80.4125 144.228 80.4838 144.271C80.5552 144.314 80.6072 144.382 80.6289 144.462C80.6506 144.543 80.6402 144.628 80.6 144.701L74.4 155.076C75.6119 154.608 76.7984 154.077 77.9545 153.485C77.9834 153.445 78.021 153.413 78.0643 153.39C78.1077 153.368 78.1556 153.355 78.2045 153.354C78.7902 153.046 79.3402 152.738 79.8545 152.43C83.1705 150.449 85.4185 148.326 86.721 146.893C88.127 145.347 88.764 144.251 88.775 144.231C88.8172 144.157 88.887 144.103 88.969 144.081C89.0511 144.058 89.1387 144.069 89.2125 144.112C89.2864 144.154 89.3405 144.223 89.3629 144.306C89.3853 144.388 89.3742 144.475 89.332 144.549L89.3335 144.55Z" fill="url(#paint20_linear_257_7183)"/>
<path opacity="0.11" d="M63.4445 168.668L61.6 168.875C57.557 165.785 53.8307 162.301 50.476 158.475C50.27 158.242 50.0655 158.005 49.8625 157.766C46.9494 154.362 44.3407 150.708 42.0665 146.847C41.8928 146.553 41.7213 146.258 41.552 145.961H43.44C50.477 158.474 63.4445 168.668 63.4445 168.668Z" fill="black"/>
<defs>
<linearGradient id="paint0_linear_257_7183" x1="58.1755" y1="74.9175" x2="36.5655" y2="35.5115" gradientUnits="userSpaceOnUse">
<stop stop-color="#36ABAE"/>
<stop offset="1" stop-color="#55FFC4"/>
</linearGradient>
<linearGradient id="paint1_linear_257_7183" x1="48.2175" y1="59.5026" x2="25.336" y2="25.1811" gradientUnits="userSpaceOnUse">
<stop stop-color="#3695AE"/>
<stop offset="1" stop-color="#55FFC4"/>
</linearGradient>
<linearGradient id="paint2_linear_257_7183" x1="164.197" y1="164.361" x2="42.1665" y2="42.3311" gradientUnits="userSpaceOnUse">
<stop stop-color="#DFDBDB"/>
<stop offset="0.31" stop-color="#F9F8F8"/>
<stop offset="0.41" stop-color="#F2F0F0"/>
<stop offset="0.65" stop-color="#E3DFDF"/>
<stop offset="1" stop-color="white"/>
</linearGradient>
<linearGradient id="paint3_linear_257_7183" x1="118.803" y1="133.249" x2="163.569" y2="72.245" gradientUnits="userSpaceOnUse">
<stop stop-color="#A789FF"/>
<stop offset="0.17" stop-color="#B29EF6"/>
<stop offset="0.54" stop-color="#C8C8E5"/>
<stop offset="0.83" stop-color="#D5E2DB"/>
<stop offset="1" stop-color="#DAECD7"/>
</linearGradient>
<linearGradient id="paint4_linear_257_7183" x1="128.626" y1="119.869" x2="178.761" y2="52.1872" gradientUnits="userSpaceOnUse">
<stop stop-color="#9870E6"/>
<stop offset="1" stop-color="#DAECD7"/>
</linearGradient>
<linearGradient id="paint5_linear_257_7183" x1="10.769" y1="46.2261" x2="103.831" y2="-21.4554" gradientUnits="userSpaceOnUse">
<stop stop-color="#36ABAE"/>
<stop offset="1" stop-color="#55FFC4"/>
</linearGradient>
<linearGradient id="paint6_linear_257_7183" x1="3.2047" y1="60.8208" x2="96.2672" y2="-6.8607" gradientUnits="userSpaceOnUse">
<stop stop-color="#36ABAE"/>
<stop offset="1" stop-color="#55FFC4"/>
</linearGradient>
<linearGradient id="paint7_linear_257_7183" x1="8.85262" y1="71.8088" x2="101.915" y2="4.12733" gradientUnits="userSpaceOnUse">
<stop stop-color="#36ABAE"/>
<stop offset="1" stop-color="#55FFC4"/>
</linearGradient>
<linearGradient id="paint8_linear_257_7183" x1="-22.235" y1="106.69" x2="70.827" y2="39.0075" gradientUnits="userSpaceOnUse">
<stop stop-color="#36ABAE"/>
<stop offset="1" stop-color="#55FFC4"/>
</linearGradient>
<linearGradient id="paint9_linear_257_7183" x1="20.7325" y1="73.6663" x2="11.959" y2="60.1928" gradientUnits="userSpaceOnUse">
<stop stop-color="#36ABAE"/>
<stop offset="1" stop-color="#55FFC4"/>
</linearGradient>
<linearGradient id="paint10_linear_257_7183" x1="134.743" y1="70.349" x2="126.91" y2="62.202" gradientUnits="userSpaceOnUse">
<stop stop-color="#A789FF"/>
<stop offset="1" stop-color="#DAECD7"/>
</linearGradient>
<linearGradient id="paint11_linear_257_7183" x1="123.723" y1="59.0115" x2="118.397" y2="52.7445" gradientUnits="userSpaceOnUse">
<stop stop-color="#A789FF"/>
<stop offset="1" stop-color="#DAECD7"/>
</linearGradient>
<linearGradient id="paint12_linear_257_7183" x1="192.647" y1="112.337" x2="168.667" y2="99.4241" gradientUnits="userSpaceOnUse">
<stop stop-color="#A789FF"/>
<stop offset="1" stop-color="#DAECD7"/>
</linearGradient>
<linearGradient id="paint13_linear_257_7183" x1="152.878" y1="60.0041" x2="143.165" y2="53.1106" gradientUnits="userSpaceOnUse">
<stop stop-color="#A789FF"/>
<stop offset="1" stop-color="#DAECD7"/>
</linearGradient>
<linearGradient id="paint14_linear_257_7183" x1="44.2103" y1="165.491" x2="47.2358" y2="165.491" gradientUnits="userSpaceOnUse">
<stop stop-color="#36ABAE"/>
<stop offset="1" stop-color="#55FFC4"/>
</linearGradient>
<linearGradient id="paint15_linear_257_7183" x1="35.87" y1="181.662" x2="47.236" y2="181.662" gradientUnits="userSpaceOnUse">
<stop stop-color="#36ABAE"/>
<stop offset="1" stop-color="#55FFC4"/>
</linearGradient>
<linearGradient id="paint16_linear_257_7183" x1="78.2595" y1="76.3941" x2="78.698" y2="147.712" gradientUnits="userSpaceOnUse">
<stop stop-color="white"/>
<stop offset="0.01" stop-color="#EEEEEE"/>
<stop offset="0.05" stop-color="#CFCFCF"/>
<stop offset="0.08" stop-color="#B3B3B3"/>
<stop offset="0.12" stop-color="#9D9D9D"/>
<stop offset="0.17" stop-color="#8C8C8C"/>
<stop offset="0.23" stop-color="#818181"/>
<stop offset="0.31" stop-color="#7A7A7A"/>
<stop offset="0.53" stop-color="#787878"/>
<stop offset="0.73" stop-color="#7A7A7A"/>
<stop offset="0.8" stop-color="#818181"/>
<stop offset="0.85" stop-color="#8C8C8C"/>
<stop offset="0.89" stop-color="#9D9D9D"/>
<stop offset="0.93" stop-color="#B3B3B3"/>
<stop offset="0.96" stop-color="#CFCFCF"/>
<stop offset="0.99" stop-color="#EEEEEE"/>
<stop offset="1" stop-color="white"/>
</linearGradient>
<linearGradient id="paint17_linear_257_7183" x1="78.2595" y1="76.3941" x2="78.698" y2="147.712" gradientUnits="userSpaceOnUse">
<stop stop-color="#A1A1A6"/>
<stop offset="0.04" stop-color="#BCBBBF"/>
<stop offset="0.08" stop-color="#D2D0D4"/>
<stop offset="0.14" stop-color="#E3E1E4"/>
<stop offset="0.2" stop-color="#EEEDEF"/>
<stop offset="0.29" stop-color="#F5F3F5"/>
<stop offset="0.53" stop-color="#F7F5F7"/>
<stop offset="0.76" stop-color="#F5F3F5"/>
<stop offset="0.84" stop-color="#EFECEF"/>
<stop offset="0.9" stop-color="#E3E1E3"/>
<stop offset="0.95" stop-color="#D3D0D3"/>
<stop offset="0.99" stop-color="#BFBABF"/>
<stop offset="1" stop-color="#B5B0B5"/>
</linearGradient>
<linearGradient id="paint18_linear_257_7183" x1="71.3585" y1="140.177" x2="71.7975" y2="128.985" gradientUnits="userSpaceOnUse">
<stop stop-color="#36ABAE"/>
<stop offset="1" stop-color="#55FFC4"/>
</linearGradient>
<linearGradient id="paint19_linear_257_7183" x1="66.1467" y1="135.658" x2="75.7552" y2="162.238" gradientUnits="userSpaceOnUse">
<stop stop-color="#36ABAE"/>
<stop offset="1" stop-color="#55FFC4"/>
</linearGradient>
<linearGradient id="paint20_linear_257_7183" x1="77.431" y1="161.046" x2="63.2835" y2="142.893" gradientUnits="userSpaceOnUse">
<stop stop-color="#9870E6"/>
<stop offset="1" stop-color="#DAECD7"/>
</linearGradient>
</defs>
</svg>
